{
classes = (
{
automatic = 1;
code = "A Aacute Abreve Acircumflex Adieresis Agrave Amacron Aogonek Aring Atilde AE B C Cacute Ccaron Ccedilla Ccircumflex Cdotaccent D Eth Dcaron Dcroat E Eacute Ebreve Ecaron Ecircumflex Edieresis Edotaccent Egrave Emacron Eogonek F G Gbreve Gcircumflex Gcommaaccent Gdotaccent H Hbar Hcircumflex I IJ Iacute Ibreve Icircumflex Idieresis Idotaccent Igrave Imacron Iogonek Itilde J Jcircumflex K Kcommaaccent L Lacute Lcaron Lcommaaccent Ldot Lslash M N Nacute Ncaron Ncommaaccent Eng Ntilde O Oacute Obreve Ocircumflex Odieresis Ograve Ohungarumlaut Omacron Oslash Otilde OE P Thorn Q R Racute Rcaron Rcommaaccent S Sacute Scaron Scedilla Scircumflex Scommaaccent T Tbar Tcaron Tcedilla Tcommaaccent U Uacute Ubreve Ucircumflex Udieresis Ugrave Uhungarumlaut Umacron Uogonek Uring Utilde V W Wacute Wcircumflex Wdieresis Wgrave X Y Yacute Ycircumflex Ydieresis Ygrave Z Zacute Zcaron Zdotaccent Delta Omega";
name = Uppercase;
}
);
copyright = "Copyright (c) 2015 Quote-Unquote Apps.";
customParameters = (
{
name = openTypeNameLicenseURL;
value = "http://scripts.sil.org/OFL";
},
{
name = openTypeNameLicense;

glyphs = (
{
glyphname = A;
lastChange = "2015-01-12 05:49:59 +0000";
layers = (
{
layerId = UUID0;
name = "Regular Italic";
paths = (
{
closed = 1;
nodes = (
"692 1209 OFFCURVE",
"657 1191 OFFCURVE",
"631 1144 CURVE SMOOTH",
"54 91 LINE SMOOTH",
"30 47 OFFCURVE",
"38 23 OFFCURVE",
"87 0 CURVE SMOOTH",
"135 -23 OFFCURVE",
"168 -16 OFFCURVE",
"192 28 CURVE SMOOTH",
"393 398 LINE",
"401 414 LINE",
"729 1043 LINE",
"733 1043 LINE",
"843 420 LINE",
"847 401 LINE",
"916 41 LINE SMOOTH",
"924 -3 OFFCURVE",
"944 -15 OFFCURVE",
"1004 -8 CURVE SMOOTH",
"1064 -1 OFFCURVE",
"1075 19 OFFCURVE",
"1066 63 CURVE SMOOTH",
"855 1144 LINE SMOOTH",
"846 1191 OFFCURVE",
"818 1209 OFFCURVE",
"755 1209 CURVE SMOOTH"
);
},
{
closed = 1;
nodes = (
"368 474 LINE",
"318 330 LINE",
"882 330 LINE",
"869 474 LINE"
);
}
);
width = 1228;
}
);
unicode = 0041;
},
{
color = 3;
glyphname = Aogonek;
lastChange = "2015-01-12 05:49:59 +0000";
layers = (
{
background = {
paths = (
{
closed = 1;
nodes = (
"869 474 LINE",
"368 474 LINE",
"326 417 LINE",
"318 330 LINE",
"882 330 LINE",
"897 386 LINE"
);
},
{
closed = 1;
nodes = (
"393 398 LINE",
"731 1043 LINE",
"843 420 LINE",
"921 15 LINE",
"1055 8 LINE",
"1070 20 OFFCURVE",
"1071 37 OFFCURVE",
"1066 63 CURVE SMOOTH",
"855 1144 LINE SMOOTH",
"846 1191 OFFCURVE",
"818 1209 OFFCURVE",
"755 1209 CURVE SMOOTH",
"692 1209 OFFCURVE",
"657 1191 OFFCURVE",
"631 1144 CURVE SMOOTH",
"54 91 LINE SMOOTH",
"30 47 OFFCURVE",
"38 23 OFFCURVE",
"87 0 CURVE SMOOTH",
"135 -23 OFFCURVE",
"168 -16 OFFCURVE",
"192 28 CURVE SMOOTH"
);
},
{
closed = 1;
nodes = (
"854 -336 OFFCURVE",
"829 -316 OFFCURVE",
"829 -277 CURVE SMOOTH",
"829 -204 OFFCURVE",
"900 -114 OFFCURVE",
"1055 8 CURVE",
"1040 33 LINE",
"926 39 LINE",
"766 -74 OFFCURVE",
"673 -186 OFFCURVE",
"673 -310 CURVE SMOOTH",
"673 -406 OFFCURVE",
"731 -472 OFFCURVE",
"838 -472 CURVE SMOOTH",
"902 -472 OFFCURVE",
"967 -460 OFFCURVE",
"1016 -443 CURVE SMOOTH",
"1047 -432 OFFCURVE",
"1057 -411 OFFCURVE",
"1052 -374 CURVE SMOOTH",
"1047 -337 OFFCURVE",
"1032 -322 OFFCURVE",
"1005 -326 CURVE SMOOTH",
"969 -332 OFFCURVE",
"933 -336 OFFCURVE",
"894 -336 CURVE SMOOTH"
);
}
);
};
layerId = UUID0;
name = "Regular Italic";
paths = (
{
closed = 1;
nodes = (
"692 1209 OFFCURVE",
"657 1191 OFFCURVE",
"631 1144 CURVE SMOOTH",
"54 91 LINE SMOOTH",
"30 47 OFFCURVE",
"38 23 OFFCURVE",
"87 0 CURVE SMOOTH",
"135 -23 OFFCURVE",
"168 -16 OFFCURVE",
"192 28 CURVE SMOOTH",
"356.059 330 LINE",
"860.333 330 LINE",
"917.537 32.9792 LINE",
"762.725 -77.9827 OFFCURVE",
"673 -188.203 OFFCURVE",
"673 -310 CURVE SMOOTH",
"673 -406 OFFCURVE",
"731 -472 OFFCURVE",
"838 -472 CURVE SMOOTH",
"902 -472 OFFCURVE",
"967 -460 OFFCURVE",
"1016 -443 CURVE SMOOTH",
"1047 -432 OFFCURVE",
"1057 -411 OFFCURVE",
"1052 -374 CURVE SMOOTH",
"1047 -337 OFFCURVE",
"1032 -322 OFFCURVE",
"1005 -326 CURVE SMOOTH",
"969 -332 OFFCURVE",
"933 -336 OFFCURVE",
"894 -336 CURVE SMOOTH",
"854 -336 OFFCURVE",
"829 -316 OFFCURVE",
"829 -277 CURVE SMOOTH",
"829 -204 OFFCURVE",
"900 -114 OFFCURVE",
"1055 8 CURVE SMOOTH",
"1070 20 OFFCURVE",
"1071 37 OFFCURVE",
"1066 63 CURVE SMOOTH",
"855 1144 LINE SMOOTH",
"846 1191 OFFCURVE",
"818 1209 OFFCURVE",
"755 1209 CURVE SMOOTH"
);
},
{
closed = 1;
nodes = (
"833.292 474 LINE",
"432.826 474 LINE",
"731 1043 LINE"
);
}
);
width = 1228;
}
);
unicode = 0104;
},
{
glyphname = AE;
lastChange = "2015-01-12 05:49:59 +0000";
layers = (
{
background = {
paths = (
{
closed = 1;
nodes = (
"1037 0 LINE SMOOTH",
"1082 0 OFFCURVE",
"1103 20 OFFCURVE",
"1112 72 CURVE SMOOTH",
"1121 124 OFFCURVE",
"1107 144 OFFCURVE",
"1062 144 CURVE SMOOTH",
"680 144 LINE",
"750 540 LINE",
"1067 540 LINE SMOOTH",
"1112 540 OFFCURVE",
"1133 560 OFFCURVE",
"1142 612 CURVE SMOOTH",
"1152 664 OFFCURVE",
"1137 684 OFFCURVE",
"1092 684 CURVE SMOOTH",
"775 684 LINE",
"838 1043 LINE",
"1200 1043 LINE SMOOTH",
"1245 1043 OFFCURVE",
"1267 1063 OFFCURVE",
"1276 1115 CURVE SMOOTH",
"1285 1167 OFFCURVE",
"1271 1187 OFFCURVE",
"1226 1187 CURVE SMOOTH",
"775 1187 LINE",
"702 1119 LINE",
"516 68 LINE SMOOTH",
"507 18 OFFCURVE",
"525 0 OFFCURVE",
"570 0 CURVE SMOOTH"
);
},
{
closed = 1;
nodes = (
"649 514 LINE",
"298 514 LINE",
"256 457 LINE",
"248 370 LINE",
"612 370 LINE"
);
},
{
closed = 1;
nodes = (
"658 1187 LINE SMOOTH",
"613 1187 OFFCURVE",
"585 1169 OFFCURVE",
"557 1119 CURVE",
"-26 91 LINE SMOOTH",
"-51 47 OFFCURVE",
"-43 22 OFFCURVE",
"4 0 CURVE SMOOTH",
"52 -23 OFFCURVE",
"85 -16 OFFCURVE",
"110 28 CURVE SMOOTH",
"319 398 LINE",
"669 1043 LINE",
"744 1043 LINE",
"805 1187 LINE"
);
}
);
};
layerId = UUID0;
name = "Regular Italic";
paths = (
{
closed = 1;
nodes = (
"658 1187 LINE SMOOTH",
"613 1187 OFFCURVE",
"585 1169 OFFCURVE",
"557 1119 CURVE SMOOTH",
"-26 91 LINE SMOOTH",
"-51 47 OFFCURVE",
"-43 22 OFFCURVE",
"4 0 CURVE SMOOTH",
"52 -23 OFFCURVE",
"85 -16 OFFCURVE",
"110 28 CURVE SMOOTH",
"319 398 LINE",
"346 448 LINE",
"669 1043 LINE",
"688.55 1043 LINE",
"516 68 LINE SMOOTH",
"507 18 OFFCURVE",
"525 0 OFFCURVE",
"570 0 CURVE SMOOTH",
"1037 0 LINE SMOOTH",
"1082 0 OFFCURVE",
"1103 20 OFFCURVE",
"1112 72 CURVE SMOOTH",
"1121 124 OFFCURVE",
"1107 144 OFFCURVE",
"1062 144 CURVE SMOOTH",
"680 144 LINE",
"750 540 LINE",
"1067 540 LINE SMOOTH",
"1112 540 OFFCURVE",
"1133 560 OFFCURVE",
"1142 612 CURVE SMOOTH",
"1152 664 OFFCURVE",
"1137 684 OFFCURVE",
"1092 684 CURVE SMOOTH",
"775 684 LINE",
"838 1043 LINE",
"1200 1043 LINE SMOOTH",
"1245 1043 OFFCURVE",
"1267 1063 OFFCURVE",
"1276 1115 CURVE SMOOTH",
"1285 1167 OFFCURVE",
"1271 1187 OFFCURVE",
"1226 1187 CURVE SMOOTH"
);
},
{
closed = 1;
nodes = (
"298 514 LINE",
"248 370 LINE",
"612 370 LINE",
"649 514 LINE"
);
}
);
width = 1228;
}
);
unicode = 00C6;
},
{
glyphname = B;
lastChange = "2015-01-14 04:03:31 +0000";
layers = (
{
layerId = UUID0;
name = "Regular Italic";
paths = (
{
closed = 1;
nodes = (
"405 1187 LINE SMOOTH",
"360 1187 OFFCURVE",
"341 1169 OFFCURVE",
"332 1119 CURVE SMOOTH",
"146 68 LINE SMOOTH",
"137 18 OFFCURVE",
"155 0 OFFCURVE",
"200 0 CURVE SMOOTH",
"630 0 LINE SMOOTH",
"928 0 OFFCURVE",
"1066 173 OFFCURVE",
"1066 366 CURVE SMOOTH",
"1066 485 OFFCURVE",
"1010 573 OFFCURVE",
"909 612 CURVE",
"1023 673 OFFCURVE",
"1094 764 OFFCURVE",
"1094 914 CURVE SMOOTH",
"1094 1076 OFFCURVE",
"991 1187 OFFCURVE",
"777 1187 CURVE SMOOTH"
);
},
{
closed = 1;
nodes = (
"840 531 OFFCURVE",
"909 476 OFFCURVE",
"909 368 CURVE SMOOTH",
"909 221 OFFCURVE",
"796 144 OFFCURVE",
"620 144 CURVE SMOOTH",
"310 144 LINE",
"378 531 LINE",
"701 531 LINE SMOOTH"
);
},
{
closed = 1;
nodes = (
"885 1043 OFFCURVE",
"941 994 OFFCURVE",
"941 897 CURVE SMOOTH",
"941 764 OFFCURVE",
"844 675 OFFCURVE",
"672 675 CURVE SMOOTH",
"404 675 LINE",
"468 1043 LINE",
"747 1043 LINE SMOOTH"
);
}
);
width = 1228;
}
);
unicode = 0042;
},
{
glyphname = C;
lastChange = "2015-01-12 05:49:59 +0000";
layers = (
{
layerId = UUID0;
name = "Regular Italic";
paths = (
{
closed = 1;
nodes = (
"415 1209 OFFCURVE",
"170 840 OFFCURVE",
"170 453 CURVE SMOOTH",
"170 166 OFFCURVE",
"333 -22 OFFCURVE",
"603 -22 CURVE SMOOTH",
"742 -22 OFFCURVE",
"875 14 OFFCURVE",
"1001 86 CURVE SMOOTH",
"1041 109 OFFCURVE",
"1046 141 OFFCURVE",
"1023 187 CURVE SMOOTH",
"999 234 OFFCURVE",
"965 242 OFFCURVE",
"934 222 CURVE SMOOTH",
"840 161 OFFCURVE",
"726 126 OFFCURVE",
"614 126 CURVE SMOOTH",
"432 126 OFFCURVE",
"324 251 OFFCURVE",
"324 461 CURVE SMOOTH",
"324 755 OFFCURVE",
"500 1061 OFFCURVE",
"789 1061 CURVE SMOOTH",
"887 1061 OFFCURVE",
"991 1034 OFFCURVE",
"1072 980 CURVE SMOOTH",
"1102 960 OFFCURVE",
"1137 968 OFFCURVE",
"1161 1015 CURVE SMOOTH",
"1184 1061 OFFCURVE",
"1179 1093 OFFCURVE",
"1139 1116 CURVE SMOOTH",
"1031 1179 OFFCURVE",
"918 1209 OFFCURVE",
"800 1209 CURVE SMOOTH"
);
}
);
width = 1228;
}
);
unicode = 0043;
},
{
glyphname = D;
lastChange = "2015-01-12 05:49:59 +0000";
layers = (
{
background = {
paths = (
{
closed = 1;
nodes = (
"375 1187 LINE SMOOTH",
"330 1187 OFFCURVE",
"311 1169 OFFCURVE",
"302 1119 CURVE SMOOTH",
"116 68 LINE SMOOTH",
"107 18 OFFCURVE",
"125 0 OFFCURVE",
"170 0 CURVE SMOOTH",
"522 0 LINE SMOOTH",
"731 0 OFFCURVE",
"878 90 OFFCURVE",
"976 213 CURVE SMOOTH",
"1098 366 OFFCURVE",
"1146 571 OFFCURVE",
"1146 724 CURVE SMOOTH",
"1146 1011 OFFCURVE",
"974 1187 OFFCURVE",
"701 1187 CURVE SMOOTH"
);
},
{
closed = 1;
nodes = (
"869 1043 OFFCURVE",
"993 936 OFFCURVE",
"993 719 CURVE SMOOTH",
"993 592 OFFCURVE",
"956 432 OFFCURVE",
"864 313 CURVE SMOOTH",
"788 214 OFFCURVE",
"673 144 OFFCURVE",
"510 144 CURVE SMOOTH",
"280 144 LINE",
"438 1043 LINE",
"668 1043 LINE SMOOTH"
);
}
);
};
layerId = UUID0;
name = "Regular Italic";
paths = (
{
closed = 1;
nodes = (
"375 1187 LINE SMOOTH",
"330 1187 OFFCURVE",
"311 1169 OFFCURVE",
"302 1119 CURVE SMOOTH",
"116 68 LINE SMOOTH",
"107 18 OFFCURVE",
"125 0 OFFCURVE",
"170 0 CURVE SMOOTH",
"522 0 LINE SMOOTH",
"731 0 OFFCURVE",
"878 90 OFFCURVE",
"976 213 CURVE SMOOTH",
"1098 366 OFFCURVE",
"1146 571 OFFCURVE",
"1146 724 CURVE SMOOTH",
"1146 1011 OFFCURVE",
"974 1187 OFFCURVE",
"701 1187 CURVE SMOOTH"
);
},
{
closed = 1;
nodes = (
"869 1043 OFFCURVE",
"993 936 OFFCURVE",
"993 719 CURVE SMOOTH",
"993 592 OFFCURVE",
"956 432 OFFCURVE",
"864 313 CURVE SMOOTH",
"788 214 OFFCURVE",
"673 144 OFFCURVE",
"510 144 CURVE SMOOTH",
"280 144 LINE",
"438 1043 LINE",
"668 1043 LINE SMOOTH"
);
}
);
width = 1228;
}
);
unicode = 0044;
},
{
color = 6;
glyphname = Eth;
lastChange = "2015-01-12 05:49:59 +0000";
layers = (
{
background = {
paths = (
{
closed = 1;
nodes = (
"425 1187 LINE SMOOTH",
"380 1187 OFFCURVE",
"361 1169 OFFCURVE",
"352 1119 CURVE SMOOTH",
"166 68 LINE SMOOTH",
"157 18 OFFCURVE",
"175 0 OFFCURVE",
"220 0 CURVE SMOOTH",
"542 0 LINE SMOOTH",
"1009 0 OFFCURVE",
"1166 447 OFFCURVE",
"1166 724 CURVE SMOOTH",
"1166 1011 OFFCURVE",
"994 1187 OFFCURVE",
"721 1187 CURVE SMOOTH"
);
},
{
closed = 1;
nodes = (
"889 1043 OFFCURVE",
"1013 936 OFFCURVE",
"1013 719 CURVE SMOOTH",
"1013 487 OFFCURVE",
"890 144 OFFCURVE",
"530 144 CURVE SMOOTH",
"330 144 LINE",
"488 1043 LINE",
"688 1043 LINE SMOOTH"
);
}
);
};
layerId = UUID0;
name = "Regular Italic";
paths = (
{
closed = 1;
nodes = (
"163 684 LINE SMOOTH",
"118 684 OFFCURVE",
"96 664 OFFCURVE",
"87 612 CURVE SMOOTH",
"78 560 OFFCURVE",
"92 540 OFFCURVE",
"137 540 CURVE SMOOTH",
"619 540 LINE SMOOTH",
"664 540 OFFCURVE",
"686 560 OFFCURVE",
"695 612 CURVE SMOOTH",
"704 664 OFFCURVE",
"690 684 OFFCURVE",
"645 684 CURVE SMOOTH"
);
},
{
closed = 1;
nodes = (
"425 1187 LINE SMOOTH",
"380 1187 OFFCURVE",
"361 1169 OFFCURVE",
"352 1119 CURVE SMOOTH",
"166 68 LINE SMOOTH",
"157 18 OFFCURVE",
"175 0 OFFCURVE",
"220 0 CURVE SMOOTH",
"522 0 LINE SMOOTH",
"731 0 OFFCURVE",
"878 90 OFFCURVE",
"976 213 CURVE SMOOTH",
"1098 366 OFFCURVE",
"1146 571 OFFCURVE",
"1146 724 CURVE SMOOTH",
"1146 1011 OFFCURVE",
"974 1187 OFFCURVE",
"701 1187 CURVE SMOOTH"
);
},
{
closed = 1;
nodes = (
"869 1043 OFFCURVE",
"993 936 OFFCURVE",
"993 719 CURVE SMOOTH",
"993 592 OFFCURVE",
"956 432 OFFCURVE",
"864 313 CURVE SMOOTH",
"788 214 OFFCURVE",
"673 144 OFFCURVE",
"510 144 CURVE SMOOTH",
"330 144 LINE",
"488 1043 LINE",
"668 1043 LINE SMOOTH"
);
}
);
width = 1228;
}
);
unicode = 00D0;
},
{
glyphname = E;
lastChange = "2015-01-12 05:49:59 +0000";
layers = (
{
layerId = UUID0;
name = "Regular Italic";
paths = (
{
closed = 1;
nodes = (
"425 1187 LINE SMOOTH",
"380 1187 OFFCURVE",
"361 1169 OFFCURVE",
"352 1119 CURVE SMOOTH",
"166 68 LINE SMOOTH",
"157 18 OFFCURVE",
"175 0 OFFCURVE",
"220 0 CURVE SMOOTH",
"907 0 LINE SMOOTH",
"952 0 OFFCURVE",
"973 20 OFFCURVE",
"982 72 CURVE SMOOTH",
"991 124 OFFCURVE",
"977 144 OFFCURVE",
"932 144 CURVE SMOOTH",
"330 144 LINE",
"488 1043 LINE",
"1070 1043 LINE SMOOTH",
"1115 1043 OFFCURVE",
"1137 1063 OFFCURVE",
"1146 1115 CURVE SMOOTH",
"1155 1167 OFFCURVE",
"1141 1187 OFFCURVE",
"1096 1187 CURVE SMOOTH"
);
},
{
closed = 1;
nodes = (
"379 684 LINE",
"354 540 LINE",
"857 540 LINE SMOOTH",
"902 540 OFFCURVE",
"923 560 OFFCURVE",
"932 612 CURVE SMOOTH",
"942 664 OFFCURVE",
"927 684 OFFCURVE",
"882 684 CURVE SMOOTH"
);
}
);
width = 1228;
}
);
unicode = 0045;
},
{
glyphname = F;
lastChange = "2015-01-12 05:49:59 +0000";
layers = (
{
layerId = UUID0;
name = "Regular Italic";
paths = (
{
closed = 1;
nodes = (
"445 1187 LINE SMOOTH",
"400 1187 OFFCURVE",
"381 1169 OFFCURVE",
"372 1119 CURVE SMOOTH",
"184 55 LINE SMOOTH",
"176 9 OFFCURVE",
"191 -10 OFFCURVE",
"247 -10 CURVE SMOOTH",
"249 -10 LINE SMOOTH",
"302 -10 OFFCURVE",
"326 9 OFFCURVE",
"334 55 CURVE SMOOTH",
"508 1043 LINE",
"1090 1043 LINE SMOOTH",
"1135 1043 OFFCURVE",
"1157 1063 OFFCURVE",
"1166 1115 CURVE SMOOTH",
"1175 1167 OFFCURVE",
"1161 1187 OFFCURVE",
"1116 1187 CURVE SMOOTH"
);
},
{
closed = 1;
nodes = (
"392 644 LINE",
"367 500 LINE",
"880 500 LINE SMOOTH",
"925 500 OFFCURVE",
"946 520 OFFCURVE",
"955 572 CURVE SMOOTH",
"965 624 OFFCURVE",
"950 644 OFFCURVE",
"905 644 CURVE SMOOTH"
);
}
);
width = 1228;
}
);
unicode = 0046;
},
{
glyphname = G;
lastChange = "2015-01-12 05:49:59 +0000";
layers = (
{
layerId = UUID0;
name = "Regular Italic";
paths = (
{
closed = 1;
nodes = (
"388 1209 OFFCURVE",
"131 845 OFFCURVE",
"131 460 CURVE SMOOTH",
"131 169 OFFCURVE",
"303 -22 OFFCURVE",
"575 -22 CURVE SMOOTH",
"726 -22 OFFCURVE",
"867 6 OFFCURVE",
"988 65 CURVE SMOOTH",
"1013 77 OFFCURVE",
"1030 102 OFFCURVE",
"1036 134 CURVE SMOOTH",
"1105 526 LINE SMOOTH",
"1114 576 OFFCURVE",
"1099 594 OFFCURVE",
"1054 594 CURVE SMOOTH",
"700 594 LINE SMOOTH",
"655 594 OFFCURVE",
"634 574 OFFCURVE",
"625 522 CURVE SMOOTH",
"615 470 OFFCURVE",
"630 450 OFFCURVE",
"675 450 CURVE SMOOTH",
"942 450 LINE",
"895 183 LINE",
"801 143 OFFCURVE",
"699 126 OFFCURVE",
"586 126 CURVE SMOOTH",
"399 126 OFFCURVE",
"288 253 OFFCURVE",
"288 465 CURVE SMOOTH",
"288 744 OFFCURVE",
"456 1061 OFFCURVE",
"761 1061 CURVE SMOOTH",
"865 1061 OFFCURVE",
"976 1034 OFFCURVE",
"1064 981 CURVE SMOOTH",
"1096 962 OFFCURVE",
"1129 969 OFFCURVE",
"1153 1016 CURVE SMOOTH",
"1177 1062 OFFCURVE",
"1171 1094 OFFCURVE",
"1131 1117 CURVE SMOOTH",
"1022 1180 OFFCURVE",
"896 1209 OFFCURVE",
"772 1209 CURVE SMOOTH"
);
}
);
width = 1228;
}
);
unicode = 0047;
},
{
glyphname = H;
lastChange = "2015-01-12 05:49:59 +0000";
layers = (
{
layerId = UUID0;
name = "Regular Italic";
paths = (
{
closed = 1;
nodes = (
"1117 1197 LINE SMOOTH",
"1064 1197 OFFCURVE",
"1040 1178 OFFCURVE",
"1032 1132 CURVE SMOOTH",
"953 684 LINE",
"375 684 LINE",
"454 1132 LINE SMOOTH",
"462 1178 OFFCURVE",
"447 1197 OFFCURVE",
"391 1197 CURVE SMOOTH",
"389 1197 LINE SMOOTH",
"336 1197 OFFCURVE",
"312 1178 OFFCURVE",
"304 1132 CURVE SMOOTH",
"114 55 LINE SMOOTH",
"106 9 OFFCURVE",
"121 -10 OFFCURVE",
"177 -10 CURVE SMOOTH",
"179 -10 LINE SMOOTH",
"232 -10 OFFCURVE",
"256 9 OFFCURVE",
"264 55 CURVE SMOOTH",
"350 540 LINE",
"928 540 LINE",
"842 55 LINE SMOOTH",
"834 9 OFFCURVE",
"849 -10 OFFCURVE",
"905 -10 CURVE SMOOTH",
"907 -10 LINE SMOOTH",
"960 -10 OFFCURVE",
"984 9 OFFCURVE",
"992 55 CURVE SMOOTH",
"1182 1132 LINE SMOOTH",
"1190 1178 OFFCURVE",
"1175 1197 OFFCURVE",
"1119 1197 CURVE SMOOTH"
);
}
);
width = 1228;
}
);
unicode = 0048;
},
{
color = 6;
glyphname = Hbar;
lastChange = "2015-01-12 05:49:59 +0000";
layers = (
{
components = (
{
name = H;
transform = "{1, 0, 0, 1, 0, 0}";
}
);
layerId = UUID0;
name = "Regular Italic";
paths = (
{
closed = 1;
nodes = (
"195 974 LINE SMOOTH",
"150 974 OFFCURVE",
"128 954 OFFCURVE",
"119 902 CURVE SMOOTH",
"110 850 OFFCURVE",
"124 830 OFFCURVE",
"169 830 CURVE SMOOTH",
"1211 830 LINE SMOOTH",
"1256 830 OFFCURVE",
"1278 850 OFFCURVE",
"1287 902 CURVE SMOOTH",
"1296 954 OFFCURVE",
"1282 974 OFFCURVE",
"1237 974 CURVE SMOOTH"
);
}
);
width = 1228;
}
);
unicode = 0126;
},
{
glyphname = I;
lastChange = "2015-01-12 05:49:59 +0000";
layers = (
{
layerId = UUID0;
name = "Regular Italic";
paths = (
{
closed = 1;
nodes = (
"412 1187 LINE SMOOTH",
"367 1187 OFFCURVE",
"345 1167 OFFCURVE",
"336 1115 CURVE SMOOTH",
"327 1063 OFFCURVE",
"341 1043 OFFCURVE",
"386 1043 CURVE SMOOTH",
"652 1043 LINE",
"494 144 LINE",
"228 144 LINE SMOOTH",
"183 144 OFFCURVE",
"161 124 OFFCURVE",
"152 72 CURVE SMOOTH",
"143 20 OFFCURVE",
"158 0 OFFCURVE",
"203 0 CURVE SMOOTH",
"905 0 LINE SMOOTH",
"950 0 OFFCURVE",
"971 20 OFFCURVE",
"980 72 CURVE SMOOTH",
"989 124 OFFCURVE",
"975 144 OFFCURVE",
"930 144 CURVE SMOOTH",
"644 144 LINE",
"802 1043 LINE",
"1048 1043 LINE SMOOTH",
"1093 1043 OFFCURVE",
"1115 1063 OFFCURVE",
"1124 1115 CURVE SMOOTH",
"1133 1167 OFFCURVE",
"1119 1187 OFFCURVE",
"1074 1187 CURVE SMOOTH"
);
}
);
width = 1228;
}
);
unicode = 0049;
},
{
glyphname = IJ;
lastChange = "2015-01-14 20:36:37 +0000";
layers = (
{
layerId = UUID0;
name = "Regular Italic";
paths = (
{
closed = 1;
nodes = (
"1118 1197 LINE SMOOTH",
"1065 1197 OFFCURVE",
"1041 1178 OFFCURVE",
"1033 1132 CURVE SMOOTH",
"883 283 LINE SMOOTH",
"863 170 OFFCURVE",
"816 126 OFFCURVE",
"734 126 CURVE SMOOTH",
"674 126 OFFCURVE",
"607 142 OFFCURVE",
"557 167 CURVE SMOOTH",
"531 180 OFFCURVE",
"500 178 OFFCURVE",
"477 125 CURVE SMOOTH",
"454 73 OFFCURVE",
"464 47 OFFCURVE",
"498 28 CURVE SMOOTH",
"560 -5 OFFCURVE",
"652 -22 OFFCURVE",
"721 -22 CURVE SMOOTH",
"897 -22 OFFCURVE",
"996 74 OFFCURVE",
"1028 253 CURVE SMOOTH",
"1183 1132 LINE SMOOTH",
"1191 1178 OFFCURVE",
"1176 1197 OFFCURVE",
"1120 1197 CURVE SMOOTH"
);
},
{
closed = 1;
nodes = (
"393 1197 LINE SMOOTH",
"340 1197 OFFCURVE",
"316 1178 OFFCURVE",
"308 1132 CURVE SMOOTH",
"118 55 LINE SMOOTH",
"110 9 OFFCURVE",
"125 -10 OFFCURVE",
"181 -10 CURVE SMOOTH",
"183 -10 LINE SMOOTH",
"236 -10 OFFCURVE",
"260 9 OFFCURVE",
"268 55 CURVE SMOOTH",
"458 1132 LINE SMOOTH",
"466 1178 OFFCURVE",
"451 1197 OFFCURVE",
"395 1197 CURVE SMOOTH"
);
}
);
width = 1228;
}
);
unicode = 0132;
},
{
glyphname = J;
lastChange = "2015-01-12 05:49:59 +0000";
layers = (
{
layerId = UUID0;
name = "Regular Italic";
paths = (
{
closed = 1;
nodes = (
"582 1187 LINE SMOOTH",
"537 1187 OFFCURVE",
"515 1167 OFFCURVE",
"506 1115 CURVE SMOOTH",
"497 1063 OFFCURVE",
"511 1043 OFFCURVE",
"556 1043 CURVE SMOOTH",
"917 1043 LINE",
"798 363 LINE SMOOTH",
"771 210 OFFCURVE",
"678 126 OFFCURVE",
"524 126 CURVE SMOOTH",
"420 126 OFFCURVE",
"325 161 OFFCURVE",
"253 222 CURVE SMOOTH",
"230 242 OFFCURVE",
"200 248 OFFCURVE",
"165 195 CURVE SMOOTH",
"133 146 OFFCURVE",
"139 118 OFFCURVE",
"170 92 CURVE SMOOTH",
"257 17 OFFCURVE",
"385 -22 OFFCURVE",
"517 -22 CURVE SMOOTH",
"753 -22 OFFCURVE",
"902 104 OFFCURVE",
"942 333 CURVE SMOOTH",
"1080 1115 LINE SMOOTH",
"1089 1167 OFFCURVE",
"1075 1187 OFFCURVE",
"1030 1187 CURVE SMOOTH"
);
}
);
width = 1228;
}
);
unicode = 004A;
},
{
glyphname = K;
lastChange = "2015-01-12 05:49:59 +0000";
layers = (
{
layerId = UUID0;
name = "Regular Italic";
paths = (
{
closed = 1;
nodes = (
"387 584 LINE",
"347 354 LINE",
"1175 1094 LINE SMOOTH",
"1213 1127 OFFCURVE",
"1208 1157 OFFCURVE",
"1167 1187 CURVE SMOOTH",
"1128 1216 OFFCURVE",
"1093 1216 OFFCURVE",
"1066 1191 CURVE SMOOTH"
);
},
{
closed = 1;
nodes = (
"429 1197 LINE SMOOTH",
"376 1197 OFFCURVE",
"352 1178 OFFCURVE",
"344 1132 CURVE SMOOTH",
"154 55 LINE SMOOTH",
"146 9 OFFCURVE",
"161 -10 OFFCURVE",
"217 -10 CURVE SMOOTH",
"219 -10 LINE SMOOTH",
"272 -10 OFFCURVE",
"296 9 OFFCURVE",
"304 55 CURVE SMOOTH",
"494 1132 LINE SMOOTH",
"502 1178 OFFCURVE",
"487 1197 OFFCURVE",
"431 1197 CURVE SMOOTH"
);
},
{
closed = 1;
nodes = (
"564 569 LINE",
"894 6 LINE SMOOTH",
"912 -24 OFFCURVE",
"947 -23 OFFCURVE",
"987 0 CURVE SMOOTH",
"1035 28 OFFCURVE",
"1045 55 OFFCURVE",
"1024 92 CURVE SMOOTH",
"682 675 LINE"
);
}
);
width = 1228;
}
);
unicode = 004B;
},
{
glyphname = L;
lastChange = "2015-01-12 05:49:59 +0000";
layers = (
{
layerId = UUID0;
name = "Regular Italic";
paths = (
{
closed = 1;
nodes = (
"459 1197 LINE SMOOTH",
"406 1197 OFFCURVE",
"382 1178 OFFCURVE",
"374 1132 CURVE SMOOTH",
"186 68 LINE SMOOTH",
"177 18 OFFCURVE",
"195 0 OFFCURVE",
"240 0 CURVE SMOOTH",
"907 0 LINE SMOOTH",
"952 0 OFFCURVE",
"973 20 OFFCURVE",
"982 72 CURVE SMOOTH",
"991 124 OFFCURVE",
"977 144 OFFCURVE",
"932 144 CURVE SMOOTH",
"350 144 LINE",
"524 1132 LINE SMOOTH",
"532 1178 OFFCURVE",
"517 1197 OFFCURVE",
"461 1197 CURVE SMOOTH"
);
}
);
width = 1228;
}
);
unicode = 004C;
},
{
color = 6;
glyphname = Lslash;
lastChange = "2015-01-12 05:49:59 +0000";
layers = (
{
layerId = UUID0;
name = "Regular Italic";
paths = (
{
closed = 1;
nodes = (
"519 1197 LINE SMOOTH",
"466 1197 OFFCURVE",
"442 1178 OFFCURVE",
"434 1132 CURVE SMOOTH",
"246 68 LINE SMOOTH",
"237 18 OFFCURVE",
"255 0 OFFCURVE",
"300 0 CURVE SMOOTH",
"907 0 LINE SMOOTH",
"952 0 OFFCURVE",
"973 20 OFFCURVE",
"982 72 CURVE SMOOTH",
"991 124 OFFCURVE",
"977 144 OFFCURVE",
"932 144 CURVE SMOOTH",
"410 144 LINE",
"584 1132 LINE SMOOTH",
"592 1178 OFFCURVE",
"577 1197 OFFCURVE",
"521 1197 CURVE SMOOTH"
);
},
{
closed = 1;
nodes = (
"110 468 LINE SMOOTH",
"73 443 OFFCURVE",
"68 418 OFFCURVE",
"96 377 CURVE SMOOTH",
"124 335 OFFCURVE",
"150 331 OFFCURVE",
"187 356 CURVE SMOOTH",
"756 743 LINE SMOOTH",
"793 768 OFFCURVE",
"798 793 OFFCURVE",
"770 834 CURVE SMOOTH",
"742 876 OFFCURVE",
"716 880 OFFCURVE",
"679 855 CURVE SMOOTH"
);
}
);
width = 1228;
}
);
unicode = 0141;
},
{
glyphname = M;
lastChange = "2015-01-12 05:49:59 +0000";
layers = (
{
layerId = UUID0;
name = "Regular Italic";
paths = (
{
closed = 1;
nodes = (
"1111 1197 LINE SMOOTH",
"1064 1197 OFFCURVE",
"1030 1177 OFFCURVE",
"1001 1132 CURVE SMOOTH",
"636 562 LINE",
"471 1132 LINE SMOOTH",
"458 1177 OFFCURVE",
"437 1197 OFFCURVE",
"390 1197 CURVE SMOOTH",
"388 1197 LINE SMOOTH",
"341 1197 OFFCURVE",
"314 1182 OFFCURVE",
"304 1132 CURVE SMOOTH",
"84 55 LINE SMOOTH",
"75 10 OFFCURVE",
"94 -10 OFFCURVE",
"148 -10 CURVE SMOOTH",
"150 -10 LINE SMOOTH",
"206 -10 OFFCURVE",
"224 9 OFFCURVE",
"233 55 CURVE SMOOTH",
"398 868 LINE",
"526 422 LINE SMOOTH",
"540 375 OFFCURVE",
"564 358 OFFCURVE",
"609 358 CURVE SMOOTH",
"654 358 OFFCURVE",
"680 375 OFFCURVE",
"710 422 CURVE SMOOTH",
"996 868 LINE",
"873 55 LINE SMOOTH",
"866 9 OFFCURVE",
"882 -10 OFFCURVE",
"938 -10 CURVE SMOOTH",
"940 -10 LINE SMOOTH",
"995 -10 OFFCURVE",
"1015 10 OFFCURVE",
"1022 55 CURVE SMOOTH",
"1182 1132 LINE SMOOTH",
"1190 1182 OFFCURVE",
"1160 1197 OFFCURVE",
"1113 1197 CURVE SMOOTH"
);
}
);
width = 1228;
}
);
unicode = 004D;
},
{
glyphname = N;
lastChange = "2015-01-12 05:49:59 +0000";
layers = (
{
background = {
paths = (
{
closed = 1;
nodes = (
"1117 1197 LINE SMOOTH",
"1064 1197 OFFCURVE",
"1040 1178 OFFCURVE",
"1032 1132 CURVE SMOOTH",
"874 234 LINE",
"900 237 LINE",
"475 1169 LINE SMOOTH",
"467 1187 OFFCURVE",
"447 1197 OFFCURVE",
"418 1197 CURVE SMOOTH",
"391 1197 LINE SMOOTH",
"335 1197 OFFCURVE",
"312 1178 OFFCURVE",
"304 1132 CURVE SMOOTH",
"114 55 LINE SMOOTH",
"106 9 OFFCURVE",
"121 -10 OFFCURVE",
"177 -10 CURVE SMOOTH",
"179 -10 LINE SMOOTH",
"232 -10 OFFCURVE",
"256 9 OFFCURVE",
"264 55 CURVE SMOOTH",
"427 976 LINE",
"400 972 LINE",
"829 33 LINE SMOOTH",
"845 -1 OFFCURVE",
"866 -22 OFFCURVE",
"904 -22 CURVE SMOOTH",
"956 -22 OFFCURVE",
"983 2 OFFCURVE",
"989 37 CURVE SMOOTH",
"1182 1132 LINE SMOOTH",
"1190 1178 OFFCURVE",
"1175 1197 OFFCURVE",
"1119 1197 CURVE SMOOTH"
);
}
);
};
layerId = UUID0;
name = "Regular Italic";
paths = (
{
closed = 1;
nodes = (
"1119 1197 LINE SMOOTH",
"1068 1197 OFFCURVE",
"1044 1178 OFFCURVE",
"1036 1132 CURVE SMOOTH",
"886 277 LINE",
"881.62 277.307 LINE",
"475 1169 LINE SMOOTH",
"467 1187 OFFCURVE",
"447 1197 OFFCURVE",
"418 1197 CURVE SMOOTH",
"391 1197 LINE SMOOTH",
"335 1197 OFFCURVE",
"312 1178 OFFCURVE",
"304 1132 CURVE SMOOTH",
"114 55 LINE SMOOTH",
"106 9 OFFCURVE",
"121 -10 OFFCURVE",
"175 -10 CURVE SMOOTH",
"177 -10 LINE SMOOTH",
"228 -10 OFFCURVE",
"252 9 OFFCURVE",
"260 55 CURVE SMOOTH",
"415 931 LINE",
"418.951 930.52 LINE",
"829 33 LINE SMOOTH",
"845 -1 OFFCURVE",
"866 -22 OFFCURVE",
"904 -22 CURVE SMOOTH",
"956 -22 OFFCURVE",
"983 2 OFFCURVE",
"989 37 CURVE SMOOTH",
"1182 1132 LINE SMOOTH",
"1190 1178 OFFCURVE",
"1175 1197 OFFCURVE",
"1121 1197 CURVE SMOOTH"
);
}
);
width = 1228;
}
);
unicode = 004E;
},
{
color = 3;
glyphname = Eng;
lastChange = "2015-01-12 05:49:59 +0000";
layers = (
{
background = {
components = (
{
name = N;
transform = "{1, 0, 0, 1, 0, 0}";
}
);
paths = (
{
closed = 1;
nodes = (
"868 198 LINE",
"814 -107 LINE SMOOTH",
"794 -220 OFFCURVE",
"740 -264 OFFCURVE",
"658 -264 CURVE SMOOTH",
"598 -264 OFFCURVE",
"537 -246 OFFCURVE",
"488 -224 CURVE SMOOTH",
"461 -212 OFFCURVE",
"427 -219 OFFCURVE",
"405 -266 CURVE SMOOTH",
"381 -317 OFFCURVE",
"390 -343 OFFCURVE",
"425 -360 CURVE SMOOTH",
"488 -390 OFFCURVE",
"567 -410 OFFCURVE",
"647 -410 CURVE SMOOTH",
"823 -410 OFFCURVE",
"927 -314 OFFCURVE",
"959 -135 CURVE SMOOTH",
"1018 198 LINE"
);
}
);
};
layerId = UUID0;
name = "Regular Italic";
paths = (
{
closed = 1;
nodes = (
"1119 1197 LINE SMOOTH",
"1068 1197 OFFCURVE",
"1044 1178 OFFCURVE",
"1036 1132 CURVE SMOOTH",
"886 277 LINE",
"882 277 LINE",
"475 1169 LINE SMOOTH",
"467 1187 OFFCURVE",
"447 1197 OFFCURVE",
"418 1197 CURVE SMOOTH",
"391 1197 LINE SMOOTH",
"335 1197 OFFCURVE",
"312 1178 OFFCURVE",
"304 1132 CURVE SMOOTH",
"114 55 LINE SMOOTH",
"106 9 OFFCURVE",
"121 -10 OFFCURVE",
"175 -10 CURVE SMOOTH",
"177 -10 LINE SMOOTH",
"228 -10 OFFCURVE",
"252 9 OFFCURVE",
"260 55 CURVE SMOOTH",
"415 931 LINE",
"419 931 LINE",
"836 18 LINE",
"814 -107 LINE SMOOTH",
"794 -220 OFFCURVE",
"740 -264 OFFCURVE",
"658 -264 CURVE SMOOTH",
"598 -264 OFFCURVE",
"537 -246 OFFCURVE",
"488 -224 CURVE SMOOTH",
"461 -212 OFFCURVE",
"427 -219 OFFCURVE",
"405 -266 CURVE SMOOTH",
"381 -317 OFFCURVE",
"390 -343 OFFCURVE",
"425 -360 CURVE SMOOTH",
"488 -390 OFFCURVE",
"567 -410 OFFCURVE",
"647 -410 CURVE SMOOTH",
"823 -410 OFFCURVE",
"927 -314 OFFCURVE",
"959 -135 CURVE SMOOTH",
"1182 1132 LINE SMOOTH",
"1190 1178 OFFCURVE",
"1175 1197 OFFCURVE",
"1121 1197 CURVE SMOOTH"
);
}
);
width = 1228;
}
);
unicode = 014A;
},
{
glyphname = O;
lastChange = "2015-01-12 05:49:59 +0000";
layers = (
{
background = {
paths = (
{
closed = 1;
nodes = (
"1183 1018 OFFCURVE",
"1014 1209 OFFCURVE",
"742 1209 CURVE SMOOTH",
"334 1209 OFFCURVE",
"113 819 OFFCURVE",
"113 458 CURVE SMOOTH",
"113 168 OFFCURVE",
"283 -22 OFFCURVE",
"555 -22 CURVE SMOOTH",
"963 -22 OFFCURVE",
"1183 367 OFFCURVE",
"1183 728 CURVE"
);
},
{
closed = 1;
nodes = (
"1030 449 OFFCURVE",
"868 126 OFFCURVE",
"566 126 CURVE SMOOTH",
"379 126 OFFCURVE",
"266 253 OFFCURVE",
"266 465 CURVE SMOOTH",
"266 738 OFFCURVE",
"429 1061 OFFCURVE",
"731 1061 CURVE SMOOTH",
"918 1061 OFFCURVE",
"1030 933 OFFCURVE",
"1030 722 CURVE SMOOTH"
);
}
);
};
layerId = UUID0;
name = "Regular Italic";
paths = (
{
closed = 1;
nodes = (
"534 1209 OFFCURVE",
"375 1108 OFFCURVE",
"269 961 CURVE SMOOTH",
"166 818 OFFCURVE",
"114 636 OFFCURVE",
"114 459 CURVE SMOOTH",
"114 169 OFFCURVE",
"283 -22 OFFCURVE",
"555 -22 CURVE SMOOTH",
"763 -22 OFFCURVE",
"922 79 OFFCURVE",
"1028 226 CURVE SMOOTH",
"1131 369 OFFCURVE",
"1183 551 OFFCURVE",
"1183 728 CURVE SMOOTH",
"1183 1018 OFFCURVE",
"1014 1209 OFFCURVE",
"742 1209 CURVE SMOOTH"
);
},
{
closed = 1;
nodes = (
"918 1061 OFFCURVE",
"1030 933 OFFCURVE",
"1030 722 CURVE SMOOTH",
"1030 580 OFFCURVE",
"986 426 OFFCURVE",
"902 309 CURVE SMOOTH",
"825 201 OFFCURVE",
"711 126 OFFCURVE",
"566 126 CURVE SMOOTH",
"379 126 OFFCURVE",
"267 254 OFFCURVE",
"267 465 CURVE SMOOTH",
"267 607 OFFCURVE",
"311 761 OFFCURVE",
"395 878 CURVE SMOOTH",
"472 986 OFFCURVE",
"586 1061 OFFCURVE",
"731 1061 CURVE SMOOTH"
);
}
);
width = 1228;
}
);
unicode = 004F;
},
{
color = 6;
glyphname = Oslash;
lastChange = "2015-01-12 05:49:59 +0000";
layers = (
{
background = {
components = (
{
name = O;
transform = "{1, 0, 0, 1, 0, 0}";
}
);
paths = (
{
closed = 1;
nodes = (
"1169 1260 OFFCURVE",
"1132 1257 OFFCURVE",
"1099 1219 CURVE SMOOTH",
"82 50 LINE SMOOTH",
"49 12 OFFCURVE",
"58 -15 OFFCURVE",
"94 -43 CURVE SMOOTH",
"129 -71 OFFCURVE",
"164 -68 OFFCURVE",
"197 -30 CURVE SMOOTH",
"1214 1139 LINE SMOOTH",
"1247 1177 OFFCURVE",
"1239 1204 OFFCURVE",
"1204 1232 CURVE SMOOTH"
);
}
);
};
layerId = UUID0;
name = "Regular Italic";
paths = (
{
closed = 1;
nodes = (
"1169 1260 OFFCURVE",
"1132 1257 OFFCURVE",
"1099 1219 CURVE SMOOTH",
"1015.29 1122.78 LINE",
"943.597 1178.28 OFFCURVE",
"851.081 1209 OFFCURVE",
"742 1209 CURVE SMOOTH",
"534 1209 OFFCURVE",
"375 1108 OFFCURVE",
"269 961 CURVE SMOOTH",
"166 818 OFFCURVE",
"114 636 OFFCURVE",
"114 459 CURVE SMOOTH",
"114 346.069 OFFCURVE",
"139.629 248.151 OFFCURVE",
"186.987 170.679 CURVE",
"82 50 LINE SMOOTH",
"49 12 OFFCURVE",
"58 -14.9999 OFFCURVE",
"94 -42.9999 CURVE SMOOTH",
"129 -70.9999 OFFCURVE",
"164 -67.9999 OFFCURVE",
"197 -29.9999 CURVE SMOOTH",
"280.076 65.4926 LINE",
"351.996 9.1879 OFFCURVE",
"445.089 -21.9998 OFFCURVE",
"555 -21.9998 CURVE SMOOTH",
"763 -21.9998 OFFCURVE",
"922 79 OFFCURVE",
"1028 226 CURVE SMOOTH",
"1131 369 OFFCURVE",
"1183 551 OFFCURVE",
"1183 728 CURVE SMOOTH",
"1183 841.83 OFFCURVE",
"1156.96 940.407 OFFCURVE",
"1108.88 1018.17 CURVE",
"1214 1139 LINE SMOOTH",
"1247 1177 OFFCURVE",
"1239 1204 OFFCURVE",
"1204 1232 CURVE SMOOTH"
);
},
{
closed = 1;
nodes = (
"1019.37 844.143 OFFCURVE",
"1030 787.011 OFFCURVE",
"1030 722 CURVE SMOOTH",
"1030 580 OFFCURVE",
"986 426 OFFCURVE",
"902 309 CURVE SMOOTH",
"825 201 OFFCURVE",
"711 126 OFFCURVE",
"566 126 CURVE SMOOTH",
"492.329 126 OFFCURVE",
"430.299 145.867 OFFCURVE",
"382.172 182.848 CURVE",
"999.185 892.079 LINE"
);
},
{
closed = 1;
nodes = (
"803.833 1061 OFFCURVE",
"865.288 1041.58 OFFCURVE",
"913.18 1005.41 CURVE",
"296.927 297.05 LINE",
"277.321 344.546 OFFCURVE",
"267 400.949 OFFCURVE",
"267 465 CURVE",
"267 607 OFFCURVE",
"311 761 OFFCURVE",
"395 878 CURVE SMOOTH",
"472 986 OFFCURVE",
"586 1061 OFFCURVE",
"731 1061 CURVE SMOOTH"
);
}
);
width = 1228;
}
);
unicode = 00D8;
},
{
glyphname = OE;
lastChange = "2015-01-12 05:49:59 +0000";
layers = (
{
layerId = UUID0;
name = "Regular Italic";
paths = (
{
closed = 1;
nodes = (
"723 1187 LINE",
"704 1066 LINE",
"536 120 LINE",
"534 0 LINE",
"1008 0 LINE SMOOTH",
"1053 0 OFFCURVE",
"1074 20 OFFCURVE",
"1083 72 CURVE SMOOTH",
"1092 124 OFFCURVE",
"1078 144 OFFCURVE",
"1033 144 CURVE SMOOTH",
"691 144 LINE",
"761 540 LINE",
"1008 540 LINE SMOOTH",
"1053 540 OFFCURVE",
"1074 560 OFFCURVE",
"1083 612 CURVE SMOOTH",
"1093 664 OFFCURVE",
"1078 684 OFFCURVE",
"1033 684 CURVE SMOOTH",
"786 684 LINE",
"849 1043 LINE",
"1171 1043 LINE SMOOTH",
"1216 1043 OFFCURVE",
"1238 1063 OFFCURVE",
"1247 1115 CURVE SMOOTH",
"1256 1167 OFFCURVE",
"1242 1187 OFFCURVE",
"1197 1187 CURVE SMOOTH"
);
},
{
closed = 1;
nodes = (
"494 1187 OFFCURVE",
"337 1074 OFFCURVE",
"239 921 CURVE SMOOTH",
"147 779 OFFCURVE",
"107 603 OFFCURVE",
"107 454 CURVE SMOOTH",
"107 171 OFFCURVE",
"268 0 OFFCURVE",
"534 0 CURVE",
"585 70 LINE",
"556 136 LINE",
"373 136 OFFCURVE",
"260 248 OFFCURVE",
"260 461 CURVE SMOOTH",
"260 594 OFFCURVE",
"296 745 OFFCURVE",
"373 861 CURVE SMOOTH",
"448 973 OFFCURVE",
"562 1052 OFFCURVE",
"719 1050 CURVE",
"770 1125 LINE",
"723 1187 LINE"
);
}
);
width = 1228;
}
);
unicode = 0152;
},
{
glyphname = P;
lastChange = "2015-01-12 05:49:59 +0000";
layers = (
{
background = {
paths = (
{
closed = 1;
nodes = (
"435 1187 LINE SMOOTH",
"390 1187 OFFCURVE",
"371 1169 OFFCURVE",
"362 1119 CURVE SMOOTH",
"174 55 LINE SMOOTH",
"166 9 OFFCURVE",
"181 -10 OFFCURVE",
"237 -10 CURVE SMOOTH",
"239 -10 LINE SMOOTH",
"292 -10 OFFCURVE",
"316 9 OFFCURVE",
"324 55 CURVE SMOOTH",
"384 393 LINE",
"681 393 LINE SMOOTH",
"1045 393 OFFCURVE",
"1187 637 OFFCURVE",
"1187 859 CURVE SMOOTH",
"1187 1054 OFFCURVE",
"1050 1187 OFFCURVE",
"800 1187 CURVE SMOOTH"
);
},
{
closed = 1;
nodes = (
"946 1043 OFFCURVE",
"1033 972 OFFCURVE",
"1033 844 CURVE SMOOTH",
"1033 694 OFFCURVE",
"940 537 OFFCURVE",
"680 537 CURVE SMOOTH",
"409 537 LINE",
"498 1043 LINE",
"767 1043 LINE SMOOTH"
);
}
);
};
layerId = UUID0;
name = "Regular Italic";
paths = (
{
closed = 1;
nodes = (
"435 1187 LINE SMOOTH",
"390 1187 OFFCURVE",
"371 1169 OFFCURVE",
"362 1119 CURVE SMOOTH",
"174 55 LINE SMOOTH",
"166 9 OFFCURVE",
"181 -10 OFFCURVE",
"237 -10 CURVE SMOOTH",
"239 -10 LINE SMOOTH",
"292 -10 OFFCURVE",
"316 9 OFFCURVE",
"324 55 CURVE SMOOTH",
"384 393 LINE",
"681 393 LINE SMOOTH",
"1045 393 OFFCURVE",
"1187 637 OFFCURVE",
"1187 859 CURVE SMOOTH",
"1187 1054 OFFCURVE",
"1050 1187 OFFCURVE",
"800 1187 CURVE SMOOTH"
);
},
{
closed = 1;
nodes = (
"946 1043 OFFCURVE",
"1033 972 OFFCURVE",
"1033 844 CURVE SMOOTH",
"1033 694 OFFCURVE",
"940 537 OFFCURVE",
"680 537 CURVE SMOOTH",
"409 537 LINE",
"498 1043 LINE",
"767 1043 LINE SMOOTH"
);
}
);
width = 1228;
}
);
unicode = 0050;
},
{
glyphname = Thorn;
lastChange = "2015-01-12 05:49:59 +0000";
layers = (
{
layerId = UUID0;
name = "Regular Italic";
paths = (
{
closed = 1;
nodes = (
"411 946 LINE",
"387 802 LINE",
"745 802 LINE SMOOTH",
"881 802 OFFCURVE",
"940 735 OFFCURVE",
"940 641 CURVE SMOOTH",
"940 534 OFFCURVE",
"879 398 OFFCURVE",
"678 398 CURVE SMOOTH",
"320 398 LINE",
"296 254 LINE",
"685 254 LINE SMOOTH",
"999 254 OFFCURVE",
"1098 490 OFFCURVE",
"1098 654 CURVE SMOOTH",
"1098 818 OFFCURVE",
"991 946 OFFCURVE",
"780 946 CURVE SMOOTH"
);
},
{
closed = 1;
nodes = (
"449 1197 LINE SMOOTH",
"396 1197 OFFCURVE",
"372 1178 OFFCURVE",
"364 1132 CURVE SMOOTH",
"174 55 LINE SMOOTH",
"166 9 OFFCURVE",
"181 -10 OFFCURVE",
"237 -10 CURVE SMOOTH",
"239 -10 LINE SMOOTH",
"292 -10 OFFCURVE",
"316 9 OFFCURVE",
"324 55 CURVE SMOOTH",
"514 1132 LINE SMOOTH",
"522 1178 OFFCURVE",
"507 1197 OFFCURVE",
"451 1197 CURVE SMOOTH"
);
}
);
width = 1228;
}
);
unicode = 00DE;
},
{
color = 6;
glyphname = Q;
lastChange = "2015-01-12 05:49:59 +0000";
layers = (
{
components = (
{
name = O;
transform = "{1, 0, 0, 1, 0, 0}";
}
);
layerId = UUID0;
name = "Regular Italic";
paths = (
{
closed = 1;
nodes = (
"571 378 OFFCURVE",
"562 353 OFFCURVE",
"581 311 CURVE SMOOTH",
"676 104 LINE",
"702 47 LINE",
"782 -128 LINE SMOOTH",
"801 -169 OFFCURVE",
"826 -179 OFFCURVE",
"877 -156 CURVE SMOOTH",
"929 -133 OFFCURVE",
"937 -108 OFFCURVE",
"918 -66 CURVE SMOOTH",
"717 373 LINE SMOOTH",
"698 415 OFFCURVE",
"673 426 OFFCURVE",
"622 402 CURVE SMOOTH"
);
}
);
width = 1228;
}
);
unicode = 0051;
},
{
glyphname = R;
lastChange = "2015-01-12 05:49:59 +0000";
layers = (
{
background = {
paths = (
{
closed = 1;
nodes = (
"413 617 LINE",
"488 1043 LINE",
"707 1043 LINE SMOOTH",
"864 1043 OFFCURVE",
"950 982 OFFCURVE",
"950 872 CURVE SMOOTH",
"950 759 OFFCURVE",
"887 617 OFFCURVE",
"621 617 CURVE SMOOTH"
);
},
{
closed = 1;
nodes = (
"775 488 LINE",
"973 548 OFFCURVE",
"1104 678 OFFCURVE",
"1104 888 CURVE SMOOTH",
"1104 1065 OFFCURVE",
"971 1187 OFFCURVE",
"730 1187 CURVE SMOOTH",
"425 1187 LINE SMOOTH",
"380 1187 OFFCURVE",
"361 1169 OFFCURVE",
"352 1119 CURVE SMOOTH",
"164 55 LINE SMOOTH",
"156 9 OFFCURVE",
"174 -10 OFFCURVE",
"230 -10 CURVE SMOOTH",
"286 -10 OFFCURVE",
"306 9 OFFCURVE",
"314 55 CURVE SMOOTH",
"388 473 LINE",
"620 473 LINE",
"838 14 LINE SMOOTH",
"854 -19 OFFCURVE",
"877 -23 OFFCURVE",
"929 0 CURVE SMOOTH",
"981 23 OFFCURVE",
"987 47 OFFCURVE",
"968 86 CURVE SMOOTH"
);
}
);
};
layerId = UUID0;
name = "Regular Italic";
paths = (
{
closed = 1;
nodes = (
"435 1187 LINE SMOOTH",
"390 1187 OFFCURVE",
"371 1169 OFFCURVE",
"362 1119 CURVE SMOOTH",
"174 55 LINE SMOOTH",
"166 9 OFFCURVE",
"181 -10 OFFCURVE",
"237 -10 CURVE SMOOTH",
"239 -10 LINE SMOOTH",
"292 -10 OFFCURVE",
"316 9 OFFCURVE",
"324 55 CURVE SMOOTH",
"398 473 LINE",
"697 473 LINE",
"978 520 OFFCURVE",
"1114 672 OFFCURVE",
"1114 888 CURVE SMOOTH",
"1114 1065 OFFCURVE",
"981 1187 OFFCURVE",
"740 1187 CURVE SMOOTH"
);
},
{
closed = 1;
nodes = (
"623 487 LINE",
"848 14 LINE SMOOTH",
"864 -19 OFFCURVE",
"887 -23 OFFCURVE",
"939 0 CURVE SMOOTH",
"991 23 OFFCURVE",
"997 47 OFFCURVE",
"978 86 CURVE SMOOTH",
"778 502 LINE"
);
},
{
closed = 1;
nodes = (
"874 1043 OFFCURVE",
"960 982 OFFCURVE",
"960 872 CURVE SMOOTH",
"960 715 OFFCURVE",
"849 617 OFFCURVE",
"631 617 CURVE SMOOTH",
"423 617 LINE",
"498 1043 LINE",
"717 1043 LINE SMOOTH"
);
}
);
width = 1228;
}
);
unicode = 0052;
},
{
glyphname = S;
lastChange = "2015-01-12 05:49:59 +0000";
layers = (
{
layerId = UUID0;
name = "Regular Italic";
paths = (
{
closed = 1;
nodes = (
"385 1209 OFFCURVE",
"248 1004 OFFCURVE",
"248 833 CURVE SMOOTH",
"248 722 OFFCURVE",
"302 651 OFFCURVE",
"400 609 CURVE SMOOTH",
"526 555 OFFCURVE",
"698 544 OFFCURVE",
"805 495 CURVE SMOOTH",
"864 468 OFFCURVE",
"897 425 OFFCURVE",
"897 361 CURVE SMOOTH",
"897 234 OFFCURVE",
"796 126 OFFCURVE",
"584 126 CURVE SMOOTH",
"453 126 OFFCURVE",
"323 166 OFFCURVE",
"230 232 CURVE SMOOTH",
"206 249 OFFCURVE",
"175 247 OFFCURVE",
"145 197 CURVE SMOOTH",
"116 148 OFFCURVE",
"124 117 OFFCURVE",
"157 94 CURVE SMOOTH",
"262 21 OFFCURVE",
"415 -22 OFFCURVE",
"568 -22 CURVE SMOOTH",
"936 -22 OFFCURVE",
"1057 195 OFFCURVE",
"1057 380 CURVE SMOOTH",
"1057 497 OFFCURVE",
"998 582 OFFCURVE",
"906 624 CURVE SMOOTH",
"778 683 OFFCURVE",
"617 694 OFFCURVE",
"507 732 CURVE SMOOTH",
"441 755 OFFCURVE",
"408 786 OFFCURVE",
"408 847 CURVE SMOOTH",
"408 952 OFFCURVE",
"499 1061 OFFCURVE",
"685 1061 CURVE SMOOTH",
"816 1061 OFFCURVE",
"943 1023 OFFCURVE",
"1033 969 CURVE SMOOTH",
"1061 952 OFFCURVE",
"1091 956 OFFCURVE",
"1119 1008 CURVE SMOOTH",
"1147 1060 OFFCURVE",
"1138 1088 OFFCURVE",
"1103 1109 CURVE SMOOTH",
"992 1174 OFFCURVE",
"857 1209 OFFCURVE",
"704 1209 CURVE SMOOTH"
);
}
);
width = 1228;
}
);
unicode = 0053;
},
{
glyphname = T;
lastChange = "2015-01-12 05:49:59 +0000";
layers = (
{
layerId = UUID0;
name = "Regular Italic";
paths = (
{
closed = 1;
nodes = (
"314 1187 LINE SMOOTH",
"269 1187 OFFCURVE",
"247 1167 OFFCURVE",
"238 1115 CURVE SMOOTH",
"229 1063 OFFCURVE",
"243 1043 OFFCURVE",
"288 1043 CURVE SMOOTH",
"652 1043 LINE",
"478 55 LINE SMOOTH",
"470 9 OFFCURVE",
"485 -10 OFFCURVE",
"541 -10 CURVE SMOOTH",
"543 -10 LINE SMOOTH",
"596 -10 OFFCURVE",
"620 9 OFFCURVE",
"628 55 CURVE SMOOTH",
"802 1043 LINE",
"1146 1043 LINE SMOOTH",
"1191 1043 OFFCURVE",
"1213 1063 OFFCURVE",
"1222 1115 CURVE SMOOTH",
"1231 1167 OFFCURVE",
"1217 1187 OFFCURVE",
"1172 1187 CURVE SMOOTH"
);
}
);
width = 1228;
}
);
unicode = 0054;
},
{
color = 6;
glyphname = Tbar;
lastChange = "2015-01-12 05:49:59 +0000";
layers = (
{
components = (
{
name = T;
transform = "{1, 0, 0, 1, 0, 0}";
}
);
layerId = UUID0;
name = "Regular Italic";
paths = (
{
closed = 1;
nodes = (
"369 590 LINE SMOOTH",
"324 590 OFFCURVE",
"302 570 OFFCURVE",
"293 518 CURVE SMOOTH",
"284 466 OFFCURVE",
"298 446 OFFCURVE",
"343 446 CURVE SMOOTH",
"905 446 LINE SMOOTH",
"950 446 OFFCURVE",
"972 466 OFFCURVE",
"981 518 CURVE SMOOTH",
"990 570 OFFCURVE",
"976 590 OFFCURVE",
"931 590 CURVE SMOOTH"
);
}
);
width = 1228;
}
);
unicode = 0166;
},
{
glyphname = U;
lastChange = "2015-01-12 05:49:59 +0000";
layers = (
{
layerId = UUID0;
name = "Regular Italic";
paths = (
{
closed = 1;
nodes = (
"1117 1197 LINE SMOOTH",
"1064 1197 OFFCURVE",
"1040 1178 OFFCURVE",
"1032 1132 CURVE SMOOTH",
"909 433 LINE SMOOTH",
"870 210 OFFCURVE",
"758 126 OFFCURVE",
"567 126 CURVE SMOOTH",
"407 126 OFFCURVE",
"321 187 OFFCURVE",
"321 339 CURVE SMOOTH",
"321 367 OFFCURVE",
"325 399 OFFCURVE",
"331 435 CURVE SMOOTH",
"454 1132 LINE SMOOTH",
"462 1178 OFFCURVE",
"447 1197 OFFCURVE",
"391 1197 CURVE SMOOTH",
"389 1197 LINE SMOOTH",
"336 1197 OFFCURVE",
"312 1178 OFFCURVE",
"304 1132 CURVE SMOOTH",
"179 425 LINE SMOOTH",
"172 386 OFFCURVE",
"168 349 OFFCURVE",
"168 316 CURVE SMOOTH",
"168 90 OFFCURVE",
"318 -22 OFFCURVE",
"555 -22 CURVE SMOOTH",
"828 -22 OFFCURVE",
"1000 105 OFFCURVE",
"1053 404 CURVE SMOOTH",
"1182 1132 LINE SMOOTH",
"1190 1178 OFFCURVE",
"1175 1197 OFFCURVE",
"1119 1197 CURVE SMOOTH"
);
}
);
width = 1228;
}
);
unicode = 0055;
},
{
glyphname = V;
lastChange = "2015-01-12 05:49:59 +0000";
layers = (
{
layerId = UUID0;
name = "Regular Italic";
paths = (
{
closed = 1;
nodes = (
"229 1188 OFFCURVE",
"217 1168 OFFCURVE",
"226 1124 CURVE SMOOTH",
"442 43 LINE SMOOTH",
"451 -4 OFFCURVE",
"481 -22 OFFCURVE",
"538 -22 CURVE SMOOTH",
"595 -22 OFFCURVE",
"630 -4 OFFCURVE",
"656 43 CURVE SMOOTH",
"1238 1096 LINE SMOOTH",
"1262 1140 OFFCURVE",
"1255 1164 OFFCURVE",
"1206 1187 CURVE SMOOTH",
"1158 1210 OFFCURVE",
"1126 1203 OFFCURVE",
"1102 1159 CURVE SMOOTH",
"567 182 LINE",
"377 1146 LINE SMOOTH",
"368 1190 OFFCURVE",
"349 1202 OFFCURVE",
"289 1195 CURVE SMOOTH"
);
}
);
width = 1228;
}
);
unicode = 0056;
},
{
glyphname = W;
lastChange = "2015-01-12 05:49:59 +0000";
layers = (
{
layerId = UUID0;
name = "Regular Italic";
paths = (
{
closed = 1;
nodes = (
"211 1196 OFFCURVE",
"198 1180 OFFCURVE",
"196 1136 CURVE SMOOTH",
"154 43 LINE SMOOTH",
"152 -6 OFFCURVE",
"181 -22 OFFCURVE",
"232 -22 CURVE SMOOTH",
"283 -22 OFFCURVE",
"316 -2 OFFCURVE",
"340 43 CURVE SMOOTH",
"650 629 LINE",
"754 43 LINE SMOOTH",
"762 -2 OFFCURVE",
"795 -22 OFFCURVE",
"846 -22 CURVE SMOOTH",
"897 -22 OFFCURVE",
"925 -6 OFFCURVE",
"940 43 CURVE SMOOTH",
"1275 1110 LINE SMOOTH",
"1291 1161 OFFCURVE",
"1285 1185 OFFCURVE",
"1226 1195 CURVE SMOOTH",
"1169 1205 OFFCURVE",
"1145 1191 OFFCURVE",
"1130 1141 CURVE SMOOTH",
"862 258 LINE",
"758 845 LINE SMOOTH",
"754 871 OFFCURVE",
"733 885 OFFCURVE",
"689 885 CURVE SMOOTH",
"645 885 OFFCURVE",
"624 871 OFFCURVE",
"610 845 CURVE SMOOTH",
"300 258 LINE",
"343 1133 LINE SMOOTH",
"345 1180 OFFCURVE",
"330 1196 OFFCURVE",
"270 1196 CURVE SMOOTH"
);
}
);
width = 1228;
}
);
unicode = 0057;
},
{
glyphname = X;
lastChange = "2015-01-12 05:49:59 +0000";
layers = (
{
layerId = UUID0;
name = "Regular Italic";
paths = (
{
closed = 1;
nodes = (
"1115 1215 OFFCURVE",
"1078 1218 OFFCURVE",
"1045 1178 CURVE SMOOTH",
"616 657 LINE",
"571 623 LINE",
"116 97 LINE SMOOTH",
"82 57 OFFCURVE",
"86 26 OFFCURVE",
"127 0 CURVE SMOOTH",
"170 -28 OFFCURVE",
"207 -31 OFFCURVE",
"240 9 CURVE SMOOTH",
"663 516 LINE",
"711 552 LINE",
"1169 1090 LINE SMOOTH",
"1203 1130 OFFCURVE",
"1199 1161 OFFCURVE",
"1158 1187 CURVE SMOOTH"
);
},
{
closed = 1;
nodes = (
"309 1163 OFFCURVE",
"294 1142 OFFCURVE",
"315 1102 CURVE SMOOTH",
"590 568 LINE",
"617 538 LINE",
"877 17 LINE SMOOTH",
"897 -23 OFFCURVE",
"920 -26 OFFCURVE",
"973 0 CURVE SMOOTH",
"1022 24 OFFCURVE",
"1037 45 OFFCURVE",
"1016 85 CURVE SMOOTH",
"731 629 LINE",
"707 656 LINE",
"454 1170 LINE SMOOTH",
"434 1210 OFFCURVE",
"411 1213 OFFCURVE",
"358 1187 CURVE SMOOTH"
);
}
);
width = 1228;
}
);
unicode = 0058;
},
{
glyphname = Y;
lastChange = "2015-01-12 05:49:59 +0000";
layers = (
{
background = {
paths = (
{
closed = 1;
nodes = (
"1143 1213 OFFCURVE",
"1110 1205 OFFCURVE",
"1083 1172 CURVE SMOOTH",
"649 642 LINE",
"404 1165 LINE SMOOTH",
"389 1198 OFFCURVE",
"368 1209 OFFCURVE",
"314 1187 CURVE SMOOTH",
"259 1165 OFFCURVE",
"252 1141 OFFCURVE",
"271 1101 CURVE SMOOTH",
"556 499 LINE",
"478 55 LINE SMOOTH",
"470 9 OFFCURVE",
"485 -10 OFFCURVE",
"541 -10 CURVE SMOOTH",
"543 -10 LINE SMOOTH",
"596 -10 OFFCURVE",
"620 9 OFFCURVE",
"628 55 CURVE SMOOTH",
"704 486 LINE",
"1206 1090 LINE SMOOTH",
"1239 1130 OFFCURVE",
"1234 1159 OFFCURVE",
"1187 1187 CURVE SMOOTH"
);
}
);
};
layerId = UUID0;
name = "Regular Italic";
paths = (
{
closed = 1;
nodes = (
"1143 1213 OFFCURVE",
"1110 1205 OFFCURVE",
"1083 1172 CURVE SMOOTH",
"620 607 LINE",
"668 601 LINE",
"404 1165 LINE SMOOTH",
"389 1198 OFFCURVE",
"368 1209 OFFCURVE",
"314 1187 CURVE SMOOTH",
"259 1165 OFFCURVE",
"252 1141 OFFCURVE",
"271 1101 CURVE SMOOTH",
"576 457 LINE",
"680 457 LINE",
"1206 1090 LINE SMOOTH",
"1239 1130 OFFCURVE",
"1234 1159 OFFCURVE",
"1187 1187 CURVE SMOOTH"
);
},
{
closed = 1;
nodes = (
"559 515 LINE",
"478 55 LINE SMOOTH",
"470 9 OFFCURVE",
"485 -10 OFFCURVE",
"541 -10 CURVE SMOOTH",
"543 -10 LINE SMOOTH",
"596 -10 OFFCURVE",
"620 9 OFFCURVE",
"628 55 CURVE SMOOTH",
"709 515 LINE"
);
}
);
width = 1228;
}
);
unicode = 0059;
},
{
glyphname = Z;
lastChange = "2015-01-12 05:49:59 +0000";
layers = (
{
layerId = UUID0;
name = "Regular Italic";
paths = (
{
closed = 1;
nodes = (
"936 0 LINE SMOOTH",
"981 0 OFFCURVE",
"1002 20 OFFCURVE",
"1011 72 CURVE SMOOTH",
"1020 124 OFFCURVE",
"1006 144 OFFCURVE",
"961 144 CURVE SMOOTH",
"359 144 LINE",
"1141 1080 LINE SMOOTH",
"1149 1090 OFFCURVE",
"1155 1103 OFFCURVE",
"1158 1119 CURVE SMOOTH",
"1167 1169 OFFCURVE",
"1150 1187 OFFCURVE",
"1105 1187 CURVE SMOOTH",
"385 1187 LINE SMOOTH",
"340 1187 OFFCURVE",
"318 1167 OFFCURVE",
"309 1115 CURVE SMOOTH",
"300 1063 OFFCURVE",
"314 1043 OFFCURVE",
"359 1043 CURVE SMOOTH",
"917 1043 LINE",
"140 111 LINE SMOOTH",
"130 99 OFFCURVE",
"121 85 OFFCURVE",
"118 68 CURVE SMOOTH",
"109 18 OFFCURVE",
"125 0 OFFCURVE",
"170 0 CURVE SMOOTH"
);
}
);
width = 1228;
}
);
unicode = 005A;
},
{
glyphname = a;
lastChange = "2015-01-14 04:00:54 +0000";
layers = (
{
background = {
paths = (
{
closed = 1;
nodes = (
"302 946 OFFCURVE",
"143 625 OFFCURVE",
"143 366 CURVE SMOOTH",
"143 127 OFFCURVE",
"290 -22 OFFCURVE",
"505 -22 CURVE SMOOTH",
"633 -22 OFFCURVE",
"749 34 OFFCURVE",
"850 143 CURVE",
"835 55 LINE SMOOTH",
"827 9 OFFCURVE",
"842 -10 OFFCURVE",
"895 -10 CURVE SMOOTH",
"897 -10 LINE SMOOTH",
"950 -10 OFFCURVE",
"967 9 OFFCURVE",
"975 55 CURVE SMOOTH",
"1119 869 LINE SMOOTH",
"1127 915 OFFCURVE",
"1112 934 OFFCURVE",
"1059 934 CURVE SMOOTH",
"1057 934 LINE SMOOTH",
"1004 934 OFFCURVE",
"987 915 OFFCURVE",
"979 869 CURVE SMOOTH",
"960 766 LINE",
"897 873 OFFCURVE",
"792 946 OFFCURVE",
"655 946 CURVE SMOOTH"
);
},
{
closed = 1;
nodes = (
"803 798 OFFCURVE",
"904 705 OFFCURVE",
"904 541 CURVE SMOOTH",
"904 335 OFFCURVE",
"768 126 OFFCURVE",
"531 126 CURVE SMOOTH",
"378 126 OFFCURVE",
"296 226 OFFCURVE",
"296 375 CURVE SMOOTH",
"296 581 OFFCURVE",
"424 798 OFFCURVE",
"649 798 CURVE SMOOTH"
);
},
{
closed = 1;
nodes = (
"288 946 OFFCURVE",
"129 625 OFFCURVE",
"129 366 CURVE SMOOTH",
"129 127 OFFCURVE",
"276 -22 OFFCURVE",
"491 -22 CURVE SMOOTH",
"650 -22 OFFCURVE",
"774 50 OFFCURVE",
"874 184 CURVE",
"869 196 LINE",
"869 69 OFFCURVE",
"943 0 OFFCURVE",
"1052 0 CURVE SMOOTH",
"1063 0 LINE SMOOTH",
"1108 0 OFFCURVE",
"1129 20 OFFCURVE",
"1139 72 CURVE SMOOTH",
"1148 124 OFFCURVE",
"1133 144 OFFCURVE",
"1088 144 CURVE SMOOTH",
"1083 144 LINE SMOOTH",
"1022 144 OFFCURVE",
"985 188 OFFCURVE",
"1001 279 CURVE SMOOTH",
"1105 869 LINE SMOOTH",
"1113 915 OFFCURVE",
"1098 934 OFFCURVE",
"1045 934 CURVE SMOOTH",
"1043 934 LINE SMOOTH",
"990 934 OFFCURVE",
"973 915 OFFCURVE",
"965 869 CURVE SMOOTH",
"946 766 LINE",
"883 873 OFFCURVE",
"778 946 OFFCURVE",
"641 946 CURVE SMOOTH"
);
},
{
closed = 1;
nodes = (
"789 798 OFFCURVE",
"890 705 OFFCURVE",
"890 541 CURVE SMOOTH",
"890 339 OFFCURVE",
"736 126 OFFCURVE",
"517 126 CURVE SMOOTH",
"364 126 OFFCURVE",
"282 226 OFFCURVE",
"282 375 CURVE SMOOTH",
"282 581 OFFCURVE",
"410 798 OFFCURVE",
"635 798 CURVE SMOOTH"
);
}
);
};
layerId = UUID0;
name = "Regular Italic";
paths = (
{
closed = 1;
nodes = (
"305 946 OFFCURVE",
"143 625 OFFCURVE",
"143 366 CURVE SMOOTH",
"143 127 OFFCURVE",
"293 -22 OFFCURVE",
"502 -22 CURVE SMOOTH",
"653 -22 OFFCURVE",
"770 50 OFFCURVE",
"864 184 CURVE",
"859 196 LINE",
"859 69 OFFCURVE",
"933 0 OFFCURVE",
"1042 0 CURVE SMOOTH",
"1053 0 LINE SMOOTH",
"1098 0 OFFCURVE",
"1119 20 OFFCURVE",
"1129 72 CURVE SMOOTH",
"1138 124 OFFCURVE",
"1123 144 OFFCURVE",
"1078 144 CURVE SMOOTH",
"1073 144 LINE SMOOTH",
"1012 144 OFFCURVE",
"975 188 OFFCURVE",
"991 279 CURVE SMOOTH",
"1095 869 LINE SMOOTH",
"1103 915 OFFCURVE",
"1088 934 OFFCURVE",
"1035 934 CURVE SMOOTH",
"1033 934 LINE SMOOTH",
"980 934 OFFCURVE",
"963 915 OFFCURVE",
"955 869 CURVE SMOOTH",
"936 766 LINE",
"877 874 OFFCURVE",
"779 946 OFFCURVE",
"651 946 CURVE SMOOTH"
);
},
{
closed = 1;
nodes = (
"787 798 OFFCURVE",
"880 705 OFFCURVE",
"880 541 CURVE SMOOTH",
"880 339 OFFCURVE",
"731 126 OFFCURVE",
"524 126 CURVE SMOOTH",
"378 126 OFFCURVE",
"296 226 OFFCURVE",
"296 375 CURVE SMOOTH",
"296 581 OFFCURVE",
"426 798 OFFCURVE",
"645 798 CURVE SMOOTH"
);
}
);
width = 1228;
}
);
unicode = 0061;
},
{
glyphname = ae;
lastChange = "2015-01-12 05:49:59 +0000";
layers = (
{
background = {
paths = (
{
closed = 1;
nodes = (
"1001 801 OFFCURVE",
"1031 745 OFFCURVE",
"1031 649 CURVE SMOOTH",
"1031 628 OFFCURVE",
"1029 605 OFFCURVE",
"1026 580 CURVE",
"726 580 LINE",
"770 739 OFFCURVE",
"834 801 OFFCURVE",
"926 801 CURVE SMOOTH"
);
}
);
};
layerId = UUID0;
name = "Regular Italic";
paths = (
{
closed = 1;
nodes = (
"845 946 OFFCURVE",
"761 907 OFFCURVE",
"695 830 CURVE",
"665 903 OFFCURVE",
"601 946 OFFCURVE",
"494 946 CURVE SMOOTH",
"400 946 OFFCURVE",
"308 917 OFFCURVE",
"211 844 CURVE SMOOTH",
"176 818 OFFCURVE",
"171 784 OFFCURVE",
"196 748 CURVE SMOOTH",
"220 713 OFFCURVE",
"253 707 OFFCURVE",
"286 729 CURVE SMOOTH",
"355 776 OFFCURVE",
"418 801 OFFCURVE",
"479 801 CURVE SMOOTH",
"557 801 OFFCURVE",
"584 760 OFFCURVE",
"584 689 CURVE SMOOTH",
"584 664 OFFCURVE",
"581 635 OFFCURVE",
"575 602 CURVE SMOOTH",
"571 580 LINE",
"437 580 OFFCURVE",
"323 556 OFFCURVE",
"236 510 CURVE SMOOTH",
"114 445 OFFCURVE",
"44 325 OFFCURVE",
"44 195 CURVE SMOOTH",
"44 65 OFFCURVE",
"133 -22 OFFCURVE",
"271 -22 CURVE SMOOTH",
"379 -22 OFFCURVE",
"490 33 OFFCURVE",
"570 122 CURVE",
"608 24 OFFCURVE",
"684 -22 OFFCURVE",
"789 -22 CURVE SMOOTH",
"884 -22 OFFCURVE",
"970 14 OFFCURVE",
"1056 84 CURVE SMOOTH",
"1094 114 OFFCURVE",
"1105 149 OFFCURVE",
"1080 187 CURVE SMOOTH",
"1056 225 OFFCURVE",
"1017 226 OFFCURVE",
"988 201 CURVE SMOOTH",
"922 147 OFFCURVE",
"868 123 OFFCURVE",
"804 123 CURVE SMOOTH",
"734 123 OFFCURVE",
"684 170 OFFCURVE",
"684 308 CURVE SMOOTH",
"684 345 OFFCURVE",
"688 389 OFFCURVE",
"696 440 CURVE",
"1095 440 LINE",
"1140 440 OFFCURVE",
"1162 457 OFFCURVE",
"1169 502 CURVE SMOOTH",
"1177 554 OFFCURVE",
"1181 602 OFFCURVE",
"1181 647 CURVE SMOOTH",
"1181 831 OFFCURVE",
"1110 946 OFFCURVE",
"939 946 CURVE SMOOTH"
);
},
{
closed = 1;
nodes = (
"528 340 LINE SMOOTH",
"506 211 OFFCURVE",
"402 119 OFFCURVE",
"289 119 CURVE SMOOTH",
"232 119 OFFCURVE",
"197 151 OFFCURVE",
"197 209 CURVE SMOOTH",
"197 288 OFFCURVE",
"239 359 OFFCURVE",
"316 398 CURVE SMOOTH",
"373 427 OFFCURVE",
"451 440 OFFCURVE",
"546 440 CURVE"
);
},
{
closed = 1;
nodes = (
"1001 801 OFFCURVE",
"1031 745 OFFCURVE",
"1031 649 CURVE SMOOTH",
"1031 628 OFFCURVE",
"1029 605 OFFCURVE",
"1026 580 CURVE",
"726 580 LINE",
"770 739 OFFCURVE",
"834 801 OFFCURVE",
"926 801 CURVE SMOOTH"
);
}
);
width = 1228;
}
);
unicode = 00E6;
},
{
glyphname = b;
lastChange = "2015-01-12 05:49:59 +0000";
layers = (
{
layerId = UUID0;
name = "Regular Italic";
paths = (
{
closed = 1;
nodes = (
"428 1322 LINE SMOOTH",
"375 1322 OFFCURVE",
"351 1303 OFFCURVE",
"343 1257 CURVE SMOOTH",
"131 55 LINE SMOOTH",
"123 9 OFFCURVE",
"138 -10 OFFCURVE",
"191 -10 CURVE SMOOTH",
"193 -10 LINE SMOOTH",
"246 -10 OFFCURVE",
"263 9 OFFCURVE",
"271 55 CURVE SMOOTH",
"290 158 LINE",
"354 44 OFFCURVE",
"458 -22 OFFCURVE",
"595 -22 CURVE SMOOTH",
"948 -22 OFFCURVE",
"1107 299 OFFCURVE",
"1107 558 CURVE SMOOTH",
"1107 797 OFFCURVE",
"960 946 OFFCURVE",
"745 946 CURVE SMOOTH",
"617 946 OFFCURVE",
"505 893 OFFCURVE",
"413 802 CURVE",
"493 1257 LINE SMOOTH",
"501 1303 OFFCURVE",
"486 1322 OFFCURVE",
"430 1322 CURVE SMOOTH"
);
},
{
closed = 1;
nodes = (
"872 798 OFFCURVE",
"954 698 OFFCURVE",
"954 549 CURVE SMOOTH",
"954 343 OFFCURVE",
"826 126 OFFCURVE",
"601 126 CURVE SMOOTH",
"447 126 OFFCURVE",
"346 219 OFFCURVE",
"346 383 CURVE SMOOTH",
"346 589 OFFCURVE",
"482 798 OFFCURVE",
"719 798 CURVE SMOOTH"
);
}
);
width = 1228;
}
);
unicode = 0062;
},
{
glyphname = c;
lastChange = "2015-01-12 05:49:59 +0000";
layers = (
{
layerId = UUID0;
name = "Regular Italic";
paths = (
{
closed = 1;
nodes = (
"379 946 OFFCURVE",
"154 673 OFFCURVE",
"154 380 CURVE SMOOTH",
"154 150 OFFCURVE",
"308 -22 OFFCURVE",
"565 -22 CURVE SMOOTH",
"711 -22 OFFCURVE",
"870 18 OFFCURVE",
"983 81 CURVE SMOOTH",
"1026 105 OFFCURVE",
"1034 139 OFFCURVE",
"1012 183 CURVE SMOOTH",
"988 231 OFFCURVE",
"954 236 OFFCURVE",
"920 216 CURVE SMOOTH",
"822 159 OFFCURVE",
"698 126 OFFCURVE",
"581 126 CURVE SMOOTH",
"411 126 OFFCURVE",
"309 234 OFFCURVE",
"309 391 CURVE SMOOTH",
"309 607 OFFCURVE",
"480 798 OFFCURVE",
"709 798 CURVE SMOOTH",
"813 798 OFFCURVE",
"921 765 OFFCURVE",
"1008 702 CURVE SMOOTH",
"1038 680 OFFCURVE",
"1075 683 OFFCURVE",
"1101 729 CURVE SMOOTH",
"1126 773 OFFCURVE",
"1115 807 OFFCURVE",
"1076 835 CURVE SMOOTH",
"975 907 OFFCURVE",
"845 946 OFFCURVE",
"720 946 CURVE SMOOTH"
);
}
);
width = 1228;
}
);
unicode = 0063;
},
{
glyphname = d;
lastChange = "2015-01-13 12:50:16 +0000";
layers = (
{
background = {
paths = (
{
closed = 1;
nodes = (
"1108 1322 LINE SMOOTH",
"1055 1322 OFFCURVE",
"1031 1303 OFFCURVE",
"1023 1257 CURVE SMOOTH",
"931 733 LINE",
"953 750 LINE",
"893 873 OFFCURVE",
"785 946 OFFCURVE",
"641 946 CURVE SMOOTH",
"288 946 OFFCURVE",
"129 625 OFFCURVE",
"129 366 CURVE SMOOTH",
"129 127 OFFCURVE",
"276 -22 OFFCURVE",
"491 -22 CURVE SMOOTH",
"650 -22 OFFCURVE",
"774 50 OFFCURVE",
"874 184 CURVE",
"869 196 LINE",
"869 69 OFFCURVE",
"943 0 OFFCURVE",
"1052 0 CURVE SMOOTH",
"1063 0 LINE SMOOTH",
"1108 0 OFFCURVE",
"1129 20 OFFCURVE",
"1139 72 CURVE SMOOTH",
"1148 124 OFFCURVE",
"1133 144 OFFCURVE",
"1088 144 CURVE SMOOTH",
"1083 144 LINE SMOOTH",
"1022 144 OFFCURVE",
"985 188 OFFCURVE",
"1001 279 CURVE SMOOTH",
"1173 1257 LINE SMOOTH",
"1181 1304 OFFCURVE",
"1166 1322 OFFCURVE",
"1110 1322 CURVE SMOOTH"
);
},
{
closed = 1;
nodes = (
"789 798 OFFCURVE",
"890 705 OFFCURVE",
"890 541 CURVE SMOOTH",
"890 339 OFFCURVE",
"736 126 OFFCURVE",
"517 126 CURVE SMOOTH",
"364 126 OFFCURVE",
"282 226 OFFCURVE",
"282 375 CURVE SMOOTH",
"282 581 OFFCURVE",
"410 798 OFFCURVE",
"635 798 CURVE SMOOTH"
);
}
);
};
layerId = UUID0;
name = "Regular Italic";
paths = (
{
closed = 1;
nodes = (
"1122 1322 LINE SMOOTH",
"1069 1322 OFFCURVE",
"1045 1303 OFFCURVE",
"1037 1257 CURVE SMOOTH",
"945 733 LINE",
"967 750 LINE",
"907 873 OFFCURVE",
"799 946 OFFCURVE",
"655 946 CURVE SMOOTH",
"302 946 OFFCURVE",
"143 625 OFFCURVE",
"143 366 CURVE SMOOTH",
"143 127 OFFCURVE",
"290 -22 OFFCURVE",
"505 -22 CURVE SMOOTH",
"633 -22 OFFCURVE",
"749 31 OFFCURVE",
"849 134 CURVE",
"835 55 LINE SMOOTH",
"827 9 OFFCURVE",
"842 -10 OFFCURVE",
"895 -10 CURVE SMOOTH",
"897 -10 LINE SMOOTH",
"950 -10 OFFCURVE",
"967 9 OFFCURVE",
"975 55 CURVE SMOOTH",
"1187 1257 LINE SMOOTH",
"1195 1303 OFFCURVE",
"1180 1322 OFFCURVE",
"1124 1322 CURVE SMOOTH"
);
},
{
closed = 1;
nodes = (
"803 798 OFFCURVE",
"904 705 OFFCURVE",
"904 541 CURVE SMOOTH",
"904 335 OFFCURVE",
"768 126 OFFCURVE",
"531 126 CURVE SMOOTH",
"378 126 OFFCURVE",
"296 226 OFFCURVE",
"296 375 CURVE SMOOTH",
"296 581 OFFCURVE",
"424 798 OFFCURVE",
"649 798 CURVE SMOOTH"
);
}
);
width = 1228;
}
);
unicode = 0064;
},
{
glyphname = eth;
lastChange = "2015-01-12 05:49:59 +0000";
layers = (
{
layerId = UUID0;
name = "Regular Italic";
paths = (
{
closed = 1;
nodes = (
"350 886 OFFCURVE",
"142 639 OFFCURVE",
"142 363 CURVE SMOOTH",
"142 137 OFFCURVE",
"308 -22 OFFCURVE",
"550 -22 CURVE SMOOTH",
"822 -22 OFFCURVE",
"1042 140 OFFCURVE",
"1090 412 CURVE",
"966 771 LINE",
"897 839 OFFCURVE",
"802 886 OFFCURVE",
"690 886 CURVE SMOOTH"
);
},
{
closed = 1;
nodes = (
"841 738 OFFCURVE",
"942 645 OFFCURVE",
"942 496 CURVE SMOOTH",
"942 307 OFFCURVE",
"799 126 OFFCURVE",
"566 126 CURVE SMOOTH",
"399 126 OFFCURVE",
"298 219 OFFCURVE",
"298 367 CURVE SMOOTH",
"298 570 OFFCURVE",
"451 738 OFFCURVE",
"674 738 CURVE SMOOTH"
);
},
{
closed = 1;
nodes = (
"569 1343 OFFCURVE",
"540 1335 OFFCURVE",
"513 1288 CURVE SMOOTH",
"487 1243 OFFCURVE",
"496 1215 OFFCURVE",
"533 1195 CURVE SMOOTH",
"826 1038 OFFCURVE",
"1024 812 OFFCURVE",
"959 442 CURVE",
"1090 412 LINE",
"1101 473 OFFCURVE",
"1106 532 OFFCURVE",
"1106 587 CURVE SMOOTH",
"1106 939 OFFCURVE",
"896 1171 OFFCURVE",
"606 1323 CURVE SMOOTH"
);
},
{
closed = 1;
nodes = (
"465 1074 LINE SMOOTH",
"420 1058 OFFCURVE",
"410 1033 OFFCURVE",
"425 988 CURVE SMOOTH",
"439 946 OFFCURVE",
"465 930 OFFCURVE",
"510 946 CURVE SMOOTH",
"1102 1154 LINE SMOOTH",
"1147 1170 OFFCURVE",
"1156 1197 OFFCURVE",
"1142 1240 CURVE SMOOTH",
"1127 1286 OFFCURVE",
"1101 1298 OFFCURVE",
"1057 1282 CURVE SMOOTH"
);
}
);
width = 1228;
}
);
unicode = 00F0;
},
{
glyphname = dcaron;
lastChange = "2015-01-13 12:50:11 +0000";
layers = (
{
background = {
components = (
{
name = caron.alt;
transform = "{1, 0, 0, 1, 807, 0}";
}
);
paths = (
{
closed = 1;
nodes = (
"1012 1322 LINE SMOOTH",
"959 1322 OFFCURVE",
"935 1303 OFFCURVE",
"927 1257 CURVE SMOOTH",
"838 752 LINE",
"859 768 LINE",
"817 873 OFFCURVE",
"721 946 OFFCURVE",
"605 946 CURVE SMOOTH",
"280 946 OFFCURVE",
"133 625 OFFCURVE",
"133 366 CURVE SMOOTH",
"133 127 OFFCURVE",
"264 -22 OFFCURVE",
"455 -22 CURVE SMOOTH",
"596 -22 OFFCURVE",
"706 51 OFFCURVE",
"794 173 CURVE",
"772 196 LINE",
"772 69 OFFCURVE",
"846 0 OFFCURVE",
"955 0 CURVE SMOOTH",
"966 0 LINE SMOOTH",
"1011 0 OFFCURVE",
"1032 20 OFFCURVE",
"1042 72 CURVE SMOOTH",
"1051 124 OFFCURVE",
"1036 144 OFFCURVE",
"991 144 CURVE SMOOTH",
"986 144 LINE SMOOTH",
"925 144 OFFCURVE",
"888 188 OFFCURVE",
"904 279 CURVE SMOOTH",
"1077 1257 LINE SMOOTH",
"1085 1303 OFFCURVE",
"1070 1322 OFFCURVE",
"1014 1322 CURVE SMOOTH"
);
},
{
closed = 1;
nodes = (
"717 798 OFFCURVE",
"794 705 OFFCURVE",
"794 541 CURVE SMOOTH",
"794 335 OFFCURVE",
"682 126 OFFCURVE",
"481 126 CURVE SMOOTH",
"354 126 OFFCURVE",
"286 226 OFFCURVE",
"286 375 CURVE SMOOTH",
"286 581 OFFCURVE",
"398 798 OFFCURVE",
"599 798 CURVE SMOOTH"
);
}
);
};
components = (
{
name = caron.alt;
transform = "{1, 0, 0, 1, 807, 0}";
}
);
layerId = UUID0;
name = "Regular Italic";
paths = (
{
closed = 1;
nodes = (
"1012 1322 LINE SMOOTH",
"959 1322 OFFCURVE",
"935 1303 OFFCURVE",
"927 1257 CURVE SMOOTH",
"838 752 LINE",
"859 768 LINE",
"817 873 OFFCURVE",
"721 946 OFFCURVE",
"605 946 CURVE SMOOTH",
"280 946 OFFCURVE",
"133 625 OFFCURVE",
"133 366 CURVE SMOOTH",
"133 127 OFFCURVE",
"264 -22 OFFCURVE",
"455 -22 CURVE SMOOTH",
"556.178 -22 OFFCURVE",
"653.57 24.377 OFFCURVE",
"735.206 112.527 CURVE",
"725 55 LINE SMOOTH",
"717 9 OFFCURVE",
"732 -10 OFFCURVE",
"785 -10 CURVE SMOOTH",
"787 -10 LINE SMOOTH",
"840 -10 OFFCURVE",
"857 9 OFFCURVE",
"865 55 CURVE SMOOTH",
"1077 1257 LINE SMOOTH",
"1085 1303 OFFCURVE",
"1070 1322 OFFCURVE",
"1014 1322 CURVE SMOOTH"
);
},
{
closed = 1;
nodes = (
"717 798 OFFCURVE",
"794 705 OFFCURVE",
"794 541 CURVE SMOOTH",
"794 335 OFFCURVE",
"682 126 OFFCURVE",
"481 126 CURVE SMOOTH",
"354 126 OFFCURVE",
"286 226 OFFCURVE",
"286 375 CURVE SMOOTH",
"286 581 OFFCURVE",
"398 798 OFFCURVE",
"599 798 CURVE SMOOTH"
);
}
);
width = 1228;
}
);
unicode = 010F;
},
{
color = 6;
glyphname = dcroat;
lastChange = "2015-01-13 12:50:04 +0000";
layers = (
{
background = {
paths = (
{
closed = 1;
nodes = (
"1093 1322 LINE SMOOTH",
"1037 1322 OFFCURVE",
"1016 1303 OFFCURVE",
"1008 1257 CURVE SMOOTH",
"905 674 LINE",
"938 698 LINE",
"879 811 OFFCURVE",
"775 886 OFFCURVE",
"631 886 CURVE SMOOTH",
"342 886 OFFCURVE",
"149 641 OFFCURVE",
"149 347 CURVE SMOOTH",
"149 114 OFFCURVE",
"293 -22 OFFCURVE",
"501 -22 CURVE SMOOTH",
"649 -22 OFFCURVE",
"778 52 OFFCURVE",
"876 182 CURVE",
"853 196 LINE",
"853 69 OFFCURVE",
"927 0 OFFCURVE",
"1036 0 CURVE SMOOTH",
"1047 0 LINE SMOOTH",
"1092 0 OFFCURVE",
"1113 20 OFFCURVE",
"1123 72 CURVE SMOOTH",
"1132 124 OFFCURVE",
"1117 144 OFFCURVE",
"1072 144 CURVE SMOOTH",
"1067 144 LINE SMOOTH",
"1006 144 OFFCURVE",
"969 188 OFFCURVE",
"985 279 CURVE SMOOTH",
"1158 1257 LINE SMOOTH",
"1166 1303 OFFCURVE",
"1151 1322 OFFCURVE",
"1095 1322 CURVE SMOOTH"
);
},
{
closed = 1;
nodes = (
"773 738 OFFCURVE",
"869 653 OFFCURVE",
"869 503 CURVE SMOOTH",
"869 326 OFFCURVE",
"751 126 OFFCURVE",
"521 126 CURVE SMOOTH",
"377 126 OFFCURVE",
"302 219 OFFCURVE",
"302 356 CURVE SMOOTH",
"302 532 OFFCURVE",
"412 738 OFFCURVE",
"629 738 CURVE SMOOTH"
);
},
{
closed = 1;
nodes = (
"736 1150 LINE SMOOTH",
"691 1150 OFFCURVE",
"669 1130 OFFCURVE",
"660 1078 CURVE SMOOTH",
"651 1026 OFFCURVE",
"665 1006 OFFCURVE",
"710 1006 CURVE SMOOTH",
"1252 1006 LINE SMOOTH",
"1297 1006 OFFCURVE",
"1319 1026 OFFCURVE",
"1328 1078 CURVE SMOOTH",
"1337 1130 OFFCURVE",
"1323 1150 OFFCURVE",
"1278 1150 CURVE SMOOTH"
);
}
);
};
layerId = UUID0;
name = "Regular Italic";
paths = (
{
closed = 1;
nodes = (
"1103 1322 LINE SMOOTH",
"1047 1322 OFFCURVE",
"1026 1303 OFFCURVE",
"1018 1257 CURVE SMOOTH",
"915 674 LINE",
"948 698 LINE",
"889 811 OFFCURVE",
"785 886 OFFCURVE",
"641 886 CURVE SMOOTH",
"352 886 OFFCURVE",
"159 641 OFFCURVE",
"159 347 CURVE SMOOTH",
"159 114 OFFCURVE",
"303 -22 OFFCURVE",
"511 -22 CURVE SMOOTH",
"652 -22 OFFCURVE",
"772 54 OFFCURVE",
"865 168 CURVE",
"842 205 LINE",
"816 55 LINE SMOOTH",
"808 9 OFFCURVE",
"820 -10 OFFCURVE",
"873 -10 CURVE SMOOTH",
"875 -10 LINE SMOOTH",
"928 -10 OFFCURVE",
"948 9 OFFCURVE",
"956 55 CURVE SMOOTH",
"1168 1257 LINE SMOOTH",
"1176 1303 OFFCURVE",
"1161 1322 OFFCURVE",
"1105 1322 CURVE SMOOTH"
);
},
{
closed = 1;
nodes = (
"783 738 OFFCURVE",
"879 653 OFFCURVE",
"879 503 CURVE SMOOTH",
"879 326 OFFCURVE",
"761 126 OFFCURVE",
"531 126 CURVE SMOOTH",
"387 126 OFFCURVE",
"312 219 OFFCURVE",
"312 356 CURVE SMOOTH",
"312 532 OFFCURVE",
"422 738 OFFCURVE",
"639 738 CURVE SMOOTH"
);
},
{
closed = 1;
nodes = (
"746 1150 LINE SMOOTH",
"701 1150 OFFCURVE",
"679 1130 OFFCURVE",
"670 1078 CURVE SMOOTH",
"661 1026 OFFCURVE",
"675 1006 OFFCURVE",
"720 1006 CURVE SMOOTH",
"1262 1006 LINE SMOOTH",
"1307 1006 OFFCURVE",
"1329 1026 OFFCURVE",
"1338 1078 CURVE SMOOTH",
"1347 1130 OFFCURVE",
"1333 1150 OFFCURVE",
"1288 1150 CURVE SMOOTH"
);
}
);
width = 1228;
}
);
unicode = 0111;
},
{
glyphname = e;
lastChange = "2015-01-12 05:49:59 +0000";
layers = (
{
layerId = UUID0;
name = "Regular Italic";
paths = (
{
closed = 1;
nodes = (
"383 946 OFFCURVE",
"154 684 OFFCURVE",
"154 354 CURVE SMOOTH",
"154 122 OFFCURVE",
"291 -22 OFFCURVE",
"543 -22 CURVE SMOOTH",
"698 -22 OFFCURVE",
"860 16 OFFCURVE",
"973 66 CURVE SMOOTH",
"1015 85 OFFCURVE",
"1030 114 OFFCURVE",
"1014 166 CURVE SMOOTH",
"998 217 OFFCURVE",
"966 232 OFFCURVE",
"933 215 CURVE SMOOTH",
"832 164 OFFCURVE",
"692 123 OFFCURVE",
"558 123 CURVE SMOOTH",
"402 123 OFFCURVE",
"306 194 OFFCURVE",
"306 361 CURVE SMOOTH",
"306 602 OFFCURVE",
"453 801 OFFCURVE",
"708 801 CURVE SMOOTH",
"853 801 OFFCURVE",
"927 734 OFFCURVE",
"927 650 CURVE SMOOTH",
"927 592 OFFCURVE",
"903 558 OFFCURVE",
"826 550 CURVE SMOOTH",
"285 488 LINE",
"252 348 LINE",
"857 411 LINE SMOOTH",
"1019 428 OFFCURVE",
"1081 520 OFFCURVE",
"1081 655 CURVE SMOOTH",
"1081 821 OFFCURVE",
"945 946 OFFCURVE",
"723 946 CURVE SMOOTH"
);
}
);
width = 1228;
}
);
unicode = 0065;
},
{
color = 3;
glyphname = eogonek;
lastChange = "2015-01-12 05:49:59 +0000";
layers = (
{
background = {
paths = (
{
closed = 1;
nodes = (
"693 -336 OFFCURVE",
"668 -316 OFFCURVE",
"668 -277 CURVE SMOOTH",
"668 -195 OFFCURVE",
"757 -84 OFFCURVE",
"996 86 CURVE",
"947 148 LINE",
"750 28 LINE",
"599 -82 OFFCURVE",
"512 -190 OFFCURVE",
"512 -310 CURVE SMOOTH",
"512 -406 OFFCURVE",
"570 -472 OFFCURVE",
"677 -472 CURVE SMOOTH",
"741 -472 OFFCURVE",
"806 -460 OFFCURVE",
"855 -443 CURVE SMOOTH",
"886 -432 OFFCURVE",
"896 -411 OFFCURVE",
"891 -374 CURVE SMOOTH",
"886 -337 OFFCURVE",
"871 -322 OFFCURVE",
"844 -326 CURVE SMOOTH",
"808 -332 OFFCURVE",
"772 -336 OFFCURVE",
"733 -336 CURVE SMOOTH"
);
},
{
closed = 1;
nodes = (
"1021 104 OFFCURVE",
"1026 129 OFFCURVE",
"1014 166 CURVE SMOOTH",
"998 217 OFFCURVE",
"966 232 OFFCURVE",
"933 215 CURVE SMOOTH",
"832 164 OFFCURVE",
"692 123 OFFCURVE",
"558 123 CURVE SMOOTH",
"402 123 OFFCURVE",
"306 194 OFFCURVE",
"306 361 CURVE SMOOTH",
"306 602 OFFCURVE",
"453 801 OFFCURVE",
"708 801 CURVE SMOOTH",
"853 801 OFFCURVE",
"927 734 OFFCURVE",
"927 650 CURVE SMOOTH",
"927 592 OFFCURVE",
"903 558 OFFCURVE",
"826 550 CURVE SMOOTH",
"285 488 LINE",
"252 348 LINE",
"857 411 LINE SMOOTH",
"1019 428 OFFCURVE",
"1081 520 OFFCURVE",
"1081 655 CURVE SMOOTH",
"1081 821 OFFCURVE",
"945 946 OFFCURVE",
"723 946 CURVE SMOOTH",
"383 946 OFFCURVE",
"154 684 OFFCURVE",
"154 354 CURVE SMOOTH",
"154 122 OFFCURVE",
"291 -22 OFFCURVE",
"543 -22 CURVE SMOOTH",
"654 -22 OFFCURVE",
"768 -2 OFFCURVE",
"865 27 CURVE SMOOTH",
"904 39 OFFCURVE",
"968 66 OFFCURVE",
"996 86 CURVE SMOOTH"
);
}
);
};
layerId = UUID0;
name = "Regular Italic";
paths = (
{
closed = 1;
nodes = (
"383 946 OFFCURVE",
"154 684 OFFCURVE",
"154 354 CURVE SMOOTH",
"154 122 OFFCURVE",
"291 -22 OFFCURVE",
"543 -22 CURVE SMOOTH",
"596 -22 OFFCURVE",
"649 -18 OFFCURVE",
"701 -10 CURVE",
"580 -107 OFFCURVE",
"512 -204 OFFCURVE",
"512 -310 CURVE SMOOTH",
"512 -406 OFFCURVE",
"570 -472 OFFCURVE",
"677 -472 CURVE SMOOTH",
"741 -472 OFFCURVE",
"806 -460 OFFCURVE",
"855 -443 CURVE SMOOTH",
"886 -432 OFFCURVE",
"896 -411 OFFCURVE",
"891 -374 CURVE SMOOTH",
"886 -337 OFFCURVE",
"871 -322 OFFCURVE",
"844 -326 CURVE SMOOTH",
"808 -332 OFFCURVE",
"772 -336 OFFCURVE",
"733 -336 CURVE SMOOTH",
"693 -336 OFFCURVE",
"668 -316 OFFCURVE",
"668 -277 CURVE SMOOTH",
"668 -195 OFFCURVE",
"757 -84 OFFCURVE",
"996 86 CURVE SMOOTH",
"1021 104 OFFCURVE",
"1026 129 OFFCURVE",
"1014 166 CURVE SMOOTH",
"998 217 OFFCURVE",
"966 232 OFFCURVE",
"933 215 CURVE SMOOTH",
"832 164 OFFCURVE",
"692 123 OFFCURVE",
"558 123 CURVE SMOOTH",
"404 123 OFFCURVE",
"309 192 OFFCURVE",
"306 354 CURVE",
"857 411 LINE SMOOTH",
"1019 428 OFFCURVE",
"1081 520 OFFCURVE",
"1081 655 CURVE SMOOTH",
"1081 821 OFFCURVE",
"945 946 OFFCURVE",
"723 946 CURVE SMOOTH"
);
},
{
closed = 1;
nodes = (
"853 801 OFFCURVE",
"927 734 OFFCURVE",
"927 650 CURVE SMOOTH",
"927 592 OFFCURVE",
"903 558 OFFCURVE",
"826 550 CURVE SMOOTH",
"322 492 LINE",
"365 670 OFFCURVE",
"501 801 OFFCURVE",
"708 801 CURVE SMOOTH"
);
}
);
width = 1228;
}
);
unicode = 0119;
},
{
glyphname = f;
lastChange = "2015-01-12 14:41:06 +0000";
layers = (
{
layerId = UUID0;
name = "Regular Italic";
paths = (
{
closed = 1;
nodes = (
"729 1317 OFFCURVE",
"588 1186 OFFCURVE",
"549 967 CURVE SMOOTH",
"320 -333 LINE SMOOTH",
"312 -379 OFFCURVE",
"327 -398 OFFCURVE",
"383 -398 CURVE SMOOTH",
"385 -398 LINE SMOOTH",
"438 -398 OFFCURVE",
"462 -379 OFFCURVE",
"470 -333 CURVE SMOOTH",
"697 954 LINE SMOOTH",
"721 1091 OFFCURVE",
"796 1171 OFFCURVE",
"937 1171 CURVE SMOOTH",
"1016 1171 OFFCURVE",
"1093 1153 OFFCURVE",
"1165 1124 CURVE SMOOTH",
"1197 1111 OFFCURVE",
"1228 1119 OFFCURVE",
"1247 1174 CURVE SMOOTH",
"1265 1225 OFFCURVE",
"1243 1252 OFFCURVE",
"1210 1266 CURVE SMOOTH",
"1135 1297 OFFCURVE",
"1047 1317 OFFCURVE",
"953 1317 CURVE SMOOTH"
);
},
{
closed = 1;
nodes = (
"329 844 LINE SMOOTH",
"284 844 OFFCURVE",
"263 824 OFFCURVE",
"254 772 CURVE SMOOTH",
"244 720 OFFCURVE",
"259 700 OFFCURVE",
"304 700 CURVE SMOOTH",
"998 700 LINE SMOOTH",
"1043 700 OFFCURVE",
"1064 720 OFFCURVE",
"1074 772 CURVE SMOOTH",
"1083 824 OFFCURVE",
"1068 844 OFFCURVE",
"1023 844 CURVE SMOOTH"
);
}
);
width = 1228;
}
);
unicode = 0066;
},
{
color = 8;
glyphname = g;
lastChange = "2015-01-12 05:49:59 +0000";
layers = (
{
background = {
paths = (
{
closed = 1;
nodes = (
"338 946 OFFCURVE",
"149 685 OFFCURVE",
"149 400 CURVE SMOOTH",
"149 172 OFFCURVE",
"297 28 OFFCURVE",
"513 28 CURVE SMOOTH",
"642 28 OFFCURVE",
"748 73 OFFCURVE",
"845 168 CURVE",
"813 -17 LINE SMOOTH",
"788 -164 OFFCURVE",
"684 -262 OFFCURVE",
"506 -262 CURVE SMOOTH",
"409 -262 OFFCURVE",
"304 -244 OFFCURVE",
"217 -206 CURVE SMOOTH",
"185 -192 OFFCURVE",
"156 -204 OFFCURVE",
"135 -256 CURVE SMOOTH",
"114 -307 OFFCURVE",
"128 -336 OFFCURVE",
"162 -350 CURVE SMOOTH",
"260 -390 OFFCURVE",
"375 -410 OFFCURVE",
"490 -410 CURVE SMOOTH",
"752 -410 OFFCURVE",
"916 -279 OFFCURVE",
"958 -40 CURVE SMOOTH",
"1119 869 LINE SMOOTH",
"1127 915 OFFCURVE",
"1112 934 OFFCURVE",
"1059 934 CURVE SMOOTH",
"1057 934 LINE SMOOTH",
"1004 934 OFFCURVE",
"987 915 OFFCURVE",
"979 869 CURVE SMOOTH",
"960 766 LINE",
"900 877 OFFCURVE",
"801 946 OFFCURVE",
"665 946 CURVE SMOOTH"
);
},
{
closed = 1;
nodes = (
"804 798 OFFCURVE",
"908 710 OFFCURVE",
"908 556 CURVE SMOOTH",
"908 383 OFFCURVE",
"789 176 OFFCURVE",
"540 176 CURVE SMOOTH",
"385 176 OFFCURVE",
"302 271 OFFCURVE",
"302 412 CURVE SMOOTH",
"302 602 OFFCURVE",
"425 798 OFFCURVE",
"649 798 CURVE SMOOTH"
);
}
);
};
layerId = UUID0;
name = "Regular Italic";
paths = (
{
closed = 1;
nodes = (
"338 946 OFFCURVE",
"149 685 OFFCURVE",
"149 400 CURVE SMOOTH",
"149 172 OFFCURVE",
"297 28 OFFCURVE",
"513 28 CURVE SMOOTH",
"642 28 OFFCURVE",
"748 73 OFFCURVE",
"845 168 CURVE",
"813 -17 LINE SMOOTH",
"788 -164 OFFCURVE",
"680 -262 OFFCURVE",
"496 -262 CURVE SMOOTH",
"387 -262 OFFCURVE",
"266 -240 OFFCURVE",
"167 -196 CURVE SMOOTH",
"135 -182 OFFCURVE",
"105 -194 OFFCURVE",
"85 -246 CURVE SMOOTH",
"65 -297 OFFCURVE",
"78 -326 OFFCURVE",
"112 -340 CURVE SMOOTH",
"222 -386 OFFCURVE",
"349 -410 OFFCURVE",
"480 -410 CURVE SMOOTH",
"748 -410 OFFCURVE",
"916 -279 OFFCURVE",
"958 -40 CURVE SMOOTH",
"1119 869 LINE SMOOTH",
"1127 915 OFFCURVE",
"1112 934 OFFCURVE",
"1059 934 CURVE SMOOTH",
"1057 934 LINE SMOOTH",
"1004 934 OFFCURVE",
"987 915 OFFCURVE",
"979 869 CURVE SMOOTH",
"960 766 LINE",
"900 877 OFFCURVE",
"801 946 OFFCURVE",
"665 946 CURVE SMOOTH"
);
},
{
closed = 1;
nodes = (
"804 798 OFFCURVE",
"908 710 OFFCURVE",
"908 556 CURVE SMOOTH",
"908 383 OFFCURVE",
"789 176 OFFCURVE",
"540 176 CURVE SMOOTH",
"385 176 OFFCURVE",
"302 271 OFFCURVE",
"302 412 CURVE SMOOTH",
"302 602 OFFCURVE",
"425 798 OFFCURVE",
"649 798 CURVE SMOOTH"
);
}
);
width = 1228;
}
);
unicode = 0067;
},
{
glyphname = h;
lastChange = "2015-01-12 05:49:59 +0000";
layers = (
{
layerId = UUID0;
name = "Regular Italic";
paths = (
{
closed = 1;
nodes = (
"438 1322 LINE SMOOTH",
"385 1322 OFFCURVE",
"361 1303 OFFCURVE",
"353 1257 CURVE SMOOTH",
"141 55 LINE SMOOTH",
"133 9 OFFCURVE",
"148 -10 OFFCURVE",
"204 -10 CURVE SMOOTH",
"206 -10 LINE SMOOTH",
"259 -10 OFFCURVE",
"283 9 OFFCURVE",
"291 55 CURVE SMOOTH",
"351 392 LINE SMOOTH",
"391 620 OFFCURVE",
"611 798 OFFCURVE",
"782 798 CURVE SMOOTH",
"887 798 OFFCURVE",
"935 744 OFFCURVE",
"935 659 CURVE SMOOTH",
"935 642 OFFCURVE",
"933 624 OFFCURVE",
"930 605 CURVE SMOOTH",
"833 55 LINE SMOOTH",
"825 9 OFFCURVE",
"840 -10 OFFCURVE",
"896 -10 CURVE SMOOTH",
"898 -10 LINE SMOOTH",
"951 -10 OFFCURVE",
"975 9 OFFCURVE",
"983 55 CURVE SMOOTH",
"1081 610 LINE SMOOTH",
"1086 637 OFFCURVE",
"1088 662 OFFCURVE",
"1088 686 CURVE SMOOTH",
"1088 844 OFFCURVE",
"985 946 OFFCURVE",
"813 946 CURVE SMOOTH",
"672 946 OFFCURVE",
"519 857 OFFCURVE",
"410 731 CURVE",
"503 1257 LINE SMOOTH",
"511 1303 OFFCURVE",
"496 1322 OFFCURVE",
"440 1322 CURVE SMOOTH"
);
}
);
width = 1228;
}
);
unicode = 0068;
},
{
color = 6;
glyphname = hbar;
lastChange = "2015-01-12 05:49:59 +0000";
layers = (
{
background = {
paths = (
{
closed = 1;
nodes = (
"438 1322 LINE SMOOTH",
"385 1322 OFFCURVE",
"361 1303 OFFCURVE",
"353 1257 CURVE SMOOTH",
"141 55 LINE SMOOTH",
"133 9 OFFCURVE",
"148 -10 OFFCURVE",
"204 -10 CURVE SMOOTH",
"206 -10 LINE SMOOTH",
"259 -10 OFFCURVE",
"283 9 OFFCURVE",
"291 55 CURVE SMOOTH",
"340 332 LINE SMOOTH",
"380 560 OFFCURVE",
"600 738 OFFCURVE",
"771 738 CURVE SMOOTH",
"876 738 OFFCURVE",
"924 684 OFFCURVE",
"924 599 CURVE SMOOTH",
"924 582 OFFCURVE",
"922 564 OFFCURVE",
"919 545 CURVE SMOOTH",
"833 55 LINE SMOOTH",
"825 9 OFFCURVE",
"840 -10 OFFCURVE",
"896 -10 CURVE SMOOTH",
"898 -10 LINE SMOOTH",
"951 -10 OFFCURVE",
"975 9 OFFCURVE",
"983 55 CURVE SMOOTH",
"1070 550 LINE SMOOTH",
"1075 577 OFFCURVE",
"1077 602 OFFCURVE",
"1077 626 CURVE SMOOTH",
"1077 784 OFFCURVE",
"974 886 OFFCURVE",
"802 886 CURVE SMOOTH",
"661 886 OFFCURVE",
"508 797 OFFCURVE",
"399 671 CURVE",
"503 1257 LINE SMOOTH",
"511 1303 OFFCURVE",
"496 1322 OFFCURVE",
"440 1322 CURVE SMOOTH"
);
},
{
closed = 1;
nodes = (
"196 1150 LINE SMOOTH",
"151 1150 OFFCURVE",
"129 1130 OFFCURVE",
"120 1078 CURVE SMOOTH",
"111 1026 OFFCURVE",
"125 1006 OFFCURVE",
"170 1006 CURVE SMOOTH",
"712 1006 LINE SMOOTH",
"757 1006 OFFCURVE",
"779 1026 OFFCURVE",
"788 1078 CURVE SMOOTH",
"797 1130 OFFCURVE",
"783 1150 OFFCURVE",
"738 1150 CURVE SMOOTH"
);
}
);
};
layerId = UUID0;
name = "Regular Italic";
paths = (
{
closed = 1;
nodes = (
"458 1322 LINE SMOOTH",
"405 1322 OFFCURVE",
"381 1303 OFFCURVE",
"373 1257 CURVE SMOOTH",
"161 55 LINE SMOOTH",
"153 9 OFFCURVE",
"168 -10 OFFCURVE",
"224 -10 CURVE SMOOTH",
"226 -10 LINE SMOOTH",
"279 -10 OFFCURVE",
"303 9 OFFCURVE",
"311 55 CURVE SMOOTH",
"363 352 LINE SMOOTH",
"401 568 OFFCURVE",
"605 738 OFFCURVE",
"761 738 CURVE SMOOTH",
"862 738 OFFCURVE",
"904 684 OFFCURVE",
"904 600 CURVE SMOOTH",
"904 581 OFFCURVE",
"902 562 OFFCURVE",
"899 545 CURVE SMOOTH",
"813 55 LINE SMOOTH",
"805 9 OFFCURVE",
"820 -10 OFFCURVE",
"876 -10 CURVE SMOOTH",
"878 -10 LINE SMOOTH",
"931 -10 OFFCURVE",
"955 9 OFFCURVE",
"963 55 CURVE SMOOTH",
"1050 549 LINE SMOOTH",
"1055 577 OFFCURVE",
"1057 603 OFFCURVE",
"1057 627 CURVE SMOOTH",
"1057 784 OFFCURVE",
"963 886 OFFCURVE",
"792 886 CURVE SMOOTH",
"650 886 OFFCURVE",
"491 787 OFFCURVE",
"377 639 CURVE",
"409 613 LINE",
"523 1257 LINE SMOOTH",
"531 1303 OFFCURVE",
"516 1322 OFFCURVE",
"460 1322 CURVE SMOOTH"
);
},
{
closed = 1;
nodes = (
"215 1150 LINE SMOOTH",
"170 1150 OFFCURVE",
"148 1130 OFFCURVE",
"139 1078 CURVE SMOOTH",
"130 1026 OFFCURVE",
"144 1006 OFFCURVE",
"189 1006 CURVE SMOOTH",
"731 1006 LINE SMOOTH",
"776 1006 OFFCURVE",
"798 1026 OFFCURVE",
"807 1078 CURVE SMOOTH",
"816 1130 OFFCURVE",
"802 1150 OFFCURVE",
"757 1150 CURVE SMOOTH"
);
}
);
width = 1228;
}
);
unicode = 0127;
},
{
glyphname = i;
lastChange = "2015-01-13 03:26:13 +0000";
layers = (
{
layerId = UUID0;
name = "Regular Italic";
paths = (
{
closed = 1;
nodes = (
"322 924 LINE SMOOTH",
"277 924 OFFCURVE",
"256 904 OFFCURVE",
"247 852 CURVE SMOOTH",
"238 800 OFFCURVE",
"252 780 OFFCURVE",
"297 780 CURVE SMOOTH",
"550 780 LINE",
"467 307 LINE SMOOTH",
"462 280 OFFCURVE",
"460 254 OFFCURVE",
"460 229 CURVE SMOOTH",
"460 73 OFFCURVE",
"556 -22 OFFCURVE",
"729 -22 CURVE SMOOTH",
"819 -22 OFFCURVE",
"910 -7 OFFCURVE",
"990 15 CURVE SMOOTH",
"1033 27 OFFCURVE",
"1047 55 OFFCURVE",
"1037 105 CURVE SMOOTH",
"1027 153 OFFCURVE",
"1001 170 OFFCURVE",
"962 158 CURVE SMOOTH",
"893 137 OFFCURVE",
"815 124 OFFCURVE",
"744 124 CURVE SMOOTH",
"651 124 OFFCURVE",
"610 160 OFFCURVE",
"610 244 CURVE SMOOTH",
"610 263 OFFCURVE",
"613 286 OFFCURVE",
"617 310 CURVE SMOOTH",
"713 856 LINE SMOOTH",
"722 906 OFFCURVE",
"705 924 OFFCURVE",
"660 924 CURVE SMOOTH"
);
},
{
closed = 1;
nodes = (
"632 1363 OFFCURVE",
"609 1344 OFFCURVE",
"601 1298 CURVE SMOOTH",
"578 1168 LINE SMOOTH",
"570 1122 OFFCURVE",
"586 1103 OFFCURVE",
"662 1103 CURVE SMOOTH",
"738 1103 OFFCURVE",
"760 1122 OFFCURVE",
"768 1168 CURVE SMOOTH",
"791 1298 LINE SMOOTH",
"799 1344 OFFCURVE",
"784 1363 OFFCURVE",
"708 1363 CURVE SMOOTH"
);
}
);
width = 1228;
}
);
unicode = 0069;
},
{
glyphname = dotlessi;
lastChange = "2015-01-13 03:26:25 +0000";
layers = (
{
layerId = UUID0;
name = "Regular Italic";
paths = (
{
closed = 1;
nodes = (
"322 924 LINE SMOOTH",
"277 924 OFFCURVE",
"256 904 OFFCURVE",
"247 852 CURVE SMOOTH",
"238 800 OFFCURVE",
"252 780 OFFCURVE",
"297 780 CURVE SMOOTH",
"550 780 LINE",
"467 307 LINE SMOOTH",
"462 280 OFFCURVE",
"460 254 OFFCURVE",
"460 229 CURVE SMOOTH",
"460 73 OFFCURVE",
"556 -22 OFFCURVE",
"729 -22 CURVE SMOOTH",
"819 -22 OFFCURVE",
"910 -7 OFFCURVE",
"990 15 CURVE SMOOTH",
"1033 27 OFFCURVE",
"1047 55 OFFCURVE",
"1037 105 CURVE SMOOTH",
"1027 153 OFFCURVE",
"1001 170 OFFCURVE",
"962 158 CURVE SMOOTH",
"893 137 OFFCURVE",
"815 124 OFFCURVE",
"744 124 CURVE SMOOTH",
"651 124 OFFCURVE",
"610 160 OFFCURVE",
"610 244 CURVE SMOOTH",
"610 263 OFFCURVE",
"613 286 OFFCURVE",
"617 310 CURVE SMOOTH",
"713 856 LINE SMOOTH",
"722 906 OFFCURVE",
"705 924 OFFCURVE",
"660 924 CURVE SMOOTH"
);
}
);
width = 1228;
}
);
unicode = 0131;
},
{
glyphname = ij;
lastChange = "2015-01-12 05:49:59 +0000";
layers = (
{
layerId = UUID0;
name = "Regular Italic";
paths = (
{
closed = 1;
nodes = (
"1004 934 LINE SMOOTH",
"951 934 OFFCURVE",
"927 915 OFFCURVE",
"919 869 CURVE SMOOTH",
"758 -44 LINE SMOOTH",
"732 -191 OFFCURVE",
"676 -264 OFFCURVE",
"542 -264 CURVE SMOOTH",
"467 -264 OFFCURVE",
"383 -240 OFFCURVE",
"307 -199 CURVE SMOOTH",
"278 -183 OFFCURVE",
"247 -189 OFFCURVE",
"223 -242 CURVE SMOOTH",
"200 -293 OFFCURVE",
"212 -319 OFFCURVE",
"244 -337 CURVE SMOOTH",
"327 -384 OFFCURVE",
"428 -410 OFFCURVE",
"526 -410 CURVE SMOOTH",
"758 -410 OFFCURVE",
"866 -286 OFFCURVE",
"906 -57 CURVE SMOOTH",
"1069 869 LINE SMOOTH",
"1077 915 OFFCURVE",
"1062 934 OFFCURVE",
"1006 934 CURVE SMOOTH"
);
},
{
closed = 1;
nodes = (
"410 934 LINE SMOOTH",
"357 934 OFFCURVE",
"333 915 OFFCURVE",
"325 869 CURVE SMOOTH",
"181 55 LINE SMOOTH",
"173 9 OFFCURVE",
"188 -10 OFFCURVE",
"244 -10 CURVE SMOOTH",
"246 -10 LINE SMOOTH",
"299 -10 OFFCURVE",
"323 9 OFFCURVE",
"331 55 CURVE SMOOTH",
"475 869 LINE SMOOTH",
"483 915 OFFCURVE",
"468 934 OFFCURVE",
"412 934 CURVE SMOOTH"
);
},
{
closed = 1;
nodes = (
"401 1363 OFFCURVE",
"378 1344 OFFCURVE",
"370 1298 CURVE SMOOTH",
"347 1168 LINE SMOOTH",
"339 1122 OFFCURVE",
"355 1103 OFFCURVE",
"431 1103 CURVE SMOOTH",
"507 1103 OFFCURVE",
"529 1122 OFFCURVE",
"537 1168 CURVE SMOOTH",
"560 1298 LINE SMOOTH",
"568 1344 OFFCURVE",
"553 1363 OFFCURVE",
"477 1363 CURVE SMOOTH"
);
},
{
closed = 1;
nodes = (
"995 1363 OFFCURVE",
"972 1344 OFFCURVE",
"964 1298 CURVE SMOOTH",
"941 1168 LINE SMOOTH",
"933 1122 OFFCURVE",
"949 1103 OFFCURVE",
"1025 1103 CURVE SMOOTH",
"1101 1103 OFFCURVE",
"1123 1122 OFFCURVE",
"1131 1168 CURVE SMOOTH",
"1154 1298 LINE SMOOTH",
"1162 1344 OFFCURVE",
"1147 1363 OFFCURVE",
"1071 1363 CURVE SMOOTH"
);
}
);
width = 1228;
}
);
unicode = 0133;
},
{
glyphname = j;
lastChange = "2015-01-12 05:49:59 +0000";
layers = (
{
layerId = UUID0;
name = "Regular Italic";
paths = (
{
closed = 1;
nodes = (
"422 924 LINE SMOOTH",
"377 924 OFFCURVE",
"356 904 OFFCURVE",
"347 852 CURVE SMOOTH",
"338 800 OFFCURVE",
"352 780 OFFCURVE",
"397 780 CURVE SMOOTH",
"820 780 LINE",
"675 -44 LINE SMOOTH",
"649 -191 OFFCURVE",
"593 -264 OFFCURVE",
"459 -264 CURVE SMOOTH",
"366 -264 OFFCURVE",
"269 -223 OFFCURVE",
"191 -167 CURVE SMOOTH",
"164 -147 OFFCURVE",
"130 -148 OFFCURVE",
"100 -199 CURVE SMOOTH",
"70 -250 OFFCURVE",
"82 -276 OFFCURVE",
"111 -297 CURVE SMOOTH",
"200 -360 OFFCURVE",
"328 -410 OFFCURVE",
"443 -410 CURVE SMOOTH",
"675 -410 OFFCURVE",
"783 -286 OFFCURVE",
"823 -57 CURVE SMOOTH",
"983 856 LINE SMOOTH",
"992 906 OFFCURVE",
"977 924 OFFCURVE",
"932 924 CURVE SMOOTH"
);
},
{
closed = 1;
nodes = (
"902 1363 OFFCURVE",
"879 1344 OFFCURVE",
"871 1298 CURVE SMOOTH",
"848 1168 LINE SMOOTH",
"840 1122 OFFCURVE",
"856 1103 OFFCURVE",
"932 1103 CURVE SMOOTH",
"1008 1103 OFFCURVE",
"1030 1122 OFFCURVE",
"1038 1168 CURVE SMOOTH",
"1061 1298 LINE SMOOTH",
"1069 1344 OFFCURVE",
"1054 1363 OFFCURVE",
"978 1363 CURVE SMOOTH"
);
}
);
width = 1228;
}
);
unicode = 006A;
},
{
glyphname = dotlessj;
lastChange = "2015-01-12 05:49:59 +0000";
layers = (
{
layerId = UUID0;
name = "Regular Italic";
paths = (
{
closed = 1;
nodes = (
"422 924 LINE SMOOTH",
"377 924 OFFCURVE",
"356 904 OFFCURVE",
"347 852 CURVE SMOOTH",
"338 800 OFFCURVE",
"352 780 OFFCURVE",
"397 780 CURVE SMOOTH",
"820 780 LINE",
"675 -44 LINE SMOOTH",
"649 -191 OFFCURVE",
"593 -264 OFFCURVE",
"459 -264 CURVE SMOOTH",
"366 -264 OFFCURVE",
"269 -223 OFFCURVE",
"191 -167 CURVE SMOOTH",
"164 -147 OFFCURVE",
"130 -148 OFFCURVE",
"100 -199 CURVE SMOOTH",
"70 -250 OFFCURVE",
"82 -276 OFFCURVE",
"111 -297 CURVE SMOOTH",
"200 -360 OFFCURVE",
"328 -410 OFFCURVE",
"443 -410 CURVE SMOOTH",
"675 -410 OFFCURVE",
"783 -286 OFFCURVE",
"823 -57 CURVE SMOOTH",
"983 856 LINE SMOOTH",
"992 906 OFFCURVE",
"977 924 OFFCURVE",
"932 924 CURVE SMOOTH"
);
}
);
width = 1228;
}
);
unicode = 0237;
},
{
glyphname = k;
lastChange = "2015-01-12 05:49:59 +0000";
layers = (
{
layerId = UUID0;
name = "Regular Italic";
paths = (
{
closed = 1;
nodes = (
"468 1322 LINE SMOOTH",
"415 1322 OFFCURVE",
"391 1303 OFFCURVE",
"383 1257 CURVE SMOOTH",
"171 55 LINE SMOOTH",
"163 9 OFFCURVE",
"178 -10 OFFCURVE",
"234 -10 CURVE SMOOTH",
"236 -10 LINE SMOOTH",
"289 -10 OFFCURVE",
"313 9 OFFCURVE",
"321 55 CURVE SMOOTH",
"533 1257 LINE SMOOTH",
"541 1303 OFFCURVE",
"526 1322 OFFCURVE",
"470 1322 CURVE SMOOTH"
);
},
{
closed = 1;
nodes = (
"1055 951 OFFCURVE",
"1020 946 OFFCURVE",
"991 924 CURVE SMOOTH",
"333 416 LINE",
"344 248 LINE",
"1111 833 LINE SMOOTH",
"1151 864 OFFCURVE",
"1140 895 OFFCURVE",
"1096 924 CURVE SMOOTH"
);
},
{
closed = 1;
nodes = (
"555 453 LINE",
"878 11 LINE SMOOTH",
"898 -16 OFFCURVE",
"924 -24 OFFCURVE",
"976 5 CURVE SMOOTH",
"1025 32 OFFCURVE",
"1034 57 OFFCURVE",
"1009 91 CURVE SMOOTH",
"685 529 LINE"
);
}
);
width = 1228;
}
);
unicode = 006B;
},
{
glyphname = l;
lastChange = "2015-01-13 03:25:55 +0000";
layers = (
{
background = {
paths = (
{
closed = 1;
nodes = (
"351 1312 LINE SMOOTH",
"306 1312 OFFCURVE",
"284 1292 OFFCURVE",
"275 1240 CURVE SMOOTH",
"266 1188 OFFCURVE",
"280 1168 OFFCURVE",
"325 1168 CURVE SMOOTH",
"598 1168 LINE",
"447 307 LINE SMOOTH",
"442 280 OFFCURVE",
"440 253 OFFCURVE",
"440 229 CURVE SMOOTH",
"440 73 OFFCURVE",
"536 -22 OFFCURVE",
"709 -22 CURVE SMOOTH",
"806 -22 OFFCURVE",
"907 7 OFFCURVE",
"1009 65 CURVE SMOOTH",
"1046 86 OFFCURVE",
"1057 113 OFFCURVE",
"1039 161 CURVE SMOOTH",
"1021 208 OFFCURVE",
"989 220 OFFCURVE",
"956 200 CURVE SMOOTH",
"874 149 OFFCURVE",
"801 124 OFFCURVE",
"724 124 CURVE SMOOTH",
"632 124 OFFCURVE",
"590 160 OFFCURVE",
"590 243 CURVE SMOOTH",
"590 263 OFFCURVE",
"593 285 OFFCURVE",
"597 310 CURVE SMOOTH",
"762 1244 LINE SMOOTH",
"771 1294 OFFCURVE",
"754 1312 OFFCURVE",
"709 1312 CURVE SMOOTH"
);
}
);
};
layerId = UUID0;
name = "Regular Italic";
paths = (
{
closed = 1;
nodes = (
"351 1312 LINE SMOOTH",
"306 1312 OFFCURVE",
"284 1292 OFFCURVE",
"275 1240 CURVE SMOOTH",
"266 1188 OFFCURVE",
"280 1168 OFFCURVE",
"325 1168 CURVE SMOOTH",
"598 1168 LINE",
"447 307 LINE SMOOTH",
"442 280 OFFCURVE",
"440 253 OFFCURVE",
"440 229 CURVE SMOOTH",
"440 73 OFFCURVE",
"536 -22 OFFCURVE",
"709 -22 CURVE SMOOTH",
"799 -22 OFFCURVE",
"890 -7 OFFCURVE",
"970 15 CURVE SMOOTH",
"1013 27 OFFCURVE",
"1027 55 OFFCURVE",
"1017 105 CURVE SMOOTH",
"1007 153 OFFCURVE",
"981 170 OFFCURVE",
"942 158 CURVE SMOOTH",
"873 137 OFFCURVE",
"795 124 OFFCURVE",
"724 124 CURVE SMOOTH",
"632 124 OFFCURVE",
"590 160 OFFCURVE",
"590 243 CURVE SMOOTH",
"590 263 OFFCURVE",
"593 285 OFFCURVE",
"597 310 CURVE SMOOTH",
"762 1244 LINE SMOOTH",
"771 1294 OFFCURVE",
"754 1312 OFFCURVE",
"709 1312 CURVE SMOOTH"
);
}
);
width = 1228;
}
);
unicode = 006C;
},
{
color = 9;
glyphname = lcaron;
lastChange = "2015-01-12 05:49:59 +0000";
layers = (
{
background = {
paths = (
{
closed = 1;
nodes = (
"1245 1261 LINE SMOOTH",
"1265 1290 OFFCURVE",
"1258 1312 OFFCURVE",
"1231 1312 CURVE SMOOTH",
"1078 1312 LINE SMOOTH",
"1055 1312 OFFCURVE",
"1038 1301 OFFCURVE",
"1030 1280 CURVE SMOOTH",
"889 918 LINE SMOOTH",
"876 883 OFFCURVE",
"893 862 OFFCURVE",
"931 862 CURVE SMOOTH",
"960 862 OFFCURVE",
"983 874 OFFCURVE",
"999 897 CURVE SMOOTH"
);
},
{
closed = 1;
nodes = (
"598 1168 LINE",
"447 307 LINE SMOOTH",
"442 280 OFFCURVE",
"440 253 OFFCURVE",
"440 229 CURVE SMOOTH",
"440 73 OFFCURVE",
"536 -22 OFFCURVE",
"709 -22 CURVE SMOOTH",
"806 -22 OFFCURVE",
"907 7 OFFCURVE",
"1009 65 CURVE SMOOTH",
"1046 86 OFFCURVE",
"1057 113 OFFCURVE",
"1039 161 CURVE SMOOTH",
"1021 208 OFFCURVE",
"989 220 OFFCURVE",
"956 200 CURVE SMOOTH",
"874 149 OFFCURVE",
"801 124 OFFCURVE",
"724 124 CURVE SMOOTH",
"632 124 OFFCURVE",
"590 160 OFFCURVE",
"590 243 CURVE SMOOTH",
"590 263 OFFCURVE",
"593 285 OFFCURVE",
"597 310 CURVE SMOOTH",
"762 1244 LINE SMOOTH",
"771 1294 OFFCURVE",
"754 1312 OFFCURVE",
"709 1312 CURVE SMOOTH",
"351 1312 LINE SMOOTH",
"306 1312 OFFCURVE",
"284 1292 OFFCURVE",
"275 1240 CURVE SMOOTH",
"266 1188 OFFCURVE",
"280 1168 OFFCURVE",
"325 1168 CURVE SMOOTH"
);
}
);
};
components = (
{
disableAlignment = 1;
name = l;
transform = "{1, 0, 0, 1, -30, 0}";
},
{
name = caron.alt;
transform = "{1, 0, 0, 1, 547, 0}";
}
);
layerId = UUID0;
name = "Regular Italic";
width = 1228;
}
);
unicode = 013E;
},
{
color = 9;
glyphname = ldot;
lastChange = "2015-01-12 05:49:59 +0000";
layers = (
{
background = {
paths = (
{
closed = 1;
nodes = (
"598 1168 LINE",
"447 307 LINE SMOOTH",
"442 280 OFFCURVE",
"440 253 OFFCURVE",
"440 229 CURVE SMOOTH",
"440 73 OFFCURVE",
"536 -22 OFFCURVE",
"709 -22 CURVE SMOOTH",
"806 -22 OFFCURVE",
"907 7 OFFCURVE",
"1009 65 CURVE SMOOTH",
"1046 86 OFFCURVE",
"1057 113 OFFCURVE",
"1039 161 CURVE SMOOTH",
"1021 208 OFFCURVE",
"989 220 OFFCURVE",
"956 200 CURVE SMOOTH",
"874 149 OFFCURVE",
"801 124 OFFCURVE",
"724 124 CURVE SMOOTH",
"632 124 OFFCURVE",
"590 160 OFFCURVE",
"590 243 CURVE SMOOTH",
"590 263 OFFCURVE",
"593 285 OFFCURVE",
"597 310 CURVE SMOOTH",
"762 1244 LINE SMOOTH",
"771 1294 OFFCURVE",
"754 1312 OFFCURVE",
"709 1312 CURVE SMOOTH",
"351 1312 LINE SMOOTH",
"306 1312 OFFCURVE",
"284 1292 OFFCURVE",
"275 1240 CURVE SMOOTH",
"266 1188 OFFCURVE",
"280 1168 OFFCURVE",
"325 1168 CURVE SMOOTH"
);
},
{
closed = 1;
nodes = (
"1024 579 OFFCURVE",
"1103 651 OFFCURVE",
"1103 741 CURVE SMOOTH",
"1103 806 OFFCURVE",
"1053 861 OFFCURVE",
"982 861 CURVE SMOOTH",
"898 861 OFFCURVE",
"817 789 OFFCURVE",
"817 700 CURVE SMOOTH",
"817 633 OFFCURVE",
"868 579 OFFCURVE",
"939 579 CURVE SMOOTH"
);
}
);
};
components = (
{
disableAlignment = 1;
name = l;
transform = "{1, 0, 0, 1, -30, 0}";
},
{
disableAlignment = 1;
name = dotaccent;
transform = "{1, 0, 0, 1, 202, -500}";
}
);
layerId = UUID0;
name = "Regular Italic";
width = 1228;
}
);
unicode = 0140;
},
{
color = 6;
glyphname = lslash;
lastChange = "2015-01-12 05:49:59 +0000";
layers = (
{
components = (
{
name = l;
transform = "{1, 0, 0, 1, 0, 0}";
}
);
layerId = UUID0;
name = "Regular Italic";
paths = (
{
closed = 1;
nodes = (
"275 550 LINE SMOOTH",
"238 525 OFFCURVE",
"233 500 OFFCURVE",
"261 459 CURVE SMOOTH",
"289 417 OFFCURVE",
"315 413 OFFCURVE",
"352 438 CURVE SMOOTH",
"921 825 LINE SMOOTH",
"958 850 OFFCURVE",
"963 875 OFFCURVE",
"935 916 CURVE SMOOTH",
"907 958 OFFCURVE",
"881 962 OFFCURVE",
"844 937 CURVE SMOOTH"
);
}
);
width = 1228;
}
);
unicode = 0142;
},
{
glyphname = m;
lastChange = "2015-01-12 05:49:59 +0000";
layers = (
{
layerId = UUID0;
name = "Regular Italic";
paths = (
{
closed = 1;
nodes = (
"899 946 OFFCURVE",
"802 889 OFFCURVE",
"726 765 CURVE",
"720 884 OFFCURVE",
"655 946 OFFCURVE",
"568 946 CURVE SMOOTH",
"486 946 OFFCURVE",
"390 886 OFFCURVE",
"314 757 CURVE",
"334 869 LINE SMOOTH",
"342 915 OFFCURVE",
"329 934 OFFCURVE",
"279 934 CURVE SMOOTH",
"277 934 LINE SMOOTH",
"227 934 OFFCURVE",
"212 915 OFFCURVE",
"204 869 CURVE SMOOTH",
"60 55 LINE SMOOTH",
"52 9 OFFCURVE",
"67 -10 OFFCURVE",
"123 -10 CURVE SMOOTH",
"125 -10 LINE SMOOTH",
"178 -10 OFFCURVE",
"202 9 OFFCURVE",
"210 55 CURVE SMOOTH",
"277 437 LINE SMOOTH",
"312 639 OFFCURVE",
"420 798 OFFCURVE",
"515 798 CURVE SMOOTH",
"568 798 OFFCURVE",
"591 768 OFFCURVE",
"591 712 CURVE SMOOTH",
"591 696 OFFCURVE",
"589 679 OFFCURVE",
"586 660 CURVE SMOOTH",
"479 55 LINE SMOOTH",
"471 9 OFFCURVE",
"486 -10 OFFCURVE",
"542 -10 CURVE SMOOTH",
"544 -10 LINE SMOOTH",
"597 -10 OFFCURVE",
"621 9 OFFCURVE",
"629 55 CURVE SMOOTH",
"696 437 LINE SMOOTH",
"731 639 OFFCURVE",
"839 798 OFFCURVE",
"934 798 CURVE SMOOTH",
"987 798 OFFCURVE",
"1010 768 OFFCURVE",
"1010 712 CURVE SMOOTH",
"1010 697 OFFCURVE",
"1008 679 OFFCURVE",
"1005 660 CURVE SMOOTH",
"898 55 LINE SMOOTH",
"890 9 OFFCURVE",
"905 -10 OFFCURVE",
"961 -10 CURVE SMOOTH",
"963 -10 LINE SMOOTH",
"1016 -10 OFFCURVE",
"1040 9 OFFCURVE",
"1048 55 CURVE SMOOTH",
"1156 668 LINE SMOOTH",
"1161 694 OFFCURVE",
"1163 718 OFFCURVE",
"1163 740 CURVE SMOOTH",
"1163 873 OFFCURVE",
"1084 946 OFFCURVE",
"985 946 CURVE SMOOTH"
);
}
);
width = 1228;
}
);
unicode = 006D;
},
{
glyphname = n;
lastChange = "2015-01-12 05:49:59 +0000";
layers = (
{
layerId = UUID0;
name = "Regular Italic";
paths = (
{
closed = 1;
nodes = (
"667 946 OFFCURVE",
"507 850 OFFCURVE",
"398 716 CURVE",
"425 869 LINE SMOOTH",
"433 915 OFFCURVE",
"418 934 OFFCURVE",
"365 934 CURVE SMOOTH",
"363 934 LINE SMOOTH",
"310 934 OFFCURVE",
"293 915 OFFCURVE",
"285 869 CURVE SMOOTH",
"141 55 LINE SMOOTH",
"133 9 OFFCURVE",
"148 -10 OFFCURVE",
"204 -10 CURVE SMOOTH",
"206 -10 LINE SMOOTH",
"259 -10 OFFCURVE",
"283 9 OFFCURVE",
"291 55 CURVE SMOOTH",
"351 392 LINE SMOOTH",
"391 620 OFFCURVE",
"611 798 OFFCURVE",
"782 798 CURVE SMOOTH",
"887 798 OFFCURVE",
"935 744 OFFCURVE",
"935 659 CURVE SMOOTH",
"935 642 OFFCURVE",
"933 624 OFFCURVE",
"930 605 CURVE SMOOTH",
"833 55 LINE SMOOTH",
"825 9 OFFCURVE",
"840 -10 OFFCURVE",
"896 -10 CURVE SMOOTH",
"898 -10 LINE SMOOTH",
"951 -10 OFFCURVE",
"975 9 OFFCURVE",
"983 55 CURVE SMOOTH",
"1081 610 LINE SMOOTH",
"1086 637 OFFCURVE",
"1088 662 OFFCURVE",
"1088 686 CURVE SMOOTH",
"1088 844 OFFCURVE",
"985 946 OFFCURVE",
"813 946 CURVE SMOOTH"
);
}
);
width = 1228;
}
);
unicode = 006E;
},
{
color = 3;
glyphname = eng;
lastChange = "2015-01-12 05:49:59 +0000";
layers = (
{
background = {
components = (
{
name = n;
transform = "{1, 0, 0, 1, 0, 0}";
}
);
paths = (
{
closed = 1;
nodes = (
"858 198 LINE",
"804 -107 LINE SMOOTH",
"784 -220 OFFCURVE",
"730 -264 OFFCURVE",
"648 -264 CURVE SMOOTH",
"588 -264 OFFCURVE",
"527 -246 OFFCURVE",
"478 -224 CURVE SMOOTH",
"451 -212 OFFCURVE",
"417 -219 OFFCURVE",
"395 -266 CURVE SMOOTH",
"371 -317 OFFCURVE",
"380 -343 OFFCURVE",
"415 -360 CURVE SMOOTH",
"478 -390 OFFCURVE",
"557 -410 OFFCURVE",
"637 -410 CURVE SMOOTH",
"813 -410 OFFCURVE",
"917 -314 OFFCURVE",
"949 -135 CURVE SMOOTH",
"1008 198 LINE"
);
}
);
};
layerId = UUID0;
name = "Regular Italic";
paths = (
{
closed = 1;
nodes = (
"667 946 OFFCURVE",
"507 850 OFFCURVE",
"398 716 CURVE",
"425 869 LINE SMOOTH",
"433 915 OFFCURVE",
"418 934 OFFCURVE",
"365 934 CURVE SMOOTH",
"363 934 LINE SMOOTH",
"310 934 OFFCURVE",
"293 915 OFFCURVE",
"285 869 CURVE SMOOTH",
"141 55 LINE SMOOTH",
"133 9 OFFCURVE",
"148 -10 OFFCURVE",
"204 -10 CURVE SMOOTH",
"206 -10 LINE SMOOTH",
"259 -10 OFFCURVE",
"283 9 OFFCURVE",
"291 55 CURVE SMOOTH",
"351 392 LINE SMOOTH",
"391 620 OFFCURVE",
"611 798 OFFCURVE",
"782 798 CURVE SMOOTH",
"887 798 OFFCURVE",
"935 744 OFFCURVE",
"935 659 CURVE SMOOTH",
"935 642 OFFCURVE",
"933 624 OFFCURVE",
"930 605 CURVE SMOOTH",
"804 -107 LINE SMOOTH",
"784 -220 OFFCURVE",
"730 -264 OFFCURVE",
"648 -264 CURVE SMOOTH",
"588 -264 OFFCURVE",
"527 -246 OFFCURVE",
"478 -224 CURVE SMOOTH",
"451 -212 OFFCURVE",
"417 -219 OFFCURVE",
"395 -266 CURVE SMOOTH",
"371 -317 OFFCURVE",
"380 -343 OFFCURVE",
"415 -360 CURVE SMOOTH",
"478 -390 OFFCURVE",
"557 -410 OFFCURVE",
"637 -410 CURVE SMOOTH",
"813 -410 OFFCURVE",
"917 -314 OFFCURVE",
"949 -135 CURVE SMOOTH",
"1081 610 LINE SMOOTH",
"1086 637 OFFCURVE",
"1088 662 OFFCURVE",
"1088 686 CURVE SMOOTH",
"1088 844 OFFCURVE",
"985 946 OFFCURVE",
"813 946 CURVE SMOOTH"
);
}
);
width = 1228;
}
);
unicode = 014B;
},
{
glyphname = o;
lastChange = "2015-01-14 20:32:59 +0000";
layers = (
{
background = {
paths = (
{
closed = 1;
nodes = (
"357 946 OFFCURVE",
"130 679 OFFCURVE",
"130 386 CURVE SMOOTH",
"130 150 OFFCURVE",
"299 -22 OFFCURVE",
"550 -22 CURVE SMOOTH",
"893 -22 OFFCURVE",
"1120 245 OFFCURVE",
"1120 538 CURVE SMOOTH",
"1120 774 OFFCURVE",
"951 946 OFFCURVE",
"700 946 CURVE SMOOTH"
);
},
{
closed = 1;
nodes = (
"860 798 OFFCURVE",
"967 689 OFFCURVE",
"967 530 CURVE SMOOTH",
"967 317 OFFCURVE",
"801 126 OFFCURVE",
"566 126 CURVE SMOOTH",
"390 126 OFFCURVE",
"283 235 OFFCURVE",
"283 394 CURVE SMOOTH",
"283 607 OFFCURVE",
"449 798 OFFCURVE",
"684 798 CURVE SMOOTH"
);
}
);
};
layerId = UUID0;
name = "Regular Italic";
paths = (
{
closed = 1;
nodes = (
"359 946 OFFCURVE",
"140 679 OFFCURVE",
"140 386 CURVE SMOOTH",
"140 150 OFFCURVE",
"309 -22 OFFCURVE",
"560 -22 CURVE SMOOTH",
"891 -22 OFFCURVE",
"1110 245 OFFCURVE",
"1110 538 CURVE SMOOTH",
"1110 774 OFFCURVE",
"941 946 OFFCURVE",
"690 946 CURVE SMOOTH"
);
},
{
closed = 1;
nodes = (
"854 798 OFFCURVE",
"957 689 OFFCURVE",
"957 530 CURVE SMOOTH",
"957 317 OFFCURVE",
"799 126 OFFCURVE",
"576 126 CURVE SMOOTH",
"396 126 OFFCURVE",
"293 235 OFFCURVE",
"293 394 CURVE SMOOTH",
"293 607 OFFCURVE",
"451 798 OFFCURVE",
"674 798 CURVE SMOOTH"
);
}
);
width = 1228;
}
);
unicode = 006F;
},
{
color = 6;
glyphname = oslash;
lastChange = "2015-01-12 05:49:59 +0000";
layers = (
{
background = {
paths = (
{
closed = 1;
nodes = (
"51 71 LINE SMOOTH",
"12 39 OFFCURVE",
"8 11 OFFCURVE",
"36 -24 CURVE SMOOTH",
"64 -59 OFFCURVE",
"91 -61 OFFCURVE",
"130 -29 CURVE SMOOTH",
"1199 852 LINE SMOOTH",
"1239 884 OFFCURVE",
"1243 913 OFFCURVE",
"1215 948 CURVE SMOOTH",
"1187 983 OFFCURVE",
"1159 985 OFFCURVE",
"1120 953 CURVE SMOOTH"
);
}
);
};
components = (
{
name = o;
transform = "{1, 0, 0, 1, 0, 0}";
}
);
layerId = UUID0;
name = "Regular Italic";
paths = (
{
closed = 1;
nodes = (
"55 81 LINE SMOOTH",
"16 49 OFFCURVE",
"19 22 OFFCURVE",
"49 -13 CURVE SMOOTH",
"79 -47 OFFCURVE",
"112 -51 OFFCURVE",
"151 -19 CURVE SMOOTH",
"1193 842 LINE SMOOTH",
"1232 874 OFFCURVE",
"1231 902 OFFCURVE",
"1201 937 CURVE SMOOTH",
"1171 971 OFFCURVE",
"1137 975 OFFCURVE",
"1098 943 CURVE SMOOTH"
);
}
);
width = 1228;
}
);
unicode = 00F8;
},
{
glyphname = oe;
lastChange = "2015-01-12 05:49:59 +0000";
layers = (
{
layerId = UUID0;
name = "Regular Italic";
paths = (
{
closed = 1;
nodes = (
"843 946 OFFCURVE",
"751 904 OFFCURVE",
"675 806 CURVE",
"642 897 OFFCURVE",
"574 946 OFFCURVE",
"468 946 CURVE SMOOTH",
"339 946 OFFCURVE",
"241 878 OFFCURVE",
"173 753 CURVE SMOOTH",
"104 626 OFFCURVE",
"66 430 OFFCURVE",
"66 299 CURVE SMOOTH",
"66 94 OFFCURVE",
"152 -22 OFFCURVE",
"318 -22 CURVE SMOOTH",
"423 -22 OFFCURVE",
"508 26 OFFCURVE",
"573 116 CURVE",
"612 22 OFFCURVE",
"686 -22 OFFCURVE",
"789 -22 CURVE SMOOTH",
"884 -22 OFFCURVE",
"970 14 OFFCURVE",
"1056 84 CURVE SMOOTH",
"1094 114 OFFCURVE",
"1105 149 OFFCURVE",
"1080 187 CURVE SMOOTH",
"1056 225 OFFCURVE",
"1017 226 OFFCURVE",
"988 201 CURVE SMOOTH",
"922 147 OFFCURVE",
"868 123 OFFCURVE",
"804 123 CURVE SMOOTH",
"734 123 OFFCURVE",
"684 170 OFFCURVE",
"684 308 CURVE SMOOTH",
"684 345 OFFCURVE",
"688 389 OFFCURVE",
"696 440 CURVE",
"1095 440 LINE SMOOTH",
"1140 440 OFFCURVE",
"1162 457 OFFCURVE",
"1169 502 CURVE SMOOTH",
"1177 554 OFFCURVE",
"1181 602 OFFCURVE",
"1181 647 CURVE SMOOTH",
"1181 831 OFFCURVE",
"1110 946 OFFCURVE",
"939 946 CURVE SMOOTH"
);
},
{
closed = 1;
nodes = (
"527 798 OFFCURVE",
"564 746 OFFCURVE",
"564 630 CURVE SMOOTH",
"564 524 OFFCURVE",
"533 358 OFFCURVE",
"496 268 CURVE SMOOTH",
"456 170 OFFCURVE",
"403 126 OFFCURVE",
"334 126 CURVE SMOOTH",
"259 126 OFFCURVE",
"221 178 OFFCURVE",
"221 294 CURVE SMOOTH",
"221 400 OFFCURVE",
"252 566 OFFCURVE",
"289 656 CURVE SMOOTH",
"329 754 OFFCURVE",
"383 798 OFFCURVE",
"452 798 CURVE SMOOTH"
);
},
{
closed = 1;
nodes = (
"1001 801 OFFCURVE",
"1031 745 OFFCURVE",
"1031 649 CURVE SMOOTH",
"1031 628 OFFCURVE",
"1029 605 OFFCURVE",
"1026 580 CURVE",
"726 580 LINE",
"770 739 OFFCURVE",
"834 801 OFFCURVE",
"926 801 CURVE SMOOTH"
);
}
);
width = 1228;
}
);
unicode = 0153;
},
{
glyphname = p;
lastChange = "2015-01-12 05:49:59 +0000";
layers = (
{
layerId = UUID0;
name = "Regular Italic";
paths = (
{
closed = 1;
nodes = (
"617 946 OFFCURVE",
"501 893 OFFCURVE",
"401 790 CURVE",
"415 869 LINE SMOOTH",
"423 915 OFFCURVE",
"408 934 OFFCURVE",
"355 934 CURVE SMOOTH",
"353 934 LINE SMOOTH",
"300 934 OFFCURVE",
"283 915 OFFCURVE",
"275 869 CURVE SMOOTH",
"63 -333 LINE SMOOTH",
"55 -379 OFFCURVE",
"70 -398 OFFCURVE",
"126 -398 CURVE SMOOTH",
"128 -398 LINE SMOOTH",
"181 -398 OFFCURVE",
"205 -379 OFFCURVE",
"213 -333 CURVE SMOOTH",
"307 200 LINE",
"292 156 LINE",
"354 44 OFFCURVE",
"458 -22 OFFCURVE",
"595 -22 CURVE SMOOTH",
"948 -22 OFFCURVE",
"1107 299 OFFCURVE",
"1107 558 CURVE SMOOTH",
"1107 797 OFFCURVE",
"960 946 OFFCURVE",
"745 946 CURVE SMOOTH"
);
},
{
closed = 1;
nodes = (
"872 798 OFFCURVE",
"954 698 OFFCURVE",
"954 549 CURVE SMOOTH",
"954 343 OFFCURVE",
"826 126 OFFCURVE",
"601 126 CURVE SMOOTH",
"447 126 OFFCURVE",
"346 219 OFFCURVE",
"346 383 CURVE SMOOTH",
"346 589 OFFCURVE",
"482 798 OFFCURVE",
"719 798 CURVE SMOOTH"
);
}
);
width = 1228;
}
);
unicode = 0070;
},
{
glyphname = thorn;
lastChange = "2015-01-12 05:49:59 +0000";
layers = (
{
layerId = UUID0;
name = "Regular Italic";
paths = (
{
closed = 1;
nodes = (
"428 1322 LINE SMOOTH",
"375 1322 OFFCURVE",
"351 1303 OFFCURVE",
"343 1257 CURVE SMOOTH",
"63 -333 LINE SMOOTH",
"55 -379 OFFCURVE",
"70 -398 OFFCURVE",
"126 -398 CURVE SMOOTH",
"128 -398 LINE SMOOTH",
"181 -398 OFFCURVE",
"205 -379 OFFCURVE",
"213 -333 CURVE SMOOTH",
"307 200 LINE",
"292 156 LINE",
"354 44 OFFCURVE",
"458 -22 OFFCURVE",
"595 -22 CURVE SMOOTH",
"948 -22 OFFCURVE",
"1107 299 OFFCURVE",
"1107 558 CURVE SMOOTH",
"1107 797 OFFCURVE",
"960 946 OFFCURVE",
"745 946 CURVE SMOOTH",
"622 946 OFFCURVE",
"509 896 OFFCURVE",
"412 801 CURVE",
"493 1257 LINE SMOOTH",
"501 1303 OFFCURVE",
"486 1322 OFFCURVE",
"430 1322 CURVE SMOOTH"
);
},
{
closed = 1;
nodes = (
"872 798 OFFCURVE",
"954 698 OFFCURVE",
"954 549 CURVE SMOOTH",
"954 343 OFFCURVE",
"826 126 OFFCURVE",
"601 126 CURVE SMOOTH",
"447 126 OFFCURVE",
"346 219 OFFCURVE",
"346 383 CURVE SMOOTH",
"346 589 OFFCURVE",
"482 798 OFFCURVE",
"719 798 CURVE SMOOTH"
);
}
);
width = 1228;
}
);
unicode = 00FE;
},
{
glyphname = q;
lastChange = "2015-01-12 05:49:59 +0000";
layers = (
{
layerId = UUID0;
name = "Regular Italic";
paths = (
{
closed = 1;
nodes = (
"302 946 OFFCURVE",
"143 625 OFFCURVE",
"143 366 CURVE SMOOTH",
"143 127 OFFCURVE",
"290 -22 OFFCURVE",
"505 -22 CURVE SMOOTH",
"633 -22 OFFCURVE",
"745 31 OFFCURVE",
"837 122 CURVE",
"757 -333 LINE SMOOTH",
"749 -379 OFFCURVE",
"764 -398 OFFCURVE",
"820 -398 CURVE SMOOTH",
"822 -398 LINE SMOOTH",
"875 -398 OFFCURVE",
"899 -379 OFFCURVE",
"907 -333 CURVE SMOOTH",
"1119 869 LINE SMOOTH",
"1127 915 OFFCURVE",
"1112 934 OFFCURVE",
"1059 934 CURVE SMOOTH",
"1057 934 LINE SMOOTH",
"1004 934 OFFCURVE",
"987 915 OFFCURVE",
"979 869 CURVE SMOOTH",
"960 766 LINE",
"896 880 OFFCURVE",
"792 946 OFFCURVE",
"655 946 CURVE SMOOTH"
);
},
{
closed = 1;
nodes = (
"803 798 OFFCURVE",
"904 705 OFFCURVE",
"904 541 CURVE SMOOTH",
"904 335 OFFCURVE",
"768 126 OFFCURVE",
"531 126 CURVE SMOOTH",
"378 126 OFFCURVE",
"296 226 OFFCURVE",
"296 375 CURVE SMOOTH",
"296 581 OFFCURVE",
"424 798 OFFCURVE",
"649 798 CURVE SMOOTH"
);
}
);
width = 1228;
}
);
unicode = 0071;
},
{
glyphname = r;
lastChange = "2015-01-12 05:49:59 +0000";
layers = (
{
layerId = UUID0;
name = "Regular Italic";
paths = (
{
closed = 1;
nodes = (
"813 946 OFFCURVE",
"638 837 OFFCURVE",
"490 649 CURVE",
"530 869 LINE SMOOTH",
"538 915 OFFCURVE",
"523 934 OFFCURVE",
"470 934 CURVE SMOOTH",
"468 934 LINE SMOOTH",
"415 934 OFFCURVE",
"398 915 OFFCURVE",
"390 869 CURVE SMOOTH",
"246 55 LINE SMOOTH",
"238 9 OFFCURVE",
"253 -10 OFFCURVE",
"309 -10 CURVE SMOOTH",
"311 -10 LINE SMOOTH",
"364 -10 OFFCURVE",
"388 9 OFFCURVE",
"396 55 CURVE SMOOTH",
"434 270 LINE SMOOTH",
"484 554 OFFCURVE",
"732 786 OFFCURVE",
"964 786 CURVE SMOOTH",
"1000 786 OFFCURVE",
"1036 780 OFFCURVE",
"1071 768 CURVE SMOOTH",
"1110 754 OFFCURVE",
"1137 775 OFFCURVE",
"1152 829 CURVE SMOOTH",
"1166 879 OFFCURVE",
"1159 911 OFFCURVE",
"1119 925 CURVE SMOOTH",
"1077 939 OFFCURVE",
"1035 946 OFFCURVE",
"992 946 CURVE SMOOTH"
);
}
);
width = 1228;
}
);
unicode = 0072;
},
{
glyphname = s;
lastChange = "2015-01-12 05:49:59 +0000";
layers = (
{
layerId = UUID0;
name = "Regular Italic";
paths = (
{
closed = 1;
nodes = (
"362 946 OFFCURVE",
"229 799 OFFCURVE",
"229 639 CURVE SMOOTH",
"229 529 OFFCURVE",
"294 465 OFFCURVE",
"385 437 CURVE SMOOTH",
"509 399 OFFCURVE",
"640 408 OFFCURVE",
"763 382 CURVE SMOOTH",
"830 368 OFFCURVE",
"871 338 OFFCURVE",
"871 283 CURVE SMOOTH",
"871 224 OFFCURVE",
"815 123 OFFCURVE",
"603 123 CURVE SMOOTH",
"467 123 OFFCURVE",
"342 155 OFFCURVE",
"243 217 CURVE SMOOTH",
"214 235 OFFCURVE",
"181 234 OFFCURVE",
"151 179 CURVE SMOOTH",
"124 130 OFFCURVE",
"136 99 OFFCURVE",
"170 78 CURVE SMOOTH",
"285 7 OFFCURVE",
"426 -22 OFFCURVE",
"588 -22 CURVE SMOOTH",
"937 -22 OFFCURVE",
"1031 175 OFFCURVE",
"1031 300 CURVE SMOOTH",
"1031 417 OFFCURVE",
"963 482 OFFCURVE",
"870 510 CURVE SMOOTH",
"750 546 OFFCURVE",
"619 539 OFFCURVE",
"498 563 CURVE SMOOTH",
"432 576 OFFCURVE",
"389 603 OFFCURVE",
"389 655 CURVE SMOOTH",
"389 728 OFFCURVE",
"464 801 OFFCURVE",
"629 801 CURVE SMOOTH",
"752 801 OFFCURVE",
"870 774 OFFCURVE",
"968 718 CURVE SMOOTH",
"998 701 OFFCURVE",
"1033 707 OFFCURVE",
"1059 759 CURVE SMOOTH",
"1084 809 OFFCURVE",
"1072 840 OFFCURVE",
"1037 859 CURVE SMOOTH",
"924 920 OFFCURVE",
"784 946 OFFCURVE",
"638 946 CURVE SMOOTH"
);
}
);
width = 1228;
}
);
unicode = 0073;
},
{
glyphname = germandbls;
lastChange = "2015-01-12 05:49:59 +0000";
layers = (
{
layerId = UUID0;
name = "Regular Italic";
paths = (
{
closed = 1;
nodes = (
"520 1317 OFFCURVE",
"369 1162 OFFCURVE",
"331 943 CURVE SMOOTH",
"174 55 LINE SMOOTH",
"166 9 OFFCURVE",
"181 -10 OFFCURVE",
"237 -10 CURVE SMOOTH",
"239 -10 LINE SMOOTH",
"292 -10 OFFCURVE",
"316 9 OFFCURVE",
"324 55 CURVE SMOOTH",
"479 932 LINE SMOOTH",
"505 1078 OFFCURVE",
"600 1172 OFFCURVE",
"738 1172 CURVE SMOOTH",
"867 1172 OFFCURVE",
"933 1112 OFFCURVE",
"933 1014 CURVE SMOOTH",
"933 905 OFFCURVE",
"865 776 OFFCURVE",
"690 759 CURVE SMOOTH",
"645 755 OFFCURVE",
"623 736 OFFCURVE",
"615 688 CURVE SMOOTH",
"606 640 OFFCURVE",
"621 619 OFFCURVE",
"666 619 CURVE SMOOTH",
"801 619 OFFCURVE",
"882 549 OFFCURVE",
"882 422 CURVE SMOOTH",
"882 288 OFFCURVE",
"804 126 OFFCURVE",
"567 126 CURVE SMOOTH",
"521 126 OFFCURVE",
"497 105 OFFCURVE",
"493 55 CURVE SMOOTH",
"488 -4 OFFCURVE",
"502 -22 OFFCURVE",
"570 -22 CURVE SMOOTH",
"930 -22 OFFCURVE",
"1038 248 OFFCURVE",
"1038 418 CURVE SMOOTH",
"1038 547 OFFCURVE",
"974 645 OFFCURVE",
"862 695 CURVE",
"1008 765 OFFCURVE",
"1089 880 OFFCURVE",
"1089 1029 CURVE SMOOTH",
"1089 1192 OFFCURVE",
"975 1317 OFFCURVE",
"753 1317 CURVE SMOOTH"
);
}
);
width = 1228;
}
);
unicode = 00DF;
},
{
glyphname = t;
lastChange = "2015-01-12 05:49:59 +0000";
layers = (
{
layerId = UUID0;
name = "Regular Italic";
paths = (
{
closed = 1;
nodes = (
"543 1209 OFFCURVE",
"522 1190 OFFCURVE",
"514 1144 CURVE SMOOTH",
"373 341 LINE SMOOTH",
"367 304 OFFCURVE",
"363 269 OFFCURVE",
"363 237 CURVE SMOOTH",
"363 72 OFFCURVE",
"452 -22 OFFCURVE",
"646 -22 CURVE SMOOTH",
"764 -22 OFFCURVE",
"904 27 OFFCURVE",
"1015 90 CURVE SMOOTH",
"1052 111 OFFCURVE",
"1063 138 OFFCURVE",
"1045 186 CURVE SMOOTH",
"1027 233 OFFCURVE",
"995 245 OFFCURVE",
"962 225 CURVE SMOOTH",
"865 168 OFFCURVE",
"754 124 OFFCURVE",
"661 124 CURVE SMOOTH",
"555 124 OFFCURVE",
"514 170 OFFCURVE",
"514 261 CURVE SMOOTH",
"514 285 OFFCURVE",
"517 313 OFFCURVE",
"523 344 CURVE SMOOTH",
"664 1144 LINE SMOOTH",
"672 1190 OFFCURVE",
"655 1209 OFFCURVE",
"599 1209 CURVE SMOOTH"
);
},
{
closed = 1;
nodes = (
"258 844 LINE SMOOTH",
"213 844 OFFCURVE",
"192 824 OFFCURVE",
"183 772 CURVE SMOOTH",
"173 720 OFFCURVE",
"188 700 OFFCURVE",
"233 700 CURVE SMOOTH",
"997 700 LINE SMOOTH",
"1042 700 OFFCURVE",
"1063 720 OFFCURVE",
"1073 772 CURVE SMOOTH",
"1082 824 OFFCURVE",
"1067 844 OFFCURVE",
"1022 844 CURVE SMOOTH"
);
}
);
width = 1228;
}
);
unicode = 0074;
},
{
color = 6;
glyphname = tbar;
lastChange = "2015-01-12 05:49:59 +0000";
layers = (
{
components = (
{
name = t;
transform = "{1, 0, 0, 1, 0, 0}";
}
);
layerId = UUID0;
name = "Regular Italic";
paths = (
{
closed = 1;
nodes = (
"275 580 LINE SMOOTH",
"230 580 OFFCURVE",
"208 560 OFFCURVE",
"199 508 CURVE SMOOTH",
"190 456 OFFCURVE",
"204 436 OFFCURVE",
"249 436 CURVE SMOOTH",
"811 436 LINE SMOOTH",
"856 436 OFFCURVE",
"878 456 OFFCURVE",
"887 508 CURVE SMOOTH",
"896 560 OFFCURVE",
"882 580 OFFCURVE",
"837 580 CURVE SMOOTH"
);
}
);
width = 1228;
}
);
unicode = 0167;
},
{
glyphname = u;
lastChange = "2015-01-12 05:49:59 +0000";
layers = (
{
layerId = UUID0;
name = "Regular Italic";
paths = (
{
closed = 1;
nodes = (
"1044 934 LINE SMOOTH",
"991 934 OFFCURVE",
"967 915 OFFCURVE",
"959 869 CURVE SMOOTH",
"899 532 LINE SMOOTH",
"859 304 OFFCURVE",
"639 126 OFFCURVE",
"468 126 CURVE SMOOTH",
"363 126 OFFCURVE",
"315 180 OFFCURVE",
"315 265 CURVE SMOOTH",
"315 282 OFFCURVE",
"317 300 OFFCURVE",
"320 319 CURVE SMOOTH",
"417 869 LINE SMOOTH",
"425 915 OFFCURVE",
"410 934 OFFCURVE",
"354 934 CURVE SMOOTH",
"352 934 LINE SMOOTH",
"299 934 OFFCURVE",
"275 915 OFFCURVE",
"267 869 CURVE SMOOTH",
"169 314 LINE SMOOTH",
"164 287 OFFCURVE",
"162 262 OFFCURVE",
"162 238 CURVE SMOOTH",
"162 80 OFFCURVE",
"265 -22 OFFCURVE",
"437 -22 CURVE SMOOTH",
"583 -22 OFFCURVE",
"743 74 OFFCURVE",
"852 208 CURVE",
"825 55 LINE SMOOTH",
"817 9 OFFCURVE",
"832 -10 OFFCURVE",
"885 -10 CURVE SMOOTH",
"887 -10 LINE SMOOTH",
"940 -10 OFFCURVE",
"957 9 OFFCURVE",
"965 55 CURVE SMOOTH",
"1109 869 LINE SMOOTH",
"1117 915 OFFCURVE",
"1102 934 OFFCURVE",
"1046 934 CURVE SMOOTH"
);
}
);
width = 1228;
}
);
unicode = 0075;
},
{
color = 3;
glyphname = uogonek;
lastChange = "2015-01-12 05:49:59 +0000";
layers = (
{
background = {
paths = (
{
closed = 1;
nodes = (
"749 -336 OFFCURVE",
"724 -316 OFFCURVE",
"724 -277 CURVE SMOOTH",
"724 -205 OFFCURVE",
"791 -115 OFFCURVE",
"941 4 CURVE",
"923 38 LINE",
"836 48 LINE",
"667 -68 OFFCURVE",
"568 -182 OFFCURVE",
"568 -310 CURVE SMOOTH",
"568 -406 OFFCURVE",
"626 -472 OFFCURVE",
"733 -472 CURVE SMOOTH",
"797 -472 OFFCURVE",
"862 -460 OFFCURVE",
"911 -443 CURVE SMOOTH",
"942 -432 OFFCURVE",
"952 -411 OFFCURVE",
"947 -374 CURVE SMOOTH",
"942 -337 OFFCURVE",
"927 -322 OFFCURVE",
"900 -326 CURVE SMOOTH",
"864 -332 OFFCURVE",
"828 -336 OFFCURVE",
"789 -336 CURVE SMOOTH"
);
},
{
closed = 1;
nodes = (
"363 126 OFFCURVE",
"315 180 OFFCURVE",
"315 265 CURVE SMOOTH",
"315 282 OFFCURVE",
"317 300 OFFCURVE",
"320 319 CURVE SMOOTH",
"417 869 LINE SMOOTH",
"425 915 OFFCURVE",
"407 934 OFFCURVE",
"351 934 CURVE SMOOTH",
"295 934 OFFCURVE",
"275 915 OFFCURVE",
"267 869 CURVE SMOOTH",
"169 314 LINE SMOOTH",
"164 287 OFFCURVE",
"162 262 OFFCURVE",
"162 238 CURVE SMOOTH",
"162 80 OFFCURVE",
"265 -22 OFFCURVE",
"437 -22 CURVE SMOOTH",
"583 -22 OFFCURVE",
"743 74 OFFCURVE",
"852 208 CURVE",
"816 5 LINE",
"886 -10 LINE",
"939 -10 OFFCURVE",
"957 9 OFFCURVE",
"965 55 CURVE SMOOTH",
"1109 869 LINE SMOOTH",
"1117 915 OFFCURVE",
"1099 934 OFFCURVE",
"1043 934 CURVE SMOOTH",
"987 934 OFFCURVE",
"967 915 OFFCURVE",
"959 869 CURVE SMOOTH",
"899 532 LINE SMOOTH",
"859 304 OFFCURVE",
"639 126 OFFCURVE",
"468 126 CURVE SMOOTH"
);
}
);
};
layerId = UUID0;
name = "Regular Italic";
paths = (
{
closed = 1;
nodes = (
"1044 934 LINE SMOOTH",
"991 934 OFFCURVE",
"967 915 OFFCURVE",
"959 869 CURVE SMOOTH",
"899 532 LINE SMOOTH",
"859 304 OFFCURVE",
"639 126 OFFCURVE",
"468 126 CURVE SMOOTH",
"363 126 OFFCURVE",
"315 180 OFFCURVE",
"315 265 CURVE SMOOTH",
"315 282 OFFCURVE",
"317 300 OFFCURVE",
"320 319 CURVE SMOOTH",
"417 869 LINE SMOOTH",
"425 915 OFFCURVE",
"410 934 OFFCURVE",
"354 934 CURVE SMOOTH",
"352 934 LINE SMOOTH",
"299 934 OFFCURVE",
"275 915 OFFCURVE",
"267 869 CURVE SMOOTH",
"169 314 LINE SMOOTH",
"164 287 OFFCURVE",
"162 262 OFFCURVE",
"162 238 CURVE SMOOTH",
"162 80 OFFCURVE",
"265 -22 OFFCURVE",
"437 -22 CURVE SMOOTH",
"583 -22 OFFCURVE",
"743 74 OFFCURVE",
"852 208 CURVE",
"822 38 LINE",
"662 -75 OFFCURVE",
"568 -185.291 OFFCURVE",
"568 -310 CURVE SMOOTH",
"568 -406 OFFCURVE",
"626 -472 OFFCURVE",
"733 -472 CURVE SMOOTH",
"797 -472 OFFCURVE",
"862 -460 OFFCURVE",
"911 -443 CURVE SMOOTH",
"942 -432 OFFCURVE",
"952 -411 OFFCURVE",
"947 -374 CURVE SMOOTH",
"942 -337 OFFCURVE",
"927 -322 OFFCURVE",
"900 -326 CURVE SMOOTH",
"864 -332 OFFCURVE",
"828 -336 OFFCURVE",
"789 -336 CURVE SMOOTH",
"749 -336 OFFCURVE",
"724 -316 OFFCURVE",
"724 -277 CURVE SMOOTH",
"724 -206 OFFCURVE",
"790 -117 OFFCURVE",
"937 1 CURVE",
"952 13 OFFCURVE",
"960 28 OFFCURVE",
"965 55 CURVE SMOOTH",
"1109 869 LINE SMOOTH",
"1117 915 OFFCURVE",
"1102 934 OFFCURVE",
"1046 934 CURVE SMOOTH"
);
}
);
width = 1228;
}
);
unicode = 0173;
},
{
glyphname = v;
lastChange = "2015-01-12 05:49:59 +0000";
layers = (
{
layerId = UUID0;
name = "Regular Italic";
paths = (
{
closed = 1;
nodes = (
"1089 946 OFFCURVE",
"1064 942 OFFCURVE",
"1036 898 CURVE SMOOTH",
"562 143 LINE",
"355 890 LINE SMOOTH",
"343 934 OFFCURVE",
"318 938 OFFCURVE",
"264 924 CURVE SMOOTH",
"207 909 OFFCURVE",
"195 884 OFFCURVE",
"207 840 CURVE SMOOTH",
"433 40 LINE SMOOTH",
"445 -3 OFFCURVE",
"474 -22 OFFCURVE",
"540 -22 CURVE SMOOTH",
"606 -22 OFFCURVE",
"642 -3 OFFCURVE",
"669 40 CURVE SMOOTH",
"1169 830 LINE SMOOTH",
"1197 874 OFFCURVE",
"1186 901 OFFCURVE",
"1137 924 CURVE SMOOTH"
);
}
);
width = 1228;
}
);
unicode = 0076;
},
{
glyphname = w;
lastChange = "2015-01-12 05:49:59 +0000";
layers = (
{
layerId = UUID0;
name = "Regular Italic";
paths = (
{
closed = 1;
nodes = (
"1150 942 OFFCURVE",
"1126 930 OFFCURVE",
"1107 883 CURVE SMOOTH",
"830 210 LINE",
"749 743 LINE SMOOTH",
"745 769 OFFCURVE",
"725 790 OFFCURVE",
"678 790 CURVE SMOOTH",
"628 790 OFFCURVE",
"604 769 OFFCURVE",
"591 743 CURVE SMOOTH",
"322 210 LINE",
"282 873 LINE SMOOTH",
"279 920 OFFCURVE",
"265 933 OFFCURVE",
"207 930 CURVE SMOOTH",
"151 927 OFFCURVE",
"137 908 OFFCURVE",
"140 864 CURVE SMOOTH",
"198 43 LINE SMOOTH",
"201 -4 OFFCURVE",
"222 -22 OFFCURVE",
"273 -22 CURVE SMOOTH",
"330 -22 OFFCURVE",
"359 -3 OFFCURVE",
"382 43 CURVE SMOOTH",
"641 555 LINE",
"720 43 LINE SMOOTH",
"727 -3 OFFCURVE",
"754 -22 OFFCURVE",
"811 -22 CURVE SMOOTH",
"862 -22 OFFCURVE",
"884 -4 OFFCURVE",
"904 43 CURVE SMOOTH",
"1242 842 LINE SMOOTH",
"1262 889 OFFCURVE",
"1258 913 OFFCURVE",
"1202 928 CURVE SMOOTH"
);
}
);
width = 1228;
}
);
unicode = 0077;
},
{
glyphname = x;
lastChange = "2015-01-12 05:49:59 +0000";
layers = (
{
layerId = UUID0;
name = "Regular Italic";
paths = (
{
closed = 1;
nodes = (
"1056 947 OFFCURVE",
"1021 945 OFFCURVE",
"984 909 CURVE SMOOTH",
"613 546 LINE",
"577 526 LINE",
"129 89 LINE SMOOTH",
"92 52 OFFCURVE",
"103 21 OFFCURVE",
"146 0 CURVE SMOOTH",
"192 -23 OFFCURVE",
"228 -21 OFFCURVE",
"265 15 CURVE SMOOTH",
"672 417 LINE",
"709 436 LINE",
"1120 835 LINE SMOOTH",
"1158 871 OFFCURVE",
"1146 903 OFFCURVE",
"1103 924 CURVE SMOOTH"
);
},
{
closed = 1;
nodes = (
"262 903 OFFCURVE",
"248 872 OFFCURVE",
"274 835 CURVE SMOOTH",
"560 431 LINE",
"585 416 LINE",
"863 15 LINE SMOOTH",
"888 -20 OFFCURVE",
"908 -23 OFFCURVE",
"964 0 CURVE SMOOTH",
"1013 21 OFFCURVE",
"1026 53 OFFCURVE",
"1001 89 CURVE SMOOTH",
"695 526 LINE",
"670 542 LINE",
"412 909 LINE SMOOTH",
"387 945 OFFCURVE",
"366 947 OFFCURVE",
"311 924 CURVE SMOOTH"
);
}
);
width = 1228;
}
);
unicode = 0078;
},
{
glyphname = y;
lastChange = "2015-01-12 05:49:59 +0000";
layers = (
{
layerId = UUID0;
name = "Regular Italic";
paths = (
{
closed = 1;
nodes = (
"1088 946 OFFCURVE",
"1064 941 OFFCURVE",
"1035 898 CURVE SMOOTH",
"496 97 LINE",
"231 -291 LINE SMOOTH",
"202 -334 OFFCURVE",
"210 -362 OFFCURVE",
"256 -388 CURVE SMOOTH",
"301 -414 OFFCURVE",
"331 -407 OFFCURVE",
"360 -364 CURVE SMOOTH",
"1168 830 LINE SMOOTH",
"1197 873 OFFCURVE",
"1185 901 OFFCURVE",
"1136 924 CURVE SMOOTH"
);
},
{
closed = 1;
nodes = (
"206 909 OFFCURVE",
"192 883 OFFCURVE",
"206 840 CURVE SMOOTH",
"486 -15 LINE",
"596 140 LINE",
"353 890 LINE SMOOTH",
"339 933 OFFCURVE",
"317 938 OFFCURVE",
"263 924 CURVE SMOOTH"
);
}
);
width = 1228;
}
);
unicode = 0079;
},
{
glyphname = z;
lastChange = "2015-01-12 05:49:59 +0000";
layers = (
{
layerId = UUID0;
name = "Regular Italic";
paths = (
{
closed = 1;
nodes = (
"927 0 LINE SMOOTH",
"972 0 OFFCURVE",
"993 20 OFFCURVE",
"1002 72 CURVE SMOOTH",
"1011 124 OFFCURVE",
"997 144 OFFCURVE",
"952 144 CURVE SMOOTH",
"395 144 LINE",
"1087 810 LINE SMOOTH",
"1098 820 OFFCURVE",
"1107 835 OFFCURVE",
"1110 856 CURVE SMOOTH",
"1117 906 OFFCURVE",
"1104 924 OFFCURVE",
"1059 924 CURVE SMOOTH",
"343 924 LINE SMOOTH",
"298 924 OFFCURVE",
"277 904 OFFCURVE",
"268 852 CURVE SMOOTH",
"259 800 OFFCURVE",
"273 780 OFFCURVE",
"318 780 CURVE SMOOTH",
"845 780 LINE",
"151 113 LINE SMOOTH",
"139 102 OFFCURVE",
"132 87 OFFCURVE",
"129 68 CURVE SMOOTH",
"121 18 OFFCURVE",
"136 0 OFFCURVE",
"181 0 CURVE SMOOTH"
);
}
);
width = 1228;
}
);
unicode = 007A;
},
{
glyphname = ordfeminine;
lastChange = "2015-01-14 20:33:11 +0000";
layers = (
{
layerId = UUID0;
name = "Regular Italic";
paths = (
{
closed = 1;
nodes = (
"443 1209 OFFCURVE",
"309 962 OFFCURVE",
"309 763 CURVE SMOOTH",
"309 580 OFFCURVE",
"433 465 OFFCURVE",
"599 465 CURVE SMOOTH",
"722 465 OFFCURVE",
"815 513 OFFCURVE",
"901 623 CURVE",
"878 640 LINE",
"883 538 OFFCURVE",
"948 483 OFFCURVE",
"1038 483 CURVE SMOOTH",
"1048 483 LINE SMOOTH",
"1085 483 OFFCURVE",
"1102 504 OFFCURVE",
"1111 547 CURVE SMOOTH",
"1118 590 OFFCURVE",
"1108 612 OFFCURVE",
"1070 612 CURVE SMOOTH",
"1066 612 LINE SMOOTH",
"1013 612 OFFCURVE",
"981 642 OFFCURVE",
"994 714 CURVE SMOOTH",
"1071 1150 LINE SMOOTH",
"1077 1185 OFFCURVE",
"1068 1200 OFFCURVE",
"1015 1200 CURVE SMOOTH",
"962 1200 OFFCURVE",
"950 1185 OFFCURVE",
"943 1150 CURVE SMOOTH",
"930 1083 LINE",
"893 1158 OFFCURVE",
"821 1209 OFFCURVE",
"714 1209 CURVE SMOOTH"
);
},
{
closed = 1;
nodes = (
"820 1077 OFFCURVE",
"887 1020 OFFCURVE",
"887 898 CURVE SMOOTH",
"887 739 OFFCURVE",
"801 597 OFFCURVE",
"619 597 CURVE SMOOTH",
"516 597 OFFCURVE",
"452 660 OFFCURVE",
"452 770 CURVE SMOOTH",
"452 929 OFFCURVE",
"552 1077 OFFCURVE",
"705 1077 CURVE SMOOTH"
);
}
);
width = 1228;
}
);
unicode = 00AA;
},
{
glyphname = ordmasculine;
lastChange = "2015-01-14 20:33:20 +0000";
layers = (
{
layerId = UUID0;
name = "Regular Italic";
paths = (
{
closed = 1;
nodes = (
"477 1209 OFFCURVE",
"318 989 OFFCURVE",
"318 778 CURVE SMOOTH",
"318 596 OFFCURVE",
"450 465 OFFCURVE",
"640 465 CURVE SMOOTH",
"907 465 OFFCURVE",
"1064 688 OFFCURVE",
"1064 895 CURVE SMOOTH",
"1064 1077 OFFCURVE",
"931 1209 OFFCURVE",
"742 1209 CURVE SMOOTH"
);
},
{
closed = 1;
nodes = (
"851 1077 OFFCURVE",
"924 1000 OFFCURVE",
"924 887 CURVE SMOOTH",
"924 722 OFFCURVE",
"803 597 OFFCURVE",
"654 597 CURVE SMOOTH",
"531 597 OFFCURVE",
"457 674 OFFCURVE",
"457 787 CURVE SMOOTH",
"457 924 OFFCURVE",
"556 1077 OFFCURVE",
"728 1077 CURVE SMOOTH"
);
}
);
width = 1228;
}
);
unicode = 00BA;
},
{
glyphname = Delta;
lastChange = "2015-01-12 05:49:59 +0000";
layers = (
{
layerId = UUID0;
name = "Regular Italic";
paths = (
{
closed = 1;
nodes = (
"707 1209 OFFCURVE",
"670 1191 OFFCURVE",
"645 1144 CURVE SMOOTH",
"101 106 LINE SMOOTH",
"94 93 OFFCURVE",
"90 79 OFFCURVE",
"90 66 CURVE SMOOTH",
"90 15 OFFCURVE",
"97 0 OFFCURVE",
"140 0 CURVE SMOOTH",
"947 0 LINE SMOOTH",
"992 0 OFFCURVE",
"1011 17 OFFCURVE",
"1021 67 CURVE SMOOTH",
"1024 82 OFFCURVE",
"1025 93 OFFCURVE",
"1023 106 CURVE SMOOTH",
"849 1144 LINE SMOOTH",
"841 1190 OFFCURVE",
"813 1209 OFFCURVE",
"760 1209 CURVE SMOOTH"
);
},
{
closed = 1;
nodes = (
"865 136 LINE",
"279 136 LINE",
"730 1022 LINE",
"732 1022 LINE"
);
}
);
width = 1228;
}
);
unicode = 0394;
},
{
glyphname = Omega;
lastChange = "2015-01-12 05:49:59 +0000";
layers = (
{
background = {
paths = (
{
closed = 1;
nodes = (
"442 1209 OFFCURVE",
"190 975 OFFCURVE",
"128 623 CURVE SMOOTH",
"91 416 OFFCURVE",
"164 244 OFFCURVE",
"276 144 CURVE",
"99 144 LINE SMOOTH",
"54 144 OFFCURVE",
"33 124 OFFCURVE",
"24 72 CURVE SMOOTH",
"15 20 OFFCURVE",
"29 0 OFFCURVE",
"74 0 CURVE SMOOTH",
"408 0 LINE SMOOTH",
"453 0 OFFCURVE",
"475 21 OFFCURVE",
"485 78 CURVE SMOOTH",
"490 109 OFFCURVE",
"490 133 OFFCURVE",
"479 142 CURVE SMOOTH",
"324 254 OFFCURVE",
"249 413 OFFCURVE",
"286 623 CURVE SMOOTH",
"333 893 OFFCURVE",
"509 1061 OFFCURVE",
"731 1061 CURVE SMOOTH",
"953 1061 OFFCURVE",
"1069 893 OFFCURVE",
"1022 623 CURVE SMOOTH",
"985 413 OFFCURVE",
"854 254 OFFCURVE",
"659 142 CURVE SMOOTH",
"644 133 OFFCURVE",
"636 109 OFFCURVE",
"631 78 CURVE SMOOTH",
"621 21 OFFCURVE",
"635 0 OFFCURVE",
"680 0 CURVE SMOOTH",
"1014 0 LINE SMOOTH",
"1059 0 OFFCURVE",
"1081 20 OFFCURVE",
"1090 72 CURVE SMOOTH",
"1099 124 OFFCURVE",
"1084 144 OFFCURVE",
"1039 144 CURVE SMOOTH",
"862 144 LINE",
"1010 244 OFFCURVE",
"1143 416 OFFCURVE",
"1180 623 CURVE SMOOTH",
"1242 975 OFFCURVE",
"1072 1209 OFFCURVE",
"757 1209 CURVE SMOOTH"
);
}
);
};
layerId = UUID0;
name = "Regular Italic";
paths = (
{
closed = 1;
nodes = (
"534 1209 OFFCURVE",
"375 1108 OFFCURVE",
"269 961 CURVE SMOOTH",
"175 830 OFFCURVE",
"133 674 OFFCURVE",
"133 519 CURVE SMOOTH",
"133 361 OFFCURVE",
"202 234 OFFCURVE",
"300 144 CURVE",
"103 144 LINE SMOOTH",
"58 144 OFFCURVE",
"37 124 OFFCURVE",
"28 72 CURVE SMOOTH",
"19 20 OFFCURVE",
"33 0 OFFCURVE",
"78 0 CURVE SMOOTH",
"401 0 LINE SMOOTH",
"446 0 OFFCURVE",
"468 21 OFFCURVE",
"478 78 CURVE SMOOTH",
"483 109 OFFCURVE",
"483 134 OFFCURVE",
"472 143 CURVE SMOOTH",
"355 235 OFFCURVE",
"283 354 OFFCURVE",
"283 514 CURVE SMOOTH",
"283 639 OFFCURVE",
"320 773 OFFCURVE",
"395 878 CURVE SMOOTH",
"472 986 OFFCURVE",
"586 1061 OFFCURVE",
"731 1061 CURVE SMOOTH",
"918 1061 OFFCURVE",
"1030 933 OFFCURVE",
"1030 722 CURVE SMOOTH",
"1030 522 OFFCURVE",
"938 302 OFFCURVE",
"652 142 CURVE SMOOTH",
"637 133 OFFCURVE",
"629 109 OFFCURVE",
"624 78 CURVE SMOOTH",
"614 21 OFFCURVE",
"635 0 OFFCURVE",
"673 0 CURVE SMOOTH",
"1018 0 LINE SMOOTH",
"1063 0 OFFCURVE",
"1084 20 OFFCURVE",
"1093 72 CURVE SMOOTH",
"1102 124 OFFCURVE",
"1088 144 OFFCURVE",
"1043 144 CURVE SMOOTH",
"855 144 LINE",
"1084 294 OFFCURVE",
"1183 519 OFFCURVE",
"1183 728 CURVE SMOOTH",
"1183 1018 OFFCURVE",
"1014 1209 OFFCURVE",
"742 1209 CURVE SMOOTH"
);
}
);
width = 1228;
}
);
unicode = 03A9;
},
{
glyphname = mu;
lastChange = "2015-01-12 05:49:59 +0000";
layers = (
{
background = {
paths = (
{
closed = 1;
nodes = (
"1039 934 LINE SMOOTH",
"983 934 OFFCURVE",
"961 915 OFFCURVE",
"953 869 CURVE SMOOTH",
"889 502 LINE SMOOTH",
"851 292 OFFCURVE",
"653 126 OFFCURVE",
"502 126 CURVE SMOOTH",
"373 126 OFFCURVE",
"334 204 OFFCURVE",
"354 319 CURVE SMOOTH",
"451 869 LINE SMOOTH",
"459 915 OFFCURVE",
"445 934 OFFCURVE",
"389 934 CURVE SMOOTH",
"387 934 LINE SMOOTH",
"331 934 OFFCURVE",
"309 915 OFFCURVE",
"301 869 CURVE SMOOTH",
"88 -338 LINE SMOOTH",
"80 -384 OFFCURVE",
"95 -403 OFFCURVE",
"151 -403 CURVE SMOOTH",
"153 -403 LINE SMOOTH",
"209 -403 OFFCURVE",
"230 -384 OFFCURVE",
"238 -338 CURVE SMOOTH",
"302 25 LINE",
"341 -6 OFFCURVE",
"396 -22 OFFCURVE",
"461 -22 CURVE SMOOTH",
"601 -22 OFFCURVE",
"743 74 OFFCURVE",
"845 198 CURVE",
"820 55 LINE SMOOTH",
"812 9 OFFCURVE",
"824 -10 OFFCURVE",
"877 -10 CURVE SMOOTH",
"879 -10 LINE SMOOTH",
"932 -10 OFFCURVE",
"952 9 OFFCURVE",
"960 55 CURVE SMOOTH",
"1103 869 LINE SMOOTH",
"1111 915 OFFCURVE",
"1097 934 OFFCURVE",
"1041 934 CURVE SMOOTH"
);
}
);
};
layerId = UUID0;
name = "Regular Italic";
paths = (
{
closed = 1;
nodes = (
"1038 934 LINE SMOOTH",
"985 934 OFFCURVE",
"961 915 OFFCURVE",
"953 869 CURVE SMOOTH",
"889 502 LINE SMOOTH",
"852 292 OFFCURVE",
"653 126 OFFCURVE",
"502 126 CURVE SMOOTH",
"394 126 OFFCURVE",
"349 181 OFFCURVE",
"349 266 CURVE SMOOTH",
"349 283 OFFCURVE",
"351 301 OFFCURVE",
"354 319 CURVE SMOOTH",
"451 869 LINE SMOOTH",
"459 915 OFFCURVE",
"444 934 OFFCURVE",
"388 934 CURVE SMOOTH",
"386 934 LINE SMOOTH",
"333 934 OFFCURVE",
"309 915 OFFCURVE",
"301 869 CURVE SMOOTH",
"89 -333 LINE SMOOTH",
"81 -379 OFFCURVE",
"96 -398 OFFCURVE",
"152 -398 CURVE SMOOTH",
"154 -398 LINE SMOOTH",
"207 -398 OFFCURVE",
"231 -379 OFFCURVE",
"239 -333 CURVE SMOOTH",
"304 36 LINE",
"345 -2 OFFCURVE",
"405 -22 OFFCURVE",
"475 -22 CURVE SMOOTH",
"610 -22 OFFCURVE",
"747 74 OFFCURVE",
"845 198 CURVE",
"820 55 LINE SMOOTH",
"812 9 OFFCURVE",
"827 -10 OFFCURVE",
"880 -10 CURVE SMOOTH",
"882 -10 LINE SMOOTH",
"935 -10 OFFCURVE",
"952 9 OFFCURVE",
"960 55 CURVE SMOOTH",
"1103 869 LINE SMOOTH",
"1111 915 OFFCURVE",
"1096 934 OFFCURVE",
"1040 934 CURVE SMOOTH"
);
}
);
width = 1228;
}
);
unicode = 03BC;
},
{
glyphname = pi;
lastChange = "2015-01-12 05:49:59 +0000";
layers = (
{
layerId = UUID0;
name = "Regular Italic";
paths = (
{
closed = 1;
nodes = (
"253 924 LINE SMOOTH",
"208 924 OFFCURVE",
"187 904 OFFCURVE",
"178 852 CURVE SMOOTH",
"168 800 OFFCURVE",
"183 780 OFFCURVE",
"228 780 CURVE SMOOTH",
"316 780 LINE",
"188 55 LINE SMOOTH",
"180 9 OFFCURVE",
"195 -10 OFFCURVE",
"251 -10 CURVE SMOOTH",
"253 -10 LINE SMOOTH",
"306 -10 OFFCURVE",
"330 9 OFFCURVE",
"338 55 CURVE SMOOTH",
"466 780 LINE",
"898 780 LINE",
"770 55 LINE SMOOTH",
"762 9 OFFCURVE",
"777 -10 OFFCURVE",
"833 -10 CURVE SMOOTH",
"835 -10 LINE SMOOTH",
"888 -10 OFFCURVE",
"912 9 OFFCURVE",
"920 55 CURVE SMOOTH",
"1048 780 LINE",
"1134 780 LINE SMOOTH",
"1179 780 OFFCURVE",
"1200 800 OFFCURVE",
"1210 852 CURVE SMOOTH",
"1219 904 OFFCURVE",
"1204 924 OFFCURVE",
"1159 924 CURVE SMOOTH"
);
}
);
width = 1228;
}
);
unicode = 03C0;
},
{
glyphname = zero;
lastChange = "2015-01-12 05:52:48 +0000";
layers = (
{
layerId = UUID0;
name = "Regular Italic";
paths = (
{
closed = 1;
nodes = (
"371 1209 OFFCURVE",
"212 747 OFFCURVE",
"212 431 CURVE SMOOTH",
"212 158 OFFCURVE",
"337 -22 OFFCURVE",
"553 -22 CURVE SMOOTH",
"926 -22 OFFCURVE",
"1085 440 OFFCURVE",
"1085 756 CURVE SMOOTH",
"1085 1029 OFFCURVE",
"960 1209 OFFCURVE",
"744 1209 CURVE SMOOTH"
);
},
{
closed = 1;
nodes = (
"855 1061 OFFCURVE",
"934 954 OFFCURVE",
"934 761 CURVE SMOOTH",
"934 484 OFFCURVE",
"800 126 OFFCURVE",
"566 126 CURVE SMOOTH",
"441 126 OFFCURVE",
"363 232 OFFCURVE",
"363 426 CURVE SMOOTH",
"363 703 OFFCURVE",
"497 1061 OFFCURVE",
"731 1061 CURVE SMOOTH"
);
},
{
closed = 1;
nodes = (
"298 349 LINE",
"345 209 LINE",
"991 829 LINE",
"957 981 LINE"
);
}
);
width = 1228;
}
);
unicode = 0030;
},
{
color = 3;
glyphname = one;
lastChange = "2015-01-12 05:49:59 +0000";
layers = (
{
background = {
paths = (
{
closed = 1;
nodes = (
"392 1075 LINE SMOOTH",
"358 1064 OFFCURVE",
"342 1037 OFFCURVE",
"352 989 CURVE SMOOTH",
"363 938 OFFCURVE",
"388 924 OFFCURVE",
"419 935 CURVE SMOOTH",
"679 1024 LINE",
"523.414 144 LINE",
"275 144 LINE SMOOTH",
"230 144 OFFCURVE",
"208 124 OFFCURVE",
"199 72 CURVE SMOOTH",
"190 20 OFFCURVE",
"205 0 OFFCURVE",
"250 0 CURVE SMOOTH",
"924 0 LINE SMOOTH",
"969 0 OFFCURVE",
"990 20 OFFCURVE",
"999 72 CURVE SMOOTH",
"1008 124 OFFCURVE",
"994 144 OFFCURVE",
"949 144 CURVE SMOOTH",
"673.418 144 LINE",
"851 1146 LINE SMOOTH",
"860 1197 OFFCURVE",
"827 1223 OFFCURVE",
"783 1208 CURVE SMOOTH"
);
}
);
};
layerId = UUID0;
name = "Regular Italic";
paths = (
{
closed = 1;
nodes = (
"340 961 LINE SMOOTH",
"307 943 OFFCURVE",
"296 915 OFFCURVE",
"320 869 CURVE SMOOTH",
"344 823 OFFCURVE",
"374 816 OFFCURVE",
"404 833 CURVE SMOOTH",
"719 1010 LINE",
"682 1038 LINE",
"518 108 LINE",
"668 108 LINE",
"853 1157 LINE SMOOTH",
"863 1211 OFFCURVE",
"814 1224 OFFCURVE",
"770 1200 CURVE SMOOTH"
);
},
{
closed = 1;
nodes = (
"275 144 LINE SMOOTH",
"230 144 OFFCURVE",
"208 124 OFFCURVE",
"199 72 CURVE SMOOTH",
"190 20 OFFCURVE",
"205 0 OFFCURVE",
"250 0 CURVE SMOOTH",
"924 0 LINE SMOOTH",
"969 0 OFFCURVE",
"990 20 OFFCURVE",
"999 72 CURVE SMOOTH",
"1008 124 OFFCURVE",
"994 144 OFFCURVE",
"949 144 CURVE SMOOTH"
);
}
);
width = 1228;
}
);
unicode = 0031;
},
{
glyphname = two;
lastChange = "2015-01-14 05:13:33 +0000";
layers = (
{
layerId = UUID0;
name = "Regular Italic";
paths = (
{
closed = 1;
nodes = (
"601 1209 OFFCURVE",
"471 1174 OFFCURVE",
"359 1107 CURVE SMOOTH",
"322 1085 OFFCURVE",
"308 1054 OFFCURVE",
"328 1008 CURVE SMOOTH",
"349 962 OFFCURVE",
"383 957 OFFCURVE",
"417 976 CURVE SMOOTH",
"513 1030 OFFCURVE",
"616 1061 OFFCURVE",
"705 1061 CURVE SMOOTH",
"835 1061 OFFCURVE",
"901 999 OFFCURVE",
"901 901 CURVE SMOOTH",
"901 783 OFFCURVE",
"829 697 OFFCURVE",
"679 568 CURVE SMOOTH",
"160 122 LINE SMOOTH",
"148 111 OFFCURVE",
"140 94 OFFCURVE",
"135 68 CURVE SMOOTH",
"127 18 OFFCURVE",
"142 0 OFFCURVE",
"187 0 CURVE SMOOTH",
"904 0 LINE SMOOTH",
"949 0 OFFCURVE",
"970 20 OFFCURVE",
"979 72 CURVE SMOOTH",
"988 124 OFFCURVE",
"974 144 OFFCURVE",
"929 144 CURVE SMOOTH",
"400 144 LINE",
"788 477 LINE SMOOTH",
"971 634 OFFCURVE",
"1060 744 OFFCURVE",
"1060 911 CURVE SMOOTH",
"1060 1095 OFFCURVE",
"926 1209 OFFCURVE",
"720 1209 CURVE SMOOTH"
);
}
);
width = 1228;
}
);
unicode = 0032;
},
{
glyphname = three;
lastChange = "2015-01-12 05:49:59 +0000";
layers = (
{
background = {
paths = (
{
closed = 1;
nodes = (
"599 1209 OFFCURVE",
"477 1181 OFFCURVE",
"368 1123 CURVE SMOOTH",
"331 1103 OFFCURVE",
"316 1072 OFFCURVE",
"337 1024 CURVE SMOOTH",
"357 978 OFFCURVE",
"386 971 OFFCURVE",
"419 988 CURVE SMOOTH",
"520 1041 OFFCURVE",
"611 1061 OFFCURVE",
"698 1061 CURVE SMOOTH",
"826 1061 OFFCURVE",
"894 1007 OFFCURVE",
"894 917 CURVE SMOOTH",
"894 810 OFFCURVE",
"830 691 OFFCURVE",
"626 691 CURVE SMOOTH",
"571 691 LINE SMOOTH",
"526 691 OFFCURVE",
"505 673 OFFCURVE",
"496 623 CURVE SMOOTH",
"488 573 OFFCURVE",
"502 555 OFFCURVE",
"547 555 CURVE SMOOTH",
"620 555 LINE SMOOTH",
"756 555 OFFCURVE",
"838 500 OFFCURVE",
"838 392 CURVE SMOOTH",
"838 271 OFFCURVE",
"759 126 OFFCURVE",
"540 126 CURVE SMOOTH",
"434 126 OFFCURVE",
"333 166 OFFCURVE",
"258 229 CURVE SMOOTH",
"223 260 OFFCURVE",
"188 233 OFFCURVE",
"165 197 CURVE SMOOTH",
"141 160 OFFCURVE",
"139 129 OFFCURVE",
"169 104 CURVE SMOOTH",
"259 28 OFFCURVE",
"391 -22 OFFCURVE",
"524 -22 CURVE SMOOTH",
"873 -22 OFFCURVE",
"991 215 OFFCURVE",
"991 395 CURVE SMOOTH",
"991 503 OFFCURVE",
"939 586 OFFCURVE",
"848 627 CURVE",
"984 687 OFFCURVE",
"1046 794 OFFCURVE",
"1046 927 CURVE SMOOTH",
"1046 1094 OFFCURVE",
"924 1209 OFFCURVE",
"713 1209 CURVE SMOOTH"
);
}
);
};
layerId = UUID0;
name = "Regular Italic";
paths = (
{
closed = 1;
nodes = (
"599 1209 OFFCURVE",
"477 1181 OFFCURVE",
"368 1123 CURVE SMOOTH",
"331 1103 OFFCURVE",
"316 1072 OFFCURVE",
"337 1024 CURVE SMOOTH",
"357 978 OFFCURVE",
"386 971 OFFCURVE",
"419 988 CURVE SMOOTH",
"520 1041 OFFCURVE",
"611 1061 OFFCURVE",
"698 1061 CURVE SMOOTH",
"826 1061 OFFCURVE",
"894 1007 OFFCURVE",
"894 917 CURVE SMOOTH",
"894 810 OFFCURVE",
"830 691 OFFCURVE",
"626 691 CURVE SMOOTH",
"571 691 LINE SMOOTH",
"526 691 OFFCURVE",
"505 673 OFFCURVE",
"496 623 CURVE SMOOTH",
"488 573 OFFCURVE",
"502 555 OFFCURVE",
"547 555 CURVE SMOOTH",
"620 555 LINE SMOOTH",
"756 555 OFFCURVE",
"838 498 OFFCURVE",
"838 385 CURVE SMOOTH",
"838 269 OFFCURVE",
"759 126 OFFCURVE",
"540 126 CURVE SMOOTH",
"434 126 OFFCURVE",
"333 166 OFFCURVE",
"258 229 CURVE SMOOTH",
"223 260 OFFCURVE",
"188 233 OFFCURVE",
"165 197 CURVE SMOOTH",
"141 160 OFFCURVE",
"139 129 OFFCURVE",
"169 104 CURVE SMOOTH",
"259 28 OFFCURVE",
"391 -22 OFFCURVE",
"524 -22 CURVE SMOOTH",
"873 -22 OFFCURVE",
"991 213 OFFCURVE",
"991 383 CURVE SMOOTH",
"991 500 OFFCURVE",
"939 583 OFFCURVE",
"848 625 CURVE",
"984 685 OFFCURVE",
"1046 794 OFFCURVE",
"1046 927 CURVE SMOOTH",
"1046 1094 OFFCURVE",
"924 1209 OFFCURVE",
"713 1209 CURVE SMOOTH"
);
}
);
width = 1228;
}
);
unicode = 0033;
},
{
glyphname = four;
lastChange = "2015-01-12 05:49:59 +0000";
layers = (
{
layerId = UUID0;
name = "Regular Italic";
paths = (
{
closed = 1;
nodes = (
"840 1209 OFFCURVE",
"807 1189 OFFCURVE",
"773 1148 CURVE SMOOTH",
"161 425 LINE SMOOTH",
"153 415 OFFCURVE",
"145 397 OFFCURVE",
"141 376 CURVE SMOOTH",
"132 326 OFFCURVE",
"148 302 OFFCURVE",
"193 302 CURVE SMOOTH",
"671 302 LINE",
"627 55 LINE SMOOTH",
"619 9 OFFCURVE",
"634 -10 OFFCURVE",
"690 -10 CURVE SMOOTH",
"692 -10 LINE SMOOTH",
"745 -10 OFFCURVE",
"769 9 OFFCURVE",
"777 55 CURVE SMOOTH",
"821 302 LINE",
"983 302 LINE SMOOTH",
"1028 302 OFFCURVE",
"1049 322 OFFCURVE",
"1058 374 CURVE SMOOTH",
"1068 426 OFFCURVE",
"1053 446 OFFCURVE",
"1008 446 CURVE SMOOTH",
"846 446 LINE",
"967 1131 LINE SMOOTH",
"975 1178 OFFCURVE",
"954 1209 OFFCURVE",
"892 1209 CURVE SMOOTH"
);
},
{
closed = 1;
nodes = (
"696 446 LINE",
"357 446 LINE",
"798 981 LINE"
);
}
);
width = 1228;
}
);
unicode = 0034;
},
{
glyphname = five;
lastChange = "2015-01-12 05:49:59 +0000";
layers = (
{
layerId = UUID0;
name = "Regular Italic";
paths = (
{
closed = 1;
nodes = (
"490 1187 LINE SMOOTH",
"434 1187 OFFCURVE",
"413 1168 OFFCURVE",
"403 1122 CURVE SMOOTH",
"290 599 LINE SMOOTH",
"284 572 OFFCURVE",
"318 557 OFFCURVE",
"363 557 CURVE SMOOTH",
"386 557 OFFCURVE",
"400 560 OFFCURVE",
"418 571 CURVE SMOOTH",
"485 612 OFFCURVE",
"559 638 OFFCURVE",
"650 638 CURVE SMOOTH",
"781 638 OFFCURVE",
"857 560 OFFCURVE",
"857 443 CURVE SMOOTH",
"857 299 OFFCURVE",
"760 126 OFFCURVE",
"540 126 CURVE SMOOTH",
"437 126 OFFCURVE",
"339 166 OFFCURVE",
"265 226 CURVE SMOOTH",
"239 248 OFFCURVE",
"210 243 OFFCURVE",
"178 196 CURVE SMOOTH",
"146 149 OFFCURVE",
"152 119 OFFCURVE",
"181 97 CURVE SMOOTH",
"272 26 OFFCURVE",
"399 -22 OFFCURVE",
"529 -22 CURVE SMOOTH",
"867 -22 OFFCURVE",
"1011 243 OFFCURVE",
"1011 447 CURVE SMOOTH",
"1011 645 OFFCURVE",
"892 786 OFFCURVE",
"679 786 CURVE SMOOTH",
"603 786 OFFCURVE",
"534 771 OFFCURVE",
"465 735 CURVE",
"531 1043 LINE",
"998 1043 LINE SMOOTH",
"1043 1043 OFFCURVE",
"1065 1063 OFFCURVE",
"1074 1115 CURVE SMOOTH",
"1083 1167 OFFCURVE",
"1069 1187 OFFCURVE",
"1024 1187 CURVE SMOOTH"
);
}
);
width = 1228;
}
);
unicode = 0035;
},
{
glyphname = six;
lastChange = "2015-01-12 05:49:59 +0000";
layers = (
{
background = {
paths = (
{
closed = 1;
nodes = (
"805 583 OFFCURVE",
"881 512 OFFCURVE",
"881 401 CURVE SMOOTH",
"881 288 OFFCURVE",
"799 126 OFFCURVE",
"582 126 CURVE SMOOTH",
"446 126 OFFCURVE",
"367 204 OFFCURVE",
"367 319 CURVE SMOOTH",
"367 486 OFFCURVE",
"514 583 OFFCURVE",
"667 583 CURVE SMOOTH"
);
},
{
closed = 1;
nodes = (
"1089 1063 OFFCURVE",
"1110 1083 OFFCURVE",
"1110 1142 CURVE SMOOTH",
"1110 1197 OFFCURVE",
"1087 1210 OFFCURVE",
"1057 1209 CURVE SMOOTH",
"465 1182 OFFCURVE",
"215 757 OFFCURVE",
"215 372 CURVE SMOOTH",
"215 295 OFFCURVE",
"226 229 OFFCURVE",
"248 176 CURVE SMOOTH",
"301 46 OFFCURVE",
"424 -22 OFFCURVE",
"566 -22 CURVE SMOOTH",
"872 -22 OFFCURVE",
"1035 202 OFFCURVE",
"1035 417 CURVE SMOOTH",
"1035 604 OFFCURVE",
"901 731 OFFCURVE",
"705 731 CURVE SMOOTH",
"591 731 OFFCURVE",
"483 685 OFFCURVE",
"397 600 CURVE",
"480 859 OFFCURVE",
"691 1043 OFFCURVE",
"1062 1062 CURVE"
);
}
);
};
layerId = UUID0;
name = "Regular Italic";
paths = (
{
closed = 1;
nodes = (
"547 1185 OFFCURVE",
"215 852 OFFCURVE",
"215 352 CURVE SMOOTH",
"215 155 OFFCURVE",
"321 -22 OFFCURVE",
"576 -22 CURVE SMOOTH",
"872 -22 OFFCURVE",
"1035 202 OFFCURVE",
"1035 413 CURVE SMOOTH",
"1035 604 OFFCURVE",
"901 731 OFFCURVE",
"707 731 CURVE SMOOTH",
"591 731 OFFCURVE",
"483 685 OFFCURVE",
"397 600 CURVE",
"480 859 OFFCURVE",
"691 1043 OFFCURVE",
"1062 1062 CURVE",
"1089 1063 OFFCURVE",
"1110 1083 OFFCURVE",
"1110 1142 CURVE SMOOTH",
"1110 1197 OFFCURVE",
"1087 1210 OFFCURVE",
"1057 1209 CURVE"
);
},
{
closed = 1;
nodes = (
"809 583 OFFCURVE",
"881 517 OFFCURVE",
"881 403 CURVE SMOOTH",
"881 274 OFFCURVE",
"787 126 OFFCURVE",
"582 126 CURVE SMOOTH",
"446 126 OFFCURVE",
"367 204 OFFCURVE",
"367 319 CURVE SMOOTH",
"367 486 OFFCURVE",
"518 583 OFFCURVE",
"679 583 CURVE SMOOTH"
);
}
);
width = 1228;
}
);
unicode = 0036;
},
{
glyphname = seven;
lastChange = "2015-01-12 05:49:59 +0000";
layers = (
{
layerId = UUID0;
name = "Regular Italic";
paths = (
{
closed = 1;
nodes = (
"401 1187 LINE SMOOTH",
"356 1187 OFFCURVE",
"334 1167 OFFCURVE",
"325 1115 CURVE SMOOTH",
"316 1063 OFFCURVE",
"330 1043 OFFCURVE",
"375 1043 CURVE SMOOTH",
"958 1043 LINE",
"380 56 LINE SMOOTH",
"351 7 OFFCURVE",
"394 -22 OFFCURVE",
"442 -22 CURVE SMOOTH",
"476 -22 OFFCURVE",
"512 -8 OFFCURVE",
"531 24 CURVE SMOOTH",
"1143 1079 LINE SMOOTH",
"1147 1087 OFFCURVE",
"1153 1102 OFFCURVE",
"1156 1119 CURVE SMOOTH",
"1165 1169 OFFCURVE",
"1150 1187 OFFCURVE",
"1105 1187 CURVE SMOOTH"
);
}
);
width = 1228;
}
);
unicode = 0037;
},
{
glyphname = eight;
lastChange = "2015-01-12 05:49:59 +0000";
layers = (
{
layerId = UUID0;
name = "Regular Italic";
paths = (
{
closed = 1;
nodes = (
"473 1209 OFFCURVE",
"329 999 OFFCURVE",
"329 846 CURVE SMOOTH",
"329 753 OFFCURVE",
"380 679 OFFCURVE",
"452 635 CURVE",
"307 575 OFFCURVE",
"194 458 OFFCURVE",
"194 290 CURVE SMOOTH",
"194 111 OFFCURVE",
"339 -22 OFFCURVE",
"550 -22 CURVE SMOOTH",
"855 -22 OFFCURVE",
"1012 201 OFFCURVE",
"1012 384 CURVE SMOOTH",
"1012 494 OFFCURVE",
"950 579 OFFCURVE",
"857 625 CURVE",
"975 683 OFFCURVE",
"1068 780 OFFCURVE",
"1068 923 CURVE SMOOTH",
"1068 1083 OFFCURVE",
"938 1209 OFFCURVE",
"747 1209 CURVE SMOOTH"
);
},
{
closed = 1;
nodes = (
"773 554 OFFCURVE",
"855 484 OFFCURVE",
"855 379 CURVE SMOOTH",
"855 253 OFFCURVE",
"747 126 OFFCURVE",
"566 126 CURVE SMOOTH",
"435 126 OFFCURVE",
"352 197 OFFCURVE",
"352 301 CURVE SMOOTH",
"352 424 OFFCURVE",
"457 554 OFFCURVE",
"641 554 CURVE SMOOTH"
);
},
{
closed = 1;
nodes = (
"841 1061 OFFCURVE",
"916 1004 OFFCURVE",
"916 910 CURVE SMOOTH",
"916 791 OFFCURVE",
"803 693 OFFCURVE",
"666 693 CURVE SMOOTH",
"555 693 OFFCURVE",
"480 758 OFFCURVE",
"480 847 CURVE SMOOTH",
"480 950 OFFCURVE",
"571 1061 OFFCURVE",
"731 1061 CURVE SMOOTH"
);
}
);
width = 1228;
}
);
unicode = 0038;
},
{
glyphname = nine;
lastChange = "2015-01-12 05:49:59 +0000";
layers = (
{
background = {
paths = (
{
closed = 1;
nodes = (
"424 1209 OFFCURVE",
"261 985 OFFCURVE",
"261 770 CURVE SMOOTH",
"261 583 OFFCURVE",
"395 456 OFFCURVE",
"591 456 CURVE SMOOTH",
"705 456 OFFCURVE",
"813 502 OFFCURVE",
"899 587 CURVE",
"816 328 OFFCURVE",
"605 144 OFFCURVE",
"234 125 CURVE",
"207 124 OFFCURVE",
"186 104 OFFCURVE",
"186 45 CURVE SMOOTH",
"186 -10 OFFCURVE",
"209 -23 OFFCURVE",
"239 -22 CURVE",
"495 -10 OFFCURVE",
"687 76 OFFCURVE",
"823 201 CURVE SMOOTH",
"1001 365 OFFCURVE",
"1081 597 OFFCURVE",
"1081 815 CURVE SMOOTH",
"1081 892 OFFCURVE",
"1070 958 OFFCURVE",
"1048 1011 CURVE SMOOTH",
"995 1141 OFFCURVE",
"872 1209 OFFCURVE",
"730 1209 CURVE SMOOTH"
);
},
{
closed = 1;
nodes = (
"850 1061 OFFCURVE",
"929 983 OFFCURVE",
"929 868 CURVE SMOOTH",
"929 701 OFFCURVE",
"782 604 OFFCURVE",
"629 604 CURVE SMOOTH",
"491 604 OFFCURVE",
"415 675 OFFCURVE",
"415 786 CURVE SMOOTH",
"415 899 OFFCURVE",
"497 1061 OFFCURVE",
"714 1061 CURVE SMOOTH"
);
}
);
};
layerId = UUID0;
name = "Regular Italic";
paths = (
{
closed = 1;
nodes = (
"424 1209 OFFCURVE",
"261 985 OFFCURVE",
"261 774 CURVE SMOOTH",
"261 583 OFFCURVE",
"395 456 OFFCURVE",
"589 456 CURVE SMOOTH",
"705 456 OFFCURVE",
"813 502 OFFCURVE",
"899 587 CURVE",
"816 328 OFFCURVE",
"605 144 OFFCURVE",
"234 125 CURVE",
"207 124 OFFCURVE",
"186 104 OFFCURVE",
"186 45 CURVE SMOOTH",
"186 -10 OFFCURVE",
"209 -23 OFFCURVE",
"239 -22 CURVE",
"749 2 OFFCURVE",
"1081 335 OFFCURVE",
"1081 835 CURVE SMOOTH",
"1081 1032 OFFCURVE",
"975 1209 OFFCURVE",
"720 1209 CURVE SMOOTH"
);
},
{
closed = 1;
nodes = (
"850 1061 OFFCURVE",
"929 983 OFFCURVE",
"929 868 CURVE SMOOTH",
"929 701 OFFCURVE",
"778 604 OFFCURVE",
"617 604 CURVE SMOOTH",
"487 604 OFFCURVE",
"415 670 OFFCURVE",
"415 784 CURVE SMOOTH",
"415 913 OFFCURVE",
"509 1061 OFFCURVE",
"714 1061 CURVE SMOOTH"
);
}
);
width = 1228;
}
);
unicode = 0039;
},
{
glyphname = fraction;
lastChange = "2015-01-12 05:49:59 +0000";
layers = (
{
layerId = UUID0;
name = "Regular Italic";
paths = (
{
closed = 1;
nodes = (
"104 289 LINE SMOOTH",
"83 277 OFFCURVE",
"78 250 OFFCURVE",
"93 224 CURVE SMOOTH",
"107 198 OFFCURVE",
"130 190 OFFCURVE",
"149 200 CURVE SMOOTH",
"1166 761 LINE SMOOTH",
"1187 773 OFFCURVE",
"1191 800 OFFCURVE",
"1177 826 CURVE SMOOTH",
"1163 852 OFFCURVE",
"1140 860 OFFCURVE",
"1121 850 CURVE SMOOTH"
);
}
);
width = 1228;
}
);
unicode = 2044;
},
{
glyphname = onehalf;
lastChange = "2015-01-12 05:49:59 +0000";
layers = (
{
background = {
components = (
{
disableAlignment = 1;
name = twosuperior;
transform = "{0.835, 0, 0, 0.834, 309, -619}";
},
{
disableAlignment = 1;
name = fraction;
transform = "{1, 0, 0, 1, 0, 40}";
},
{
disableAlignment = 1;
name = onesuperior;
transform = "{0.835, 0, 0, 0.834, -225, 281}";
}
);
};
layerId = UUID0;
name = "Regular Italic";
paths = (
{
closed = 1;
nodes = (
"876 494 OFFCURVE",
"780 473 OFFCURVE",
"702 432 CURVE SMOOTH",
"678 419 OFFCURVE",
"679 398 OFFCURVE",
"690 372 CURVE SMOOTH",
"701 344 OFFCURVE",
"716 329 OFFCURVE",
"743 341 CURVE SMOOTH",
"801 367 OFFCURVE",
"874 386 OFFCURVE",
"934 386 CURVE SMOOTH",
"1009 386 OFFCURVE",
"1046 351 OFFCURVE",
"1046 298 CURVE SMOOTH",
"1046 234 OFFCURVE",
"1007 191 OFFCURVE",
"926 132 CURVE SMOOTH",
"608 -102 LINE SMOOTH",
"590 -115 OFFCURVE",
"576 -132 OFFCURVE",
"572 -156 CURVE SMOOTH",
"565 -194 OFFCURVE",
"575 -216 OFFCURVE",
"601 -216 CURVE SMOOTH",
"1066 -216 LINE SMOOTH",
"1092 -216 OFFCURVE",
"1106 -201 OFFCURVE",
"1111 -164 CURVE SMOOTH",
"1116 -126 OFFCURVE",
"1104 -112 OFFCURVE",
"1077 -112 CURVE SMOOTH",
"763 -112 LINE",
"992 53 LINE SMOOTH",
"1112 140 OFFCURVE",
"1166 208 OFFCURVE",
"1166 308 CURVE SMOOTH",
"1166 423 OFFCURVE",
"1086 494 OFFCURVE",
"954 494 CURVE SMOOTH"
);
},
{
closed = 1;
nodes = (
"104 329 LINE SMOOTH",
"83 317 OFFCURVE",
"78 290 OFFCURVE",
"93 264 CURVE SMOOTH",
"107 238 OFFCURVE",
"130 230 OFFCURVE",
"149 240 CURVE SMOOTH",
"1166 801 LINE SMOOTH",
"1187 813 OFFCURVE",
"1191 840 OFFCURVE",
"1177 866 CURVE SMOOTH",
"1163 892 OFFCURVE",
"1140 900 OFFCURVE",
"1121 890 CURVE SMOOTH"
);
},
{
closed = 1;
nodes = (
"460 1394 OFFCURVE",
"453 1393 OFFCURVE",
"445 1390 CURVE SMOOTH",
"195 1314 LINE SMOOTH",
"157 1303 OFFCURVE",
"152 1285 OFFCURVE",
"160 1249 CURVE SMOOTH",
"168 1213 OFFCURVE",
"182 1208 OFFCURVE",
"212 1217 CURVE SMOOTH",
"365 1264 LINE",
"281 788 LINE",
"110 788 LINE SMOOTH",
"80 788 OFFCURVE",
"65 770 OFFCURVE",
"60 736 CURVE SMOOTH",
"55 705 OFFCURVE",
"60 684 OFFCURVE",
"92 684 CURVE SMOOTH",
"538 684 LINE SMOOTH",
"568 684 OFFCURVE",
"583 702 OFFCURVE",
"588 736 CURVE SMOOTH",
"593 767 OFFCURVE",
"588 788 OFFCURVE",
"556 788 CURVE SMOOTH",
"394 788 LINE",
"495 1359 LINE SMOOTH",
"498 1380 OFFCURVE",
"487 1394 OFFCURVE",
"466 1394 CURVE SMOOTH"
);
}
);
width = 1228;
}
);
unicode = 00BD;
},
{
glyphname = onequarter;
lastChange = "2015-01-12 05:49:59 +0000";
layers = (
{
background = {
components = (
{
disableAlignment = 1;
name = onesuperior;
transform = "{0.835, 0, 0, 0.834, -225, 281}";
},
{
disableAlignment = 1;
name = fraction;
transform = "{1, 0, 0, 1, 0, -10}";
},
{
disableAlignment = 1;
name = foursuperior;
transform = "{0.835, 0, 0, 0.835, 295, -619}";
}
);
};
layerId = UUID0;
name = "Regular Italic";
paths = (
{
closed = 1;
nodes = (
"460 1394 OFFCURVE",
"453 1393 OFFCURVE",
"445 1390 CURVE SMOOTH",
"195 1314 LINE SMOOTH",
"157 1303 OFFCURVE",
"152 1285 OFFCURVE",
"160 1249 CURVE SMOOTH",
"168 1213 OFFCURVE",
"182 1208 OFFCURVE",
"212 1217 CURVE SMOOTH",
"365 1264 LINE",
"281 788 LINE",
"110 788 LINE SMOOTH",
"80 788 OFFCURVE",
"65 770 OFFCURVE",
"60 736 CURVE SMOOTH",
"55 705 OFFCURVE",
"60 684 OFFCURVE",
"92 684 CURVE SMOOTH",
"538 684 LINE SMOOTH",
"568 684 OFFCURVE",
"583 702 OFFCURVE",
"588 736 CURVE SMOOTH",
"593 767 OFFCURVE",
"588 788 OFFCURVE",
"556 788 CURVE SMOOTH",
"394 788 LINE",
"495 1359 LINE SMOOTH",
"498 1380 OFFCURVE",
"487 1394 OFFCURVE",
"466 1394 CURVE SMOOTH"
);
},
{
closed = 1;
nodes = (
"104 279 LINE SMOOTH",
"83 267 OFFCURVE",
"78 240 OFFCURVE",
"93 214 CURVE SMOOTH",
"107 188 OFFCURVE",
"130 180 OFFCURVE",
"149 190 CURVE SMOOTH",
"1166 751 LINE SMOOTH",
"1187 763 OFFCURVE",
"1191 790 OFFCURVE",
"1177 816 CURVE SMOOTH",
"1163 842 OFFCURVE",
"1140 850 OFFCURVE",
"1121 840 CURVE SMOOTH"
);
},
{
closed = 1;
nodes = (
"1016 495 OFFCURVE",
"996 482 OFFCURVE",
"972 459 CURVE SMOOTH",
"589 81 LINE SMOOTH",
"576 67 OFFCURVE",
"565 56 OFFCURVE",
"565 18 CURVE SMOOTH",
"565 -14 OFFCURVE",
"579 -29 OFFCURVE",
"601 -29 CURVE SMOOTH",
"915 -29 LINE",
"888 -182 LINE SMOOTH",
"883 -208 OFFCURVE",
"897 -222 OFFCURVE",
"938 -222 CURVE SMOOTH",
"980 -222 OFFCURVE",
"996 -208 OFFCURVE",
"1001 -182 CURVE SMOOTH",
"1028 -29 LINE",
"1120 -29 LINE SMOOTH",
"1150 -29 OFFCURVE",
"1165 -10 OFFCURVE",
"1170 23 CURVE SMOOTH",
"1175 55 OFFCURVE",
"1170 76 OFFCURVE",
"1138 76 CURVE SMOOTH",
"1046 76 LINE",
"1112 449 LINE SMOOTH",
"1117 476 OFFCURVE",
"1083 495 OFFCURVE",
"1046 495 CURVE SMOOTH"
);
},
{
closed = 1;
nodes = (
"933 76 LINE",
"717 76 LINE",
"986 342 LINE"
);
}
);
width = 1228;
}
);
unicode = 00BC;
},
{
glyphname = threequarters;
lastChange = "2015-01-12 05:49:59 +0000";
layers = (
{
background = {
components = (
{
disableAlignment = 1;
name = threesuperior;
transform = "{0.835, 0, 0, 0.834, -192, 281}";
},
{
disableAlignment = 1;
name = foursuperior;
transform = "{0.835, 0, 0, 0.835, 295, -619}";
},
{
disableAlignment = 1;
name = fraction;
transform = "{1, 0, 0, 1, 0, 0}";
}
);
};
layerId = UUID0;
name = "Regular Italic";
paths = (
{
closed = 1;
nodes = (
"364 1394 OFFCURVE",
"285 1377 OFFCURVE",
"214 1344 CURVE SMOOTH",
"190 1333 OFFCURVE",
"183 1311 OFFCURVE",
"191 1282 CURVE SMOOTH",
"201 1247 OFFCURVE",
"220 1234 OFFCURVE",
"242 1244 CURVE SMOOTH",
"303 1270 OFFCURVE",
"365 1286 OFFCURVE",
"430 1286 CURVE SMOOTH",
"499 1286 OFFCURVE",
"545 1258 OFFCURVE",
"545 1202 CURVE SMOOTH",
"545 1133 OFFCURVE",
"501 1086 OFFCURVE",
"383 1086 CURVE SMOOTH",
"351 1086 LINE SMOOTH",
"322 1086 OFFCURVE",
"310 1066 OFFCURVE",
"305 1036 CURVE SMOOTH",
"300 1005 OFFCURVE",
"305 982 OFFCURVE",
"332 982 CURVE SMOOTH",
"376 982 LINE SMOOTH",
"458 982 OFFCURVE",
"514 962 OFFCURVE",
"514 899 CURVE SMOOTH",
"514 821 OFFCURVE",
"447 776 OFFCURVE",
"337 776 CURVE SMOOTH",
"282 776 OFFCURVE",
"214 793 OFFCURVE",
"155 821 CURVE SMOOTH",
"131 832 OFFCURVE",
"114 821 OFFCURVE",
"96 789 CURVE SMOOTH",
"79 756 OFFCURVE",
"83 736 OFFCURVE",
"101 725 CURVE SMOOTH",
"165 689 OFFCURVE",
"247 669 OFFCURVE",
"332 669 CURVE SMOOTH",
"529 669 OFFCURVE",
"632 768 OFFCURVE",
"632 907 CURVE SMOOTH",
"632 972 OFFCURVE",
"599 1018 OFFCURVE",
"541 1042 CURVE",
"619 1078 OFFCURVE",
"665 1140 OFFCURVE",
"665 1216 CURVE SMOOTH",
"665 1324 OFFCURVE",
"585 1394 OFFCURVE",
"446 1394 CURVE SMOOTH"
);
},
{
closed = 1;
nodes = (
"1016 495 OFFCURVE",
"996 482 OFFCURVE",
"972 459 CURVE SMOOTH",
"589 81 LINE SMOOTH",
"576 67 OFFCURVE",
"565 56 OFFCURVE",
"565 18 CURVE SMOOTH",
"565 -14 OFFCURVE",
"579 -29 OFFCURVE",
"601 -29 CURVE SMOOTH",
"915 -29 LINE",
"888 -182 LINE SMOOTH",
"883 -208 OFFCURVE",
"897 -222 OFFCURVE",
"938 -222 CURVE SMOOTH",
"980 -222 OFFCURVE",
"996 -208 OFFCURVE",
"1001 -182 CURVE SMOOTH",
"1028 -29 LINE",
"1120 -29 LINE SMOOTH",
"1150 -29 OFFCURVE",
"1165 -10 OFFCURVE",
"1170 23 CURVE SMOOTH",
"1175 55 OFFCURVE",
"1170 76 OFFCURVE",
"1138 76 CURVE SMOOTH",
"1046 76 LINE",
"1112 449 LINE SMOOTH",
"1117 476 OFFCURVE",
"1083 495 OFFCURVE",
"1046 495 CURVE SMOOTH"
);
},
{
closed = 1;
nodes = (
"933 76 LINE",
"717 76 LINE",
"986 342 LINE"
);
},
{
closed = 1;
nodes = (
"104 289 LINE SMOOTH",
"83 277 OFFCURVE",
"78 250 OFFCURVE",
"93 224 CURVE SMOOTH",
"107 198 OFFCURVE",
"130 190 OFFCURVE",
"149 200 CURVE SMOOTH",
"1166 761 LINE SMOOTH",
"1187 773 OFFCURVE",
"1191 800 OFFCURVE",
"1177 826 CURVE SMOOTH",
"1163 852 OFFCURVE",
"1140 860 OFFCURVE",
"1121 850 CURVE SMOOTH"
);
}
);
width = 1228;
}
);
unicode = 00BE;
},
{
glyphname = onesuperior;
lastChange = "2015-01-12 05:49:59 +0000";
layers = (
{
layerId = UUID0;
name = "Regular Italic";
paths = (
{
closed = 1;
nodes = (
"820 1334 OFFCURVE",
"812 1333 OFFCURVE",
"802 1330 CURVE SMOOTH",
"503 1239 LINE SMOOTH",
"458 1226 OFFCURVE",
"451 1204 OFFCURVE",
"461 1161 CURVE SMOOTH",
"471 1118 OFFCURVE",
"487 1111 OFFCURVE",
"523 1122 CURVE SMOOTH",
"707 1179 LINE",
"606 608 LINE",
"401 608 LINE SMOOTH",
"365 608 OFFCURVE",
"347 586 OFFCURVE",
"341 546 CURVE SMOOTH",
"335 508 OFFCURVE",
"341 483 OFFCURVE",
"380 483 CURVE SMOOTH",
"914 483 LINE SMOOTH",
"950 483 OFFCURVE",
"968 505 OFFCURVE",
"974 545 CURVE SMOOTH",
"980 583 OFFCURVE",
"974 608 OFFCURVE",
"935 608 CURVE SMOOTH",
"741 608 LINE",
"862 1292 LINE SMOOTH",
"866 1318 OFFCURVE",
"853 1334 OFFCURVE",
"827 1334 CURVE SMOOTH"
);
}
);
width = 1228;
}
);
unicode = 00B9;
},
{
glyphname = twosuperior;
lastChange = "2015-01-12 05:49:59 +0000";
layers = (
{
layerId = UUID0;
name = "Regular Italic";
paths = (
{
closed = 1;
nodes = (
"679 1334 OFFCURVE",
"564 1309 OFFCURVE",
"471 1260 CURVE SMOOTH",
"442 1245 OFFCURVE",
"443 1220 OFFCURVE",
"456 1188 CURVE SMOOTH",
"469 1155 OFFCURVE",
"488 1137 OFFCURVE",
"520 1151 CURVE SMOOTH",
"589 1182 OFFCURVE",
"677 1205 OFFCURVE",
"749 1205 CURVE SMOOTH",
"838 1205 OFFCURVE",
"883 1163 OFFCURVE",
"883 1099 CURVE SMOOTH",
"883 1023 OFFCURVE",
"836 971 OFFCURVE",
"739 900 CURVE SMOOTH",
"358 620 LINE SMOOTH",
"336 604 OFFCURVE",
"320 584 OFFCURVE",
"315 555 CURVE SMOOTH",
"307 509 OFFCURVE",
"318 483 OFFCURVE",
"350 483 CURVE SMOOTH",
"906 483 LINE SMOOTH",
"938 483 OFFCURVE",
"955 501 OFFCURVE",
"961 546 CURVE SMOOTH",
"967 591 OFFCURVE",
"952 608 OFFCURVE",
"920 608 CURVE SMOOTH",
"544 608 LINE",
"818 806 LINE SMOOTH",
"962 910 OFFCURVE",
"1026 992 OFFCURVE",
"1026 1111 CURVE SMOOTH",
"1026 1250 OFFCURVE",
"930 1334 OFFCURVE",
"773 1334 CURVE SMOOTH"
);
}
);
width = 1228;
}
);
unicode = 00B2;
},
{
glyphname = threesuperior;
lastChange = "2015-01-12 05:49:59 +0000";
layers = (
{
background = {
paths = (
{
closed = 0;
nodes = (
"423 650 LINE SMOOTH",
"417 653 OFFCURVE",
"410 655 OFFCURVE",
"404 655 CURVE SMOOTH",
"366 655 OFFCURVE",
"332 591 OFFCURVE",
"332 561 CURVE SMOOTH",
"332 548 OFFCURVE",
"336 537 OFFCURVE",
"347 530 CURVE SMOOTH"
);
},
{
closed = 0;
nodes = (
"650 965 LINE SMOOTH",
"608 965 OFFCURVE",
"593 922 OFFCURVE",
"593 884 CURVE SMOOTH",
"593 858 OFFCURVE",
"603 840 OFFCURVE",
"628 840 CURVE SMOOTH"
);
},
{
closed = 1;
nodes = (
"671 1334 OFFCURVE",
"571 1314 OFFCURVE",
"486 1274 CURVE SMOOTH",
"458 1261 OFFCURVE",
"450 1232 OFFCURVE",
"459 1200 CURVE SMOOTH",
"471 1158 OFFCURVE",
"493 1143 OFFCURVE",
"520 1155 CURVE SMOOTH",
"593 1186 OFFCURVE",
"667 1205 OFFCURVE",
"745 1205 CURVE SMOOTH",
"827 1205 OFFCURVE",
"883 1171 OFFCURVE",
"883 1104 CURVE SMOOTH",
"883 1021 OFFCURVE",
"830 965 OFFCURVE",
"689 965 CURVE SMOOTH",
"650 965 LINE SMOOTH",
"616 965 OFFCURVE",
"601 941 OFFCURVE",
"595 905 CURVE SMOOTH",
"589 868 OFFCURVE",
"595 840 OFFCURVE",
"628 840 CURVE SMOOTH",
"680 840 LINE SMOOTH",
"779 840 OFFCURVE",
"845 817 OFFCURVE",
"845 741 CURVE SMOOTH",
"845 647 OFFCURVE",
"765 594 OFFCURVE",
"633 594 CURVE SMOOTH",
"568 594 OFFCURVE",
"486 614 OFFCURVE",
"415 648 CURVE SMOOTH",
"387 661 OFFCURVE",
"366 648 OFFCURVE",
"345 609 CURVE SMOOTH",
"324 570 OFFCURVE",
"329 545 OFFCURVE",
"351 532 CURVE SMOOTH",
"427 489 OFFCURVE",
"525 465 OFFCURVE",
"617 465 CURVE SMOOTH",
"862 465 OFFCURVE",
"987 588 OFFCURVE",
"987 755 CURVE SMOOTH",
"987 835 OFFCURVE",
"946 890 OFFCURVE",
"878 915 CURVE",
"971 960 OFFCURVE",
"1026 1030 OFFCURVE",
"1026 1131 CURVE SMOOTH",
"1026 1251 OFFCURVE",
"934 1334 OFFCURVE",
"769 1334 CURVE SMOOTH"
);
}
);
};
layerId = UUID0;
name = "Regular Italic";
paths = (
{
closed = 1;
nodes = (
"666 1334 OFFCURVE",
"571 1314 OFFCURVE",
"486 1274 CURVE SMOOTH",
"458 1261 OFFCURVE",
"449 1235 OFFCURVE",
"459 1200 CURVE SMOOTH",
"471 1158 OFFCURVE",
"493 1143 OFFCURVE",
"520 1155 CURVE SMOOTH",
"593 1186 OFFCURVE",
"667 1205 OFFCURVE",
"745 1205 CURVE SMOOTH",
"827 1205 OFFCURVE",
"883 1171 OFFCURVE",
"883 1104 CURVE SMOOTH",
"883 1021 OFFCURVE",
"830 965 OFFCURVE",
"689 965 CURVE SMOOTH",
"650 965 LINE SMOOTH",
"616 965 OFFCURVE",
"601 941 OFFCURVE",
"595 905 CURVE SMOOTH",
"589 868 OFFCURVE",
"595 840 OFFCURVE",
"628 840 CURVE SMOOTH",
"680 840 LINE SMOOTH",
"779 840 OFFCURVE",
"845 817 OFFCURVE",
"845 741 CURVE SMOOTH",
"845 647 OFFCURVE",
"765 594 OFFCURVE",
"633 594 CURVE SMOOTH",
"568 594 OFFCURVE",
"486 614 OFFCURVE",
"415 648 CURVE SMOOTH",
"387 661 OFFCURVE",
"366 648 OFFCURVE",
"345 609 CURVE SMOOTH",
"324 570 OFFCURVE",
"329 545 OFFCURVE",
"351 532 CURVE SMOOTH",
"427 489 OFFCURVE",
"526 465 OFFCURVE",
"628 465 CURVE SMOOTH",
"863 465 OFFCURVE",
"987 584 OFFCURVE",
"987 751 CURVE SMOOTH",
"987 828 OFFCURVE",
"947 884 OFFCURVE",
"878 913 CURVE",
"971 956 OFFCURVE",
"1026 1030 OFFCURVE",
"1026 1121 CURVE SMOOTH",
"1026 1251 OFFCURVE",
"931 1334 OFFCURVE",
"764 1334 CURVE SMOOTH"
);
}
);
width = 1228;
}
);
unicode = 00B3;
},
{
glyphname = foursuperior;
lastChange = "2015-01-12 05:49:59 +0000";
layers = (
{
layerId = UUID0;
name = "Regular Italic";
paths = (
{
closed = 1;
nodes = (
"864 1334 OFFCURVE",
"839 1318 OFFCURVE",
"811 1291 CURVE SMOOTH",
"352 838 LINE SMOOTH",
"337 822 OFFCURVE",
"323 808 OFFCURVE",
"323 763 CURVE SMOOTH",
"323 724 OFFCURVE",
"340 707 OFFCURVE",
"367 707 CURVE SMOOTH",
"743 707 LINE",
"710 523 LINE SMOOTH",
"704 492 OFFCURVE",
"721 475 OFFCURVE",
"770 475 CURVE SMOOTH",
"820 475 OFFCURVE",
"840 492 OFFCURVE",
"846 523 CURVE SMOOTH",
"878 707 LINE",
"988 707 LINE SMOOTH",
"1024 707 OFFCURVE",
"1042 729 OFFCURVE",
"1048 769 CURVE SMOOTH",
"1054 807 OFFCURVE",
"1048 832 OFFCURVE",
"1009 832 CURVE SMOOTH",
"900 832 LINE",
"979 1279 LINE SMOOTH",
"985 1311 OFFCURVE",
"944 1334 OFFCURVE",
"900 1334 CURVE SMOOTH"
);
},
{
closed = 1;
nodes = (
"764 832 LINE",
"505 832 LINE",
"827 1151 LINE"
);
}
);
width = 1228;
}
);
unicode = 2074;
},
{
glyphname = asterisk;
lastChange = "2015-01-12 05:52:53 +0000";
layers = (
{
layerId = UUID0;
name = "Regular Italic";
paths = (
{
closed = 1;
nodes = (
"801 1127 OFFCURVE",
"828 1092 OFFCURVE",
"812 1037 CURVE SMOOTH",
"672 539 LINE",
"606 539 LINE",
"637 1037 LINE SMOOTH",
"640 1092 OFFCURVE",
"677 1127 OFFCURVE",
"739 1127 CURVE SMOOTH"
);
},
{
closed = 1;
nodes = (
"1182 695 OFFCURVE",
"1153 655 OFFCURVE",
"1097 644 CURVE SMOOTH",
"592 547 LINE",
"583 610 LINE",
"1064 812 LINE SMOOTH",
"1118 835 OFFCURVE",
"1165 813 OFFCURVE",
"1173 754 CURVE SMOOTH"
);
},
{
closed = 1;
nodes = (
"831 132 OFFCURVE",
"793 155 OFFCURVE",
"773 202 CURVE SMOOTH",
"592 628 LINE",
"653 668 LINE",
"919 283 LINE SMOOTH",
"948 241 OFFCURVE",
"946 201 OFFCURVE",
"889 167 CURVE SMOOTH"
);
},
{
closed = 1;
nodes = (
"226 217 OFFCURVE",
"225 268 OFFCURVE",
"269 308 CURVE SMOOTH",
"669 672 LINE",
"721 630 LINE",
"401 202 LINE SMOOTH",
"366 155 OFFCURVE",
"314 144 OFFCURVE",
"270 180 CURVE SMOOTH"
);
},
{
closed = 1;
nodes = (
"208 831 OFFCURVE",
"248 843 OFFCURVE",
"294 821 CURVE SMOOTH",
"721 617 LINE",
"688 554 LINE",
"221 661 LINE SMOOTH",
"169 673 OFFCURVE",
"153 710 OFFCURVE",
"180 770 CURVE SMOOTH"
);
}
);
width = 1228;
}
);
unicode = 002A;
},
{
color = 3;
glyphname = backslash;
lastChange = "2015-01-12 05:49:59 +0000";
layers = (
{
layerId = UUID0;
name = "Regular Italic";
paths = (
{
closed = 1;
nodes = (
"411 1394 OFFCURVE",
"362 1369 OFFCURVE",
"371 1330 CURVE SMOOTH",
"759 -325 LINE SMOOTH",
"764 -346 OFFCURVE",
"788 -355 OFFCURVE",
"814 -355 CURVE SMOOTH",
"858 -355 OFFCURVE",
"908 -330 OFFCURVE",
"899 -291 CURVE SMOOTH",
"511 1364 LINE SMOOTH",
"506 1385 OFFCURVE",
"481 1394 OFFCURVE",
"455 1394 CURVE SMOOTH"
);
}
);
width = 1228;
}
);
unicode = 005C;
},
{
color = 8;
glyphname = bullet;
lastChange = "2015-01-12 05:49:59 +0000";
layers = (
{
layerId = UUID0;
name = "Regular Italic";
paths = (
{
closed = 1;
nodes = (
"521 853 OFFCURVE",
"457 825 OFFCURVE",
"445 755 CURVE SMOOTH",
"392 453 LINE SMOOTH",
"380 383 OFFCURVE",
"454 355 OFFCURVE",
"617 355 CURVE SMOOTH",
"780 355 OFFCURVE",
"844 383 OFFCURVE",
"856 453 CURVE SMOOTH",
"909 755 LINE SMOOTH",
"921 825 OFFCURVE",
"847 853 OFFCURVE",
"684 853 CURVE SMOOTH"
);
}
);
width = 1228;
}
);
unicode = 2022;
},
{
glyphname = colon;
lastChange = "2015-01-12 05:49:59 +0000";
layers = (
{
background = {
paths = (
{
closed = 1;
nodes = (
"607 946 OFFCURVE",
"510 860 OFFCURVE",
"510 754 CURVE SMOOTH",
"510 673 OFFCURVE",
"571 608 OFFCURVE",
"656 608 CURVE SMOOTH",
"758 608 OFFCURVE",
"852 695 OFFCURVE",
"852 802 CURVE SMOOTH",
"852 881 OFFCURVE",
"792 946 OFFCURVE",
"707 946 CURVE SMOOTH"
);
},
{
closed = 1;
nodes = (
"495 316 OFFCURVE",
"398 230 OFFCURVE",
"398 124 CURVE SMOOTH",
"398 43 OFFCURVE",
"459 -22 OFFCURVE",
"544 -22 CURVE SMOOTH",
"646 -22 OFFCURVE",
"740 65 OFFCURVE",
"740 172 CURVE SMOOTH",
"740 251 OFFCURVE",
"680 316 OFFCURVE",
"595 316 CURVE SMOOTH"
);
}
);
};
components = (
{
name = period.squat;
transform = "{1, 0, 0, 1, 0, 0}";
},
{
name = period.squat;
transform = "{1, 0, 0, 1, 111, 630}";
}
);
layerId = UUID0;
name = "Regular Italic";
width = 1228;
}
);
unicode = 003A;
},
{
glyphname = comma;
lastChange = "2015-01-12 05:49:59 +0000";
layers = (
{
background = {
paths = (
{
closed = 1;
nodes = (
"729 231 LINE SMOOTH",
"753 266 OFFCURVE",
"745 294 OFFCURVE",
"712 294 CURVE SMOOTH",
"504 294 LINE SMOOTH",
"476 294 OFFCURVE",
"455 280 OFFCURVE",
"445 254 CURVE SMOOTH",
"261 -228 LINE SMOOTH",
"245 -270 OFFCURVE",
"273 -294 OFFCURVE",
"312 -294 CURVE SMOOTH",
"341 -294 OFFCURVE",
"367 -281 OFFCURVE",
"387 -253 CURVE SMOOTH"
);
}
);
};
layerId = UUID0;
name = "Regular Italic";
paths = (
{
closed = 1;
nodes = (
"502 294 LINE SMOOTH",
"474 294 OFFCURVE",
"452 280 OFFCURVE",
"443 254 CURVE SMOOTH",
"270 -228 LINE SMOOTH",
"255 -270 OFFCURVE",
"272 -294 OFFCURVE",
"328 -294 CURVE SMOOTH",
"376 -294 OFFCURVE",
"408 -281 OFFCURVE",
"425 -253 CURVE SMOOTH",
"717 231 LINE SMOOTH",
"738 266 OFFCURVE",
"727 294 OFFCURVE",
"694 294 CURVE SMOOTH"
);
}
);
width = 1228;
}
);
unicode = 002C;
},
{
glyphname = ellipsis;
lastChange = "2015-01-12 05:49:59 +0000";
layers = (
{
background = {
components = (
{
name = period;
transform = "{0.789, 0, 0, 0.787, -286, -5}";
},
{
name = period;
transform = "{0.789, 0, 0, 0.787, 114, -5}";
},
{
name = period;
transform = "{0.789, 0, 0, 0.787, 514, -5}";
}
);
};
layerId = UUID0;
name = "Regular Italic";
paths = (
{
closed = 1;
nodes = (
"505 230 OFFCURVE",
"477 215 OFFCURVE",
"470 177 CURVE SMOOTH",
"447 43 LINE SMOOTH",
"440 5 OFFCURVE",
"474 -10 OFFCURVE",
"548 -10 CURVE SMOOTH",
"622 -10 OFFCURVE",
"650 5 OFFCURVE",
"657 43 CURVE SMOOTH",
"680 177 LINE SMOOTH",
"687 215 OFFCURVE",
"653 230 OFFCURVE",
"579 230 CURVE SMOOTH"
);
},
{
closed = 1;
nodes = (
"105 230 OFFCURVE",
"77 215 OFFCURVE",
"70 177 CURVE SMOOTH",
"47 43 LINE SMOOTH",
"40 5 OFFCURVE",
"74 -10 OFFCURVE",
"148 -10 CURVE SMOOTH",
"222 -10 OFFCURVE",
"250 5 OFFCURVE",
"257 43 CURVE SMOOTH",
"280 177 LINE SMOOTH",
"287 215 OFFCURVE",
"253 230 OFFCURVE",
"179 230 CURVE SMOOTH"
);
},
{
closed = 1;
nodes = (
"905 230 OFFCURVE",
"877 215 OFFCURVE",
"870 177 CURVE SMOOTH",
"847 43 LINE SMOOTH",
"840 5 OFFCURVE",
"874 -10 OFFCURVE",
"948 -10 CURVE SMOOTH",
"1022 -10 OFFCURVE",
"1050 5 OFFCURVE",
"1057 43 CURVE SMOOTH",
"1080 177 LINE SMOOTH",
"1087 215 OFFCURVE",
"1053 230 OFFCURVE",
"979 230 CURVE SMOOTH"
);
}
);
width = 1228;
}
);
unicode = 2026;
},
{
color = 8;
glyphname = exclam;
lastChange = "2015-01-12 05:49:59 +0000";
layers = (
{
background = {
paths = (
{
closed = 1;
nodes = (
"682 1209 LINE SMOOTH",
"652 1209 OFFCURVE",
"635 1194 OFFCURVE",
"632 1159 CURVE SMOOTH",
"566 512 LINE SMOOTH",
"563 481 OFFCURVE",
"581 464 OFFCURVE",
"615 464 CURVE SMOOTH",
"650 464 OFFCURVE",
"673 481 OFFCURVE",
"681 512 CURVE SMOOTH",
"844 1159 LINE SMOOTH",
"853 1194 OFFCURVE",
"842 1209 OFFCURVE",
"812 1209 CURVE SMOOTH"
);
},
{
closed = 1;
nodes = (
"509 286 OFFCURVE",
"422 207 OFFCURVE",
"422 110 CURVE SMOOTH",
"422 37 OFFCURVE",
"476 -22 OFFCURVE",
"554 -22 CURVE SMOOTH",
"646 -22 OFFCURVE",
"732 57 OFFCURVE",
"732 153 CURVE SMOOTH",
"732 227 OFFCURVE",
"678 286 OFFCURVE",
"600 286 CURVE SMOOTH"
);
}
);
};
layerId = UUID0;
name = "Regular Italic";
paths = (
{
closed = 1;
nodes = (
"697 1269 LINE SMOOTH",
"667 1269 OFFCURVE",
"650 1254 OFFCURVE",
"647 1219 CURVE SMOOTH",
"570 512 LINE SMOOTH",
"567 481 OFFCURVE",
"586 464 OFFCURVE",
"620 464 CURVE SMOOTH",
"655 464 OFFCURVE",
"678 481 OFFCURVE",
"685 512 CURVE SMOOTH",
"859 1219 LINE SMOOTH",
"868 1254 OFFCURVE",
"857 1269 OFFCURVE",
"827 1269 CURVE SMOOTH"
);
},
{
closed = 1;
nodes = (
"502 270 OFFCURVE",
"469 252 OFFCURVE",
"461 207 CURVE SMOOTH",
"434 53 LINE SMOOTH",
"426 8 OFFCURVE",
"468 -10 OFFCURVE",
"556 -10 CURVE SMOOTH",
"644 -10 OFFCURVE",
"676 8 OFFCURVE",
"684 53 CURVE SMOOTH",
"711 207 LINE SMOOTH",
"719 252 OFFCURVE",
"678 270 OFFCURVE",
"590 270 CURVE SMOOTH"
);
}
);
width = 1228;
}
);
unicode = 0021;
},
{
color = 3;
glyphname = numbersign;
lastChange = "2015-01-12 05:49:59 +0000";
layers = (
{
background = {
paths = (
{
closed = 1;
nodes = (
"807 1142 LINE SMOOTH",
"827 1183 OFFCURVE",
"789 1209 OFFCURVE",
"749 1209 CURVE SMOOTH",
"725 1209 OFFCURVE",
"700 1199 OFFCURVE",
"689 1176 CURVE SMOOTH",
"135 45 LINE SMOOTH",
"115 4 OFFCURVE",
"154 -22 OFFCURVE",
"193 -22 CURVE SMOOTH",
"218 -22 OFFCURVE",
"242 -12 OFFCURVE",
"253 11 CURVE SMOOTH"
);
},
{
closed = 1;
nodes = (
"284 861 LINE SMOOTH",
"239 861 OFFCURVE",
"217 843 OFFCURVE",
"209 793 CURVE SMOOTH",
"201 743 OFFCURVE",
"215 725 OFFCURVE",
"260 725 CURVE SMOOTH",
"1182 725 LINE SMOOTH",
"1227 725 OFFCURVE",
"1248 743 OFFCURVE",
"1257 793 CURVE SMOOTH",
"1266 843 OFFCURVE",
"1251 861 OFFCURVE",
"1206 861 CURVE SMOOTH"
);
},
{
closed = 1;
nodes = (
"116 472 LINE SMOOTH",
"71 472 OFFCURVE",
"50 454 OFFCURVE",
"41 404 CURVE SMOOTH",
"32 354 OFFCURVE",
"47 336 OFFCURVE",
"92 336 CURVE SMOOTH",
"1014 336 LINE SMOOTH",
"1059 336 OFFCURVE",
"1080 354 OFFCURVE",
"1089 404 CURVE SMOOTH",
"1098 454 OFFCURVE",
"1083 472 OFFCURVE",
"1038 472 CURVE SMOOTH"
);
},
{
closed = 1;
nodes = (
"1161 1142 LINE SMOOTH",
"1181 1183 OFFCURVE",
"1143 1209 OFFCURVE",
"1103 1209 CURVE SMOOTH",
"1079 1209 OFFCURVE",
"1054 1199 OFFCURVE",
"1043 1176 CURVE SMOOTH",
"489 45 LINE SMOOTH",
"469 4 OFFCURVE",
"508 -22 OFFCURVE",
"547 -22 CURVE SMOOTH",
"572 -22 OFFCURVE",
"596 -12 OFFCURVE",
"607 11 CURVE SMOOTH"
);
}
);
};
layerId = UUID0;
name = "Regular Italic";
paths = (
{
closed = 1;
nodes = (
"1055 1209 OFFCURVE",
"1035 1199 OFFCURVE",
"1025 1176 CURVE SMOOTH",
"540 45 LINE SMOOTH",
"522 3 OFFCURVE",
"563 -22 OFFCURVE",
"606 -22 CURVE SMOOTH",
"636 -22 OFFCURVE",
"656 -12 OFFCURVE",
"666 11 CURVE SMOOTH",
"1151 1142 LINE SMOOTH",
"1169 1184 OFFCURVE",
"1128 1209 OFFCURVE",
"1085 1209 CURVE SMOOTH"
);
},
{
closed = 1;
nodes = (
"137 476 LINE SMOOTH",
"92 476 OFFCURVE",
"70 456 OFFCURVE",
"61 404 CURVE SMOOTH",
"52 352 OFFCURVE",
"67 332 OFFCURVE",
"112 332 CURVE SMOOTH",
"1024 332 LINE SMOOTH",
"1069 332 OFFCURVE",
"1090 352 OFFCURVE",
"1099 404 CURVE SMOOTH",
"1108 456 OFFCURVE",
"1094 476 OFFCURVE",
"1049 476 CURVE SMOOTH"
);
},
{
closed = 1;
nodes = (
"661 1209 OFFCURVE",
"641 1199 OFFCURVE",
"631 1176 CURVE SMOOTH",
"146 45 LINE SMOOTH",
"128 3 OFFCURVE",
"169 -22 OFFCURVE",
"212 -22 CURVE SMOOTH",
"242 -22 OFFCURVE",
"262 -12 OFFCURVE",
"272 11 CURVE SMOOTH",
"757 1142 LINE SMOOTH",
"775 1184 OFFCURVE",
"734 1209 OFFCURVE",
"691 1209 CURVE SMOOTH"
);
},
{
closed = 1;
nodes = (
"276 865 LINE SMOOTH",
"231 865 OFFCURVE",
"209 845 OFFCURVE",
"200 793 CURVE SMOOTH",
"191 741 OFFCURVE",
"205 721 OFFCURVE",
"250 721 CURVE SMOOTH",
"1162 721 LINE SMOOTH",
"1207 721 OFFCURVE",
"1229 741 OFFCURVE",
"1238 793 CURVE SMOOTH",
"1247 845 OFFCURVE",
"1233 865 OFFCURVE",
"1188 865 CURVE SMOOTH"
);
}
);
width = 1228;
}
);
unicode = 0023;
},
{
glyphname = period;
lastChange = "2015-01-12 05:49:59 +0000";
layers = (
{
background = {
paths = (
{
closed = 1;
nodes = (
"646 -22 OFFCURVE",
"740 65 OFFCURVE",
"740 172 CURVE SMOOTH",
"740 251 OFFCURVE",
"680 316 OFFCURVE",
"595 316 CURVE SMOOTH",
"495 316 OFFCURVE",
"398 230 OFFCURVE",
"398 124 CURVE SMOOTH",
"398 43 OFFCURVE",
"459 -22 OFFCURVE",
"544 -22 CURVE SMOOTH"
);
}
);
};
layerId = UUID0;
name = "Regular Italic";
paths = (
{
closed = 1;
nodes = (
"494 300 OFFCURVE",
"459 282 OFFCURVE",
"451 237 CURVE SMOOTH",
"418 53 LINE SMOOTH",
"410 8 OFFCURVE",
"455 -10 OFFCURVE",
"550 -10 CURVE SMOOTH",
"645 -10 OFFCURVE",
"680 8 OFFCURVE",
"688 53 CURVE SMOOTH",
"721 237 LINE SMOOTH",
"729 282 OFFCURVE",
"684 300 OFFCURVE",
"589 300 CURVE SMOOTH"
);
}
);
width = 1228;
}
);
unicode = 002E;
},
{
color = 8;
glyphname = question;
lastChange = "2015-01-12 05:49:59 +0000";
layers = (
{
background = {
paths = (
{
closed = 1;
nodes = (
"474 254 OFFCURVE",
"395 184 OFFCURVE",
"395 97 CURVE SMOOTH",
"395 31 OFFCURVE",
"444 -22 OFFCURVE",
"514 -22 CURVE SMOOTH",
"595 -22 OFFCURVE",
"674 48 OFFCURVE",
"674 134 CURVE SMOOTH",
"674 201 OFFCURVE",
"625 254 OFFCURVE",
"555 254 CURVE SMOOTH"
);
},
{
closed = 1;
nodes = (
"657 1269 OFFCURVE",
"547 1244 OFFCURVE",
"440 1191 CURVE SMOOTH",
"399 1171 OFFCURVE",
"382 1144 OFFCURVE",
"396 1091 CURVE SMOOTH",
"410 1039 OFFCURVE",
"441 1038 OFFCURVE",
"474 1054 CURVE SMOOTH",
"566 1098 OFFCURVE",
"656 1121 OFFCURVE",
"747 1121 CURVE SMOOTH",
"872 1121 OFFCURVE",
"928 1053 OFFCURVE",
"911 956 CURVE SMOOTH",
"893 856 OFFCURVE",
"818 806 OFFCURVE",
"655 744 CURVE SMOOTH",
"581 716 LINE SMOOTH",
"557 707 OFFCURVE",
"546 691 OFFCURVE",
"542 665 CURVE SMOOTH",
"513 440 LINE SMOOTH",
"509 409 OFFCURVE",
"531 389 OFFCURVE",
"573 389 CURVE SMOOTH",
"615 389 OFFCURVE",
"643 409 OFFCURVE",
"651 440 CURVE SMOOTH",
"691 611 LINE",
"912 695 OFFCURVE",
"1034 780 OFFCURVE",
"1065 956 CURVE SMOOTH",
"1097 1141 OFFCURVE",
"992 1269 OFFCURVE",
"772 1269 CURVE SMOOTH"
);
}
);
};
layerId = UUID0;
name = "Regular Italic";
paths = (
{
closed = 1;
nodes = (
"468 230 OFFCURVE",
"436 212 OFFCURVE",
"428 167 CURVE SMOOTH",
"408 53 LINE SMOOTH",
"400 8 OFFCURVE",
"437 -10 OFFCURVE",
"518 -10 CURVE SMOOTH",
"599 -10 OFFCURVE",
"630 8 OFFCURVE",
"638 53 CURVE SMOOTH",
"658 167 LINE SMOOTH",
"666 212 OFFCURVE",
"630 230 OFFCURVE",
"549 230 CURVE SMOOTH"
);
},
{
closed = 1;
nodes = (
"643 1269 OFFCURVE",
"529 1241 OFFCURVE",
"418 1183 CURVE SMOOTH",
"390 1168 OFFCURVE",
"375 1142 OFFCURVE",
"396 1091 CURVE SMOOTH",
"415 1045 OFFCURVE",
"440 1041 OFFCURVE",
"474 1056 CURVE SMOOTH",
"563 1095 OFFCURVE",
"656 1121 OFFCURVE",
"747 1121 CURVE SMOOTH",
"857 1121 OFFCURVE",
"913 1069 OFFCURVE",
"913 990 CURVE SMOOTH",
"913 867 OFFCURVE",
"828 809 OFFCURVE",
"655 744 CURVE SMOOTH",
"581 716 LINE SMOOTH",
"557 707 OFFCURVE",
"545 691 OFFCURVE",
"542 665 CURVE SMOOTH",
"514 440 LINE SMOOTH",
"510 409 OFFCURVE",
"532 389 OFFCURVE",
"574 389 CURVE SMOOTH",
"616 389 OFFCURVE",
"645 409 OFFCURVE",
"652 440 CURVE SMOOTH",
"690 606 LINE",
"933 696 OFFCURVE",
"1072 803 OFFCURVE",
"1072 997 CURVE SMOOTH",
"1072 1160 OFFCURVE",
"961 1269 OFFCURVE",
"762 1269 CURVE SMOOTH"
);
}
);
width = 1228;
}
);
unicode = 003F;
},
{
color = 3;
glyphname = quotesingle;
lastChange = "2015-01-12 05:49:59 +0000";
layers = (
{
layerId = UUID0;
name = "Regular Italic";
paths = (
{
closed = 1;
nodes = (
"686 1269 LINE SMOOTH",
"656 1269 OFFCURVE",
"638 1254 OFFCURVE",
"636 1219 CURVE SMOOTH",
"612 769 LINE SMOOTH",
"610 735 OFFCURVE",
"631 715 OFFCURVE",
"670 715 CURVE SMOOTH",
"710 715 OFFCURVE",
"738 735 OFFCURVE",
"748 769 CURVE SMOOTH",
"882 1219 LINE SMOOTH",
"892 1254 OFFCURVE",
"880 1269 OFFCURVE",
"850 1269 CURVE SMOOTH"
);
}
);
width = 1228;
}
);
unicode = 0027;
},
{
color = 3;
glyphname = slash;
lastChange = "2015-01-12 05:49:59 +0000";
layers = (
{
layerId = UUID0;
name = "Regular Italic";
paths = (
{
closed = 1;
nodes = (
"1078 1394 OFFCURVE",
"1055 1385 OFFCURVE",
"1042 1362 CURVE SMOOTH",
"89 -276 LINE SMOOTH",
"66 -315 OFFCURVE",
"98 -355 OFFCURVE",
"161 -355 CURVE SMOOTH",
"193 -355 OFFCURVE",
"216 -346 OFFCURVE",
"229 -323 CURVE SMOOTH",
"1182 1315 LINE SMOOTH",
"1205 1354 OFFCURVE",
"1173 1394 OFFCURVE",
"1110 1394 CURVE SMOOTH"
);
}
);
width = 1228;
}
);
unicode = 002F;
},
{
glyphname = underscore;
lastChange = "2015-01-12 05:54:13 +0000";
layers = (
{
layerId = UUID0;
name = "Regular Italic";
paths = (
{
closed = 1;
nodes = (
"79 -249 LINE SMOOTH",
"34 -249 OFFCURVE",
"13 -269 OFFCURVE",
"3 -321 CURVE SMOOTH",
"-6 -373 OFFCURVE",
"9 -393 OFFCURVE",
"54 -393 CURVE SMOOTH",
"1016 -393 LINE SMOOTH",
"1061 -393 OFFCURVE",
"1082 -373 OFFCURVE",
"1091 -321 CURVE SMOOTH",
"1101 -269 OFFCURVE",
"1086 -249 OFFCURVE",
"1041 -249 CURVE SMOOTH"
);
}
);
width = 1228;
}
);
unicode = 005F;
},
{
color = 11;
export = 0;
glyphname = period.squat;
lastChange = "2015-01-12 05:49:59 +0000";
layers = (
{
layerId = UUID0;
name = "Regular Italic";
paths = (
{
closed = 1;
nodes = (
"494 300 OFFCURVE",
"459 282 OFFCURVE",
"451 237 CURVE SMOOTH",
"418 53 LINE SMOOTH",
"410 8 OFFCURVE",
"455 -10 OFFCURVE",
"550 -10 CURVE SMOOTH",
"645 -10 OFFCURVE",
"680 8 OFFCURVE",
"688 53 CURVE SMOOTH",
"721 237 LINE SMOOTH",
"729 282 OFFCURVE",
"684 300 OFFCURVE",
"589 300 CURVE SMOOTH"
);
}
);
width = 1228;
}
);
},
{
color = 8;
glyphname = braceleft;
lastChange = "2015-01-12 05:49:59 +0000";
layers = (
{
background = {
paths = (
{
closed = 1;
nodes = (
"775 1312 OFFCURVE",
"628 1210 OFFCURVE",
"583 956 CURVE SMOOTH",
"550 770 LINE SMOOTH",
"525 625 OFFCURVE",
"443 553 OFFCURVE",
"296 553 CURVE SMOOTH",
"251 553 OFFCURVE",
"230 531 OFFCURVE",
"221 481 CURVE SMOOTH",
"212 431 OFFCURVE",
"227 409 OFFCURVE",
"272 409 CURVE SMOOTH",
"419 409 OFFCURVE",
"474 338 OFFCURVE",
"449 193 CURVE SMOOTH",
"414 -3 LINE SMOOTH",
"369 -257 OFFCURVE",
"477 -393 OFFCURVE",
"707 -393 CURVE SMOOTH",
"752 -393 OFFCURVE",
"774 -373 OFFCURVE",
"783 -321 CURVE SMOOTH",
"792 -269 OFFCURVE",
"778 -249 OFFCURVE",
"733 -249 CURVE SMOOTH",
"579 -249 OFFCURVE",
"533 -177 OFFCURVE",
"563 -8 CURVE SMOOTH",
"600 203 LINE SMOOTH",
"622 325 OFFCURVE",
"589 424 OFFCURVE",
"502 482 CURVE",
"610 540 OFFCURVE",
"678 638 OFFCURVE",
"699 760 CURVE SMOOTH",
"728 927 LINE SMOOTH",
"756 1090 OFFCURVE",
"835 1168 OFFCURVE",
"982 1168 CURVE SMOOTH",
"1027 1168 OFFCURVE",
"1049 1188 OFFCURVE",
"1058 1240 CURVE SMOOTH",
"1067 1292 OFFCURVE",
"1053 1312 OFFCURVE",
"1008 1312 CURVE SMOOTH"
);
}
);
};
layerId = UUID0;
name = "Regular Italic";
paths = (
{
closed = 1;
nodes = (
"806 1372 OFFCURVE",
"641 1256 OFFCURVE",
"607 975 CURVE SMOOTH",
"596 885 LINE SMOOTH",
"575 717 OFFCURVE",
"479 613 OFFCURVE",
"276 613 CURVE SMOOTH",
"231 613 OFFCURVE",
"209 593 OFFCURVE",
"202 541 CURVE SMOOTH",
"195 489 OFFCURVE",
"210 469 OFFCURVE",
"255 469 CURVE SMOOTH",
"468 469 OFFCURVE",
"519 376 OFFCURVE",
"480 203 CURVE SMOOTH",
"459 110 LINE SMOOTH",
"394 -180 OFFCURVE",
"531 -333 OFFCURVE",
"810 -333 CURVE SMOOTH",
"855 -333 OFFCURVE",
"877 -313 OFFCURVE",
"884 -261 CURVE SMOOTH",
"891 -209 OFFCURVE",
"879 -189 OFFCURVE",
"834 -189 CURVE SMOOTH",
"632 -189 OFFCURVE",
"563 -96 OFFCURVE",
"605 101 CURVE SMOOTH",
"629 213 LINE SMOOTH",
"661 364 OFFCURVE",
"615 475 OFFCURVE",
"450 536 CURVE",
"451 546 LINE",
"633 599 OFFCURVE",
"719 705 OFFCURVE",
"742 875 CURVE SMOOTH",
"752 947 LINE SMOOTH",
"779 1143 OFFCURVE",
"862 1228 OFFCURVE",
"1066 1228 CURVE SMOOTH",
"1111 1228 OFFCURVE",
"1132 1248 OFFCURVE",
"1139 1300 CURVE SMOOTH",
"1146 1352 OFFCURVE",
"1130 1372 OFFCURVE",
"1085 1372 CURVE SMOOTH"
);
}
);
width = 1228;
}
);
unicode = 007B;
},
{
color = 8;
glyphname = braceright;
lastChange = "2015-01-12 05:49:59 +0000";
layers = (
{
background = {
paths = (
{
closed = 1;
nodes = (
"406 1372 OFFCURVE",
"384 1352 OFFCURVE",
"375 1300 CURVE SMOOTH",
"366 1248 OFFCURVE",
"381 1228 OFFCURVE",
"426 1228 CURVE SMOOTH",
"638 1228 OFFCURVE",
"691 1143 OFFCURVE",
"648 947 CURVE SMOOTH",
"632 875 LINE SMOOTH",
"597 715 OFFCURVE",
"649 615 OFFCURVE",
"807 546 CURVE",
"806 536 LINE",
"612 481 OFFCURVE",
"528 374 OFFCURVE",
"511 213 CURVE SMOOTH",
"497 92 LINE SMOOTH",
"475 -105 OFFCURVE",
"378 -189 OFFCURVE",
"176 -189 CURVE SMOOTH",
"131 -189 OFFCURVE",
"109 -209 OFFCURVE",
"100 -261 CURVE SMOOTH",
"91 -313 OFFCURVE",
"105 -333 OFFCURVE",
"150 -333 CURVE SMOOTH",
"429 -333 OFFCURVE",
"621 -201 OFFCURVE",
"645 80 CURVE SMOOTH",
"656 203 LINE SMOOTH",
"671 376 OFFCURVE",
"766 469 OFFCURVE",
"979 469 CURVE SMOOTH",
"1024 469 OFFCURVE",
"1045 489 OFFCURVE",
"1054 541 CURVE SMOOTH",
"1064 593 OFFCURVE",
"1049 613 OFFCURVE",
"1004 613 CURVE SMOOTH",
"801 613 OFFCURVE",
"741 717 OFFCURVE",
"782 885 CURVE SMOOTH",
"800 959 LINE SMOOTH",
"869 1240 OFFCURVE",
"730 1372 OFFCURVE",
"451 1372 CURVE SMOOTH"
);
}
);
};
layerId = UUID0;
leftMetricsKey = "=|braceleft";
rightMetricsKey = "=|braceleft";
name = "Regular Italic";
paths = (
{
closed = 1;
nodes = (
"443 -333 OFFCURVE",
"608 -214 OFFCURVE",
"642 64 CURVE SMOOTH",
"658 194 LINE SMOOTH",
"678 360 OFFCURVE",
"777 469 OFFCURVE",
"980 469 CURVE SMOOTH",
"1025 469 OFFCURVE",
"1047 489 OFFCURVE",
"1054 541 CURVE SMOOTH",
"1061 593 OFFCURVE",
"1046 613 OFFCURVE",
"1001 613 CURVE SMOOTH",
"794 613 OFFCURVE",
"746 702 OFFCURVE",
"780 877 CURVE SMOOTH",
"790 929 LINE SMOOTH",
"846 1221 OFFCURVE",
"718 1372 OFFCURVE",
"439 1372 CURVE SMOOTH",
"394 1372 OFFCURVE",
"372 1352 OFFCURVE",
"365 1300 CURVE SMOOTH",
"358 1248 OFFCURVE",
"370 1228 OFFCURVE",
"415 1228 CURVE SMOOTH",
"617 1228 OFFCURVE",
"680 1137 OFFCURVE",
"644 938 CURVE SMOOTH",
"633 877 LINE SMOOTH",
"606 729 OFFCURVE",
"647 611 OFFCURVE",
"806 550 CURVE",
"805 540 LINE",
"623 487 OFFCURVE",
"536 378 OFFCURVE",
"513 210 CURVE SMOOTH",
"497 92 LINE SMOOTH",
"471 -102 OFFCURVE",
"387 -189 OFFCURVE",
"183 -189 CURVE SMOOTH",
"138 -189 OFFCURVE",
"117 -209 OFFCURVE",
"110 -261 CURVE SMOOTH",
"103 -313 OFFCURVE",
"119 -333 OFFCURVE",
"164 -333 CURVE SMOOTH"
);
}
);
width = 1228;
}
);
leftMetricsKey = "=|braceleft";
rightMetricsKey = "=|braceleft";
unicode = 007D;
},
{
color = 3;
glyphname = bracketleft;
lastChange = "2015-01-12 05:49:59 +0000";
layers = (
{
background = {
paths = (
{
closed = 1;
nodes = (
"565 1372 LINE SMOOTH",
"520 1372 OFFCURVE",
"499 1354 OFFCURVE",
"490 1304 CURVE SMOOTH",
"213 -265 LINE SMOOTH",
"204 -315 OFFCURVE",
"219 -333 OFFCURVE",
"264 -333 CURVE SMOOTH",
"351 -333 LINE",
"652 1372 LINE"
);
},
{
closed = 1;
nodes = (
"352 -189 LINE",
"326 -333 LINE",
"678 -333 LINE SMOOTH",
"723 -333 OFFCURVE",
"745 -313 OFFCURVE",
"754 -261 CURVE SMOOTH",
"763 -209 OFFCURVE",
"749 -189 OFFCURVE",
"704 -189 CURVE SMOOTH"
);
},
{
closed = 1;
nodes = (
"627 1372 LINE",
"602 1228 LINE",
"954 1228 LINE SMOOTH",
"999 1228 OFFCURVE",
"1020 1248 OFFCURVE",
"1029 1300 CURVE SMOOTH",
"1038 1352 OFFCURVE",
"1024 1372 OFFCURVE",
"979 1372 CURVE SMOOTH"
);
}
);
};
layerId = UUID0;
name = "Regular Italic";
paths = (
{
closed = 1;
nodes = (
"565 1372 LINE SMOOTH",
"520 1372 OFFCURVE",
"499 1354 OFFCURVE",
"490 1304 CURVE SMOOTH",
"213 -265 LINE SMOOTH",
"204 -315 OFFCURVE",
"219 -333 OFFCURVE",
"264 -333 CURVE SMOOTH",
"678 -333 LINE SMOOTH",
"723 -333 OFFCURVE",
"745 -313 OFFCURVE",
"754 -261 CURVE SMOOTH",
"763 -209 OFFCURVE",
"749 -189 OFFCURVE",
"704 -189 CURVE SMOOTH",
"377 -189 LINE",
"626 1228 LINE",
"953 1228 LINE SMOOTH",
"998 1228 OFFCURVE",
"1020 1248 OFFCURVE",
"1029 1300 CURVE SMOOTH",
"1038 1352 OFFCURVE",
"1024 1372 OFFCURVE",
"979 1372 CURVE SMOOTH"
);
}
);
width = 1228;
}
);
unicode = 005B;
},
{
color = 3;
glyphname = bracketright;
lastChange = "2015-01-12 05:49:59 +0000";
layers = (
{
background = {
paths = (
{
closed = 1;
nodes = (
"920 1372 LINE",
"619 -333 LINE",
"706 -333 LINE",
"751 -333 OFFCURVE",
"772 -315 OFFCURVE",
"781 -265 CURVE SMOOTH",
"1058 1304 LINE SMOOTH",
"1067 1354 OFFCURVE",
"1052 1372 OFFCURVE",
"1007 1372 CURVE"
);
},
{
closed = 1;
nodes = (
"318 -189 LINE SMOOTH",
"273 -189 OFFCURVE",
"251 -209 OFFCURVE",
"242 -261 CURVE SMOOTH",
"233 -313 OFFCURVE",
"247 -333 OFFCURVE",
"292 -333 CURVE SMOOTH",
"644 -333 LINE",
"670 -189 LINE"
);
},
{
closed = 1;
nodes = (
"593 1372 LINE SMOOTH",
"548 1372 OFFCURVE",
"526 1352 OFFCURVE",
"517 1300 CURVE SMOOTH",
"508 1248 OFFCURVE",
"523 1228 OFFCURVE",
"568 1228 CURVE SMOOTH",
"920 1228 LINE",
"945 1372 LINE"
);
}
);
};
layerId = UUID0;
name = "Regular Italic";
paths = (
{
closed = 1;
nodes = (
"593 1372 LINE SMOOTH",
"548 1372 OFFCURVE",
"526 1352 OFFCURVE",
"517 1300 CURVE SMOOTH",
"508 1248 OFFCURVE",
"522 1228 OFFCURVE",
"567 1228 CURVE SMOOTH",
"894 1228 LINE",
"645 -189 LINE",
"318 -189 LINE SMOOTH",
"273 -189 OFFCURVE",
"251 -209 OFFCURVE",
"242 -261 CURVE SMOOTH",
"233 -313 OFFCURVE",
"247 -333 OFFCURVE",
"292 -333 CURVE SMOOTH",
"706 -333 LINE SMOOTH",
"751 -333 OFFCURVE",
"772 -315 OFFCURVE",
"781 -265 CURVE SMOOTH",
"1058 1304 LINE SMOOTH",
"1067 1354 OFFCURVE",
"1052 1372 OFFCURVE",
"1007 1372 CURVE SMOOTH"
);
}
);
width = 1228;
}
);
unicode = 005D;
},
{
color = 3;
glyphname = parenleft;
lastChange = "2015-01-12 05:49:59 +0000";
layers = (
{
background = {
paths = (
{
closed = 1;
nodes = (
"696 1241 OFFCURVE",
"393 940 OFFCURVE",
"318 517 CURVE SMOOTH",
"244 94 OFFCURVE",
"441 -203 OFFCURVE",
"642 -337 CURVE",
"668 -354 OFFCURVE",
"701 -333 OFFCURVE",
"725 -303 CURVE SMOOTH",
"748 -273 OFFCURVE",
"762 -234 OFFCURVE",
"743 -220 CURVE SMOOTH",
"568 -90 OFFCURVE",
"401 146 OFFCURVE",
"466 517 CURVE SMOOTH",
"532 888 OFFCURVE",
"783 1128 OFFCURVE",
"1004 1258 CURVE SMOOTH",
"1027 1272 OFFCURVE",
"1027 1311 OFFCURVE",
"1014 1341 CURVE SMOOTH",
"1002 1371 OFFCURVE",
"975 1392 OFFCURVE",
"943 1375 CURVE SMOOTH"
);
}
);
};
layerId = UUID0;
name = "Regular Italic";
paths = (
{
closed = 1;
nodes = (
"567 1193 OFFCURVE",
"304 788 OFFCURVE",
"304 362 CURVE SMOOTH",
"304 27 OFFCURVE",
"471 -221 OFFCURVE",
"641 -337 CURVE SMOOTH",
"666 -354 OFFCURVE",
"696 -339 OFFCURVE",
"718 -315 CURVE SMOOTH",
"743 -288 OFFCURVE",
"756 -249 OFFCURVE",
"737 -235 CURVE SMOOTH",
"588 -124 OFFCURVE",
"451 76 OFFCURVE",
"451 362 CURVE SMOOTH",
"451 743 OFFCURVE",
"662 1067 OFFCURVE",
"1001 1243 CURVE SMOOTH",
"1026 1256 OFFCURVE",
"1026 1299 OFFCURVE",
"1011 1334 CURVE SMOOTH",
"998 1366 OFFCURVE",
"972 1390 OFFCURVE",
"940 1375 CURVE SMOOTH"
);
}
);
width = 1228;
}
);
unicode = 0028;
},
{
color = 3;
glyphname = parenright;
lastChange = "2015-01-12 05:49:59 +0000";
layers = (
{
background = {
paths = (
{
closed = 1;
nodes = (
"603 1392 OFFCURVE",
"570 1371 OFFCURVE",
"546 1341 CURVE SMOOTH",
"523 1311 OFFCURVE",
"509 1272 OFFCURVE",
"528 1258 CURVE SMOOTH",
"703 1128 OFFCURVE",
"870 888 OFFCURVE",
"804 517 CURVE SMOOTH",
"739 146 OFFCURVE",
"488 -90 OFFCURVE",
"267 -220 CURVE SMOOTH",
"244 -234 OFFCURVE",
"244 -273 OFFCURVE",
"257 -303 CURVE SMOOTH",
"269 -333 OFFCURVE",
"296 -354 OFFCURVE",
"328 -337 CURVE SMOOTH",
"575 -203 OFFCURVE",
"878 94 OFFCURVE",
"952 517 CURVE SMOOTH",
"1027 940 OFFCURVE",
"830 1241 OFFCURVE",
"629 1375 CURVE SMOOTH"
);
}
);
};
layerId = UUID0;
name = "Regular Italic";
paths = (
{
closed = 1;
nodes = (
"604 1391 OFFCURVE",
"574 1376 OFFCURVE",
"552 1352 CURVE SMOOTH",
"527 1325 OFFCURVE",
"514 1286 OFFCURVE",
"533 1272 CURVE SMOOTH",
"682 1161 OFFCURVE",
"819 961 OFFCURVE",
"819 675 CURVE",
"819 294 OFFCURVE",
"608 -30 OFFCURVE",
"269 -206 CURVE SMOOTH",
"244 -219 OFFCURVE",
"244 -262 OFFCURVE",
"259 -297 CURVE SMOOTH",
"272 -329 OFFCURVE",
"298 -353 OFFCURVE",
"330 -338 CURVE SMOOTH",
"703 -156 OFFCURVE",
"966 249 OFFCURVE",
"966 675 CURVE SMOOTH",
"966 1010 OFFCURVE",
"799 1258 OFFCURVE",
"629 1374 CURVE SMOOTH"
);
}
);
width = 1228;
}
);
unicode = 0029;
},
{
glyphname = hyphen.alt;
lastChange = "2015-01-12 05:49:59 +0000";
layers = (
{
layerId = UUID0;
name = "Regular Italic";
paths = (
{
closed = 1;
nodes = (
"379 660 LINE SMOOTH",
"334 660 OFFCURVE",
"313 642 OFFCURVE",
"302 582 CURVE SMOOTH",
"292 522 OFFCURVE",
"306 504 OFFCURVE",
"351 504 CURVE SMOOTH",
"913 504 LINE SMOOTH",
"958 504 OFFCURVE",
"980 522 OFFCURVE",
"990 582 CURVE SMOOTH",
"1001 642 OFFCURVE",
"986 660 OFFCURVE",
"941 660 CURVE SMOOTH"
);
}
);
width = 1228;
}
);
},
{
glyphname = emdash.alt1;
lastChange = "2015-01-12 05:49:59 +0000";
layers = (
{
layerId = UUID0;
name = "Regular Italic";
paths = (
{
closed = 1;
nodes = (
"-321 654 LINE SMOOTH",
"-366 654 OFFCURVE",
"-388 634 OFFCURVE",
"-397 582 CURVE SMOOTH",
"-406 530 OFFCURVE",
"-392 510 OFFCURVE",
"-347 510 CURVE SMOOTH",
"1614 510 LINE SMOOTH",
"1659 510 OFFCURVE",
"1681 530 OFFCURVE",
"1690 582 CURVE SMOOTH",
"1699 634 OFFCURVE",
"1685 654 OFFCURVE",
"1640 654 CURVE SMOOTH"
);
}
);
width = 1228;
}
);
},
{
glyphname = emdash.alt2;
lastChange = "2015-01-12 05:49:59 +0000";
layers = (
{
layerId = UUID0;
name = "Regular Italic";
paths = (
{
closed = 1;
nodes = (
"92 654 LINE SMOOTH",
"47 654 OFFCURVE",
"25 634 OFFCURVE",
"16 582 CURVE SMOOTH",
"7 530 OFFCURVE",
"21 510 OFFCURVE",
"66 510 CURVE SMOOTH",
"2428 510 LINE SMOOTH",
"2473 510 OFFCURVE",
"2495 530 OFFCURVE",
"2504 582 CURVE SMOOTH",
"2513 634 OFFCURVE",
"2499 654 OFFCURVE",
"2454 654 CURVE SMOOTH"
);
}
);
width = 2456;
}
);
},
{
glyphname = emdash.alt3;
lastChange = "2015-01-12 05:49:59 +0000";
layers = (
{
layerId = UUID0;
name = "Regular Italic";
paths = (
{
closed = 1;
nodes = (
"392 654 LINE SMOOTH",
"347 654 OFFCURVE",
"325 634 OFFCURVE",
"316 582 CURVE SMOOTH",
"307 530 OFFCURVE",
"321 510 OFFCURVE",
"366 510 CURVE SMOOTH",
"2128 510 LINE SMOOTH",
"2173 510 OFFCURVE",
"2195 530 OFFCURVE",
"2204 582 CURVE SMOOTH",
"2213 634 OFFCURVE",
"2199 654 OFFCURVE",
"2154 654 CURVE SMOOTH"
);
}
);
width = 2456;
}
);
},
{
glyphname = emdash.alt4;
lastChange = "2015-01-12 05:49:59 +0000";
layers = (
{
layerId = UUID0;
name = "Regular Italic";
paths = (
{
closed = 1;
nodes = (
"-121 654 LINE SMOOTH",
"-166 654 OFFCURVE",
"-188 634 OFFCURVE",
"-197 582 CURVE SMOOTH",
"-206 530 OFFCURVE",
"-192 510 OFFCURVE",
"-147 510 CURVE SMOOTH",
"1414 510 LINE SMOOTH",
"1459 510 OFFCURVE",
"1481 530 OFFCURVE",
"1490 582 CURVE SMOOTH",
"1499 634 OFFCURVE",
"1485 654 OFFCURVE",
"1440 654 CURVE SMOOTH"
);
}
);
width = 1228;
}
);
},
{
glyphname = emdash;
lastChange = "2015-01-12 05:49:59 +0000";
layers = (
{
layerId = UUID0;
name = "Regular Italic";
paths = (
{
closed = 1;
nodes = (
"78 654 LINE SMOOTH",
"33 654 OFFCURVE",
"11 634 OFFCURVE",
"2 582 CURVE SMOOTH",
"-7 530 OFFCURVE",
"7 510 OFFCURVE",
"52 510 CURVE SMOOTH",
"1214 510 LINE SMOOTH",
"1259 510 OFFCURVE",
"1281 530 OFFCURVE",
"1290 582 CURVE SMOOTH",
"1299 634 OFFCURVE",
"1285 654 OFFCURVE",
"1240 654 CURVE SMOOTH"
);
}
);
width = 1228;
}
);
unicode = 2014;
},
{
glyphname = endash;
lastChange = "2015-01-12 05:49:59 +0000";
layers = (
{
layerId = UUID0;
name = "Regular Italic";
paths = (
{
closed = 1;
nodes = (
"278 654 LINE SMOOTH",
"233 654 OFFCURVE",
"211 634 OFFCURVE",
"202 582 CURVE SMOOTH",
"193 530 OFFCURVE",
"207 510 OFFCURVE",
"252 510 CURVE SMOOTH",
"1014 510 LINE SMOOTH",
"1059 510 OFFCURVE",
"1081 530 OFFCURVE",
"1090 582 CURVE SMOOTH",
"1099 634 OFFCURVE",
"1085 654 OFFCURVE",
"1040 654 CURVE SMOOTH"
);
}
);
width = 1228;
}
);
unicode = 2013;
},
{
glyphname = hyphen;
lastChange = "2015-01-12 05:49:59 +0000";
layers = (
{
layerId = UUID0;
name = "Regular Italic";
paths = (
{
closed = 1;
nodes = (
"278 654 LINE SMOOTH",
"233 654 OFFCURVE",
"211 634 OFFCURVE",
"202 582 CURVE SMOOTH",
"193 530 OFFCURVE",
"207 510 OFFCURVE",
"252 510 CURVE SMOOTH",
"1014 510 LINE SMOOTH",
"1059 510 OFFCURVE",
"1081 530 OFFCURVE",
"1090 582 CURVE SMOOTH",
"1099 634 OFFCURVE",
"1085 654 OFFCURVE",
"1040 654 CURVE SMOOTH"
);
}
);
width = 1228;
}
);
unicode = 002D;
},
{
color = 8;
glyphname = guillemetleft;
lastChange = "2015-01-12 05:49:59 +0000";
layers = (
{
background = {
components = (
{
name = guilsinglleft;
transform = "{1, 0, 0, 1, -240, 0}";
},
{
name = guilsinglleft;
transform = "{1, 0, 0, 1, 240, 0}";
}
);
};
layerId = UUID0;
name = "Regular Italic";
paths = (
{
closed = 1;
nodes = (
"583 950 OFFCURVE",
"552 954 OFFCURVE",
"530 934 CURVE SMOOTH",
"184 620 LINE SMOOTH",
"170 608 OFFCURVE",
"169 586 OFFCURVE",
"179 572 CURVE SMOOTH",
"448 201 LINE SMOOTH",
"465 177 OFFCURVE",
"497 174 OFFCURVE",
"541 204 CURVE SMOOTH",
"582 233 OFFCURVE",
"585 260 OFFCURVE",
"567 285 CURVE SMOOTH",
"349 578 LINE",
"628 827 LINE SMOOTH",
"652 849 OFFCURVE",
"654 875 OFFCURVE",
"620 911 CURVE SMOOTH"
);
},
{
closed = 1;
nodes = (
"1083 950 OFFCURVE",
"1051 954 OFFCURVE",
"1030 934 CURVE SMOOTH",
"664 600 LINE SMOOTH",
"650 588 OFFCURVE",
"649 566 OFFCURVE",
"659 552 CURVE SMOOTH",
"908 201 LINE SMOOTH",
"925 177 OFFCURVE",
"957 174 OFFCURVE",
"1001 204 CURVE SMOOTH",
"1042 233 OFFCURVE",
"1045 260 OFFCURVE",
"1027 285 CURVE SMOOTH",
"829 558 LINE",
"1128 827 LINE SMOOTH",
"1152 849 OFFCURVE",
"1154 875 OFFCURVE",
"1120 911 CURVE SMOOTH"
);
}
);
width = 1228;
}
);
unicode = 00AB;
},
{
color = 8;
glyphname = guillemetright;
lastChange = "2015-01-12 05:49:59 +0000";
layers = (
{
background = {
components = (
{
name = guilsinglright;
transform = "{1, 0, 0, 1, -240, 0}";
},
{
name = guilsinglright;
transform = "{1, 0, 0, 1, 240, 0}";
}
);
};
layerId = UUID0;
name = "Regular Italic";
paths = (
{
closed = 1;
nodes = (
"244 895 OFFCURVE",
"241 868 OFFCURVE",
"259 843 CURVE SMOOTH",
"457 570 LINE",
"158 301 LINE SMOOTH",
"134 279 OFFCURVE",
"132 253 OFFCURVE",
"166 217 CURVE SMOOTH",
"203 178 OFFCURVE",
"235 174 OFFCURVE",
"256 194 CURVE SMOOTH",
"622 528 LINE SMOOTH",
"636 540 OFFCURVE",
"637 562 OFFCURVE",
"627 576 CURVE SMOOTH",
"378 927 LINE SMOOTH",
"361 951 OFFCURVE",
"329 954 OFFCURVE",
"285 924 CURVE SMOOTH"
);
},
{
closed = 1;
nodes = (
"704 895 OFFCURVE",
"700 868 OFFCURVE",
"719 843 CURVE SMOOTH",
"937 550 LINE",
"658 301 LINE SMOOTH",
"634 279 OFFCURVE",
"632 253 OFFCURVE",
"666 217 CURVE SMOOTH",
"703 178 OFFCURVE",
"734 174 OFFCURVE",
"756 194 CURVE SMOOTH",
"1102 508 LINE SMOOTH",
"1116 520 OFFCURVE",
"1117 542 OFFCURVE",
"1107 556 CURVE SMOOTH",
"838 927 LINE SMOOTH",
"821 951 OFFCURVE",
"789 954 OFFCURVE",
"745 924 CURVE SMOOTH"
);
}
);
width = 1228;
}
);
unicode = 00BB;
},
{
color = 8;
glyphname = guilsinglleft;
lastChange = "2015-01-12 05:49:59 +0000";
layers = (
{
background = {
paths = (
{
closed = 1;
nodes = (
"808 949 OFFCURVE",
"766 954 OFFCURVE",
"743 925 CURVE SMOOTH",
"488 599 LINE SMOOTH",
"476 584 OFFCURVE",
"473 566 OFFCURVE",
"479 551 CURVE SMOOTH",
"620 225 LINE SMOOTH",
"633 196 OFFCURVE",
"675 192 OFFCURVE",
"710 204 CURVE SMOOTH",
"745 216 OFFCURVE",
"772 242 OFFCURVE",
"758 275 CURVE SMOOTH",
"634 560 LINE",
"859 845 LINE SMOOTH",
"884 878 OFFCURVE",
"867 911 OFFCURVE",
"838 930 CURVE SMOOTH"
);
}
);
};
layerId = UUID0;
name = "Regular Italic";
paths = (
{
closed = 1;
nodes = (
"843 950 OFFCURVE",
"811 954 OFFCURVE",
"790 934 CURVE SMOOTH",
"434 610 LINE SMOOTH",
"420 598 OFFCURVE",
"419 576 OFFCURVE",
"429 562 CURVE SMOOTH",
"688 201 LINE SMOOTH",
"705 177 OFFCURVE",
"737 174 OFFCURVE",
"781 204 CURVE SMOOTH",
"822 233 OFFCURVE",
"826 260 OFFCURVE",
"807 285 CURVE SMOOTH",
"599 568 LINE",
"888 827 LINE SMOOTH",
"912 849 OFFCURVE",
"914 875 OFFCURVE",
"880 911 CURVE SMOOTH"
);
}
);
width = 1228;
}
);
unicode = 2039;
},
{
color = 8;
glyphname = guilsinglright;
lastChange = "2015-01-12 05:49:59 +0000";
layers = (
{
background = {
paths = (
{
closed = 1;
nodes = (
"476 885 OFFCURVE",
"471 859 OFFCURVE",
"488 835 CURVE SMOOTH",
"686 564 LINE",
"393 293 LINE SMOOTH",
"367 269 OFFCURVE",
"363 243 OFFCURVE",
"395 210 CURVE SMOOTH",
"430 175 OFFCURVE",
"462 175 OFFCURVE",
"485 197 CURVE SMOOTH",
"851 540 LINE SMOOTH",
"866 553 OFFCURVE",
"869 575 OFFCURVE",
"860 588 CURVE SMOOTH",
"614 931 LINE SMOOTH",
"599 953 OFFCURVE",
"567 953 OFFCURVE",
"520 918 CURVE SMOOTH"
);
},
{
closed = 1;
nodes = (
"545 934 OFFCURVE",
"518 908 OFFCURVE",
"532 875 CURVE SMOOTH",
"656 590 LINE",
"431 305 LINE",
"406 272 OFFCURVE",
"423 239 OFFCURVE",
"452 220 CURVE SMOOTH",
"482 201 OFFCURVE",
"524 196 OFFCURVE",
"547 225 CURVE SMOOTH",
"802 551 LINE SMOOTH",
"814 566 OFFCURVE",
"817 584 OFFCURVE",
"811 599 CURVE SMOOTH",
"670 925 LINE SMOOTH",
"657 954 OFFCURVE",
"615 958 OFFCURVE",
"580 946 CURVE SMOOTH"
);
}
);
};
layerId = UUID0;
name = "Regular Italic";
paths = (
{
closed = 1;
nodes = (
"464 895 OFFCURVE",
"460 868 OFFCURVE",
"479 843 CURVE SMOOTH",
"687 560 LINE",
"398 301 LINE SMOOTH",
"374 279 OFFCURVE",
"372 253 OFFCURVE",
"406 217 CURVE SMOOTH",
"443 178 OFFCURVE",
"475 174 OFFCURVE",
"496 194 CURVE SMOOTH",
"852 518 LINE SMOOTH",
"866 530 OFFCURVE",
"867 552 OFFCURVE",
"857 566 CURVE SMOOTH",
"598 927 LINE SMOOTH",
"581 951 OFFCURVE",
"549 954 OFFCURVE",
"505 924 CURVE SMOOTH"
);
}
);
width = 1228;
}
);
unicode = 203A;
},
{
color = 3;
glyphname = quotedblbase;
lastChange = "2015-01-12 05:49:59 +0000";
layers = (
{
background = {
paths = (
{
closed = 1;
nodes = (
"567 231 LINE SMOOTH",
"591 266 OFFCURVE",
"583 294 OFFCURVE",
"550 294 CURVE SMOOTH",
"361 294 LINE SMOOTH",
"333 294 OFFCURVE",
"312 280 OFFCURVE",
"302 254 CURVE SMOOTH",
"128 -192 LINE SMOOTH",
"111 -235 OFFCURVE",
"132 -261 OFFCURVE",
"179 -261 CURVE SMOOTH",
"215 -261 OFFCURVE",
"244 -246 OFFCURVE",
"263 -218 CURVE SMOOTH"
);
},
{
closed = 1;
nodes = (
"977 231 LINE SMOOTH",
"1001 266 OFFCURVE",
"993 294 OFFCURVE",
"960 294 CURVE SMOOTH",
"771 294 LINE SMOOTH",
"743 294 OFFCURVE",
"722 280 OFFCURVE",
"712 254 CURVE SMOOTH",
"538 -192 LINE SMOOTH",
"521 -235 OFFCURVE",
"542 -261 OFFCURVE",
"589 -261 CURVE SMOOTH",
"625 -261 OFFCURVE",
"654 -246 OFFCURVE",
"673 -218 CURVE SMOOTH"
);
}
);
};
components = (
{
name = quotesinglbase;
transform = "{1, 0, 0, 1, 245, 0}";
},
{
name = quotesinglbase;
transform = "{1, 0, 0, 1, -245, 0}";
}
);
layerId = UUID0;
name = "Regular Italic";
width = 1228;
}
);
unicode = 201E;
},
{
color = 3;
glyphname = quotedblleft;
lastChange = "2015-01-12 05:49:59 +0000";
layers = (
{
background = {
paths = (
{
closed = 1;
nodes = (
"702 815 LINE",
"678 780 OFFCURVE",
"686 752 OFFCURVE",
"719 752 CURVE SMOOTH",
"908 752 LINE SMOOTH",
"936 752 OFFCURVE",
"957 766 OFFCURVE",
"967 792 CURVE SMOOTH",
"1141 1238 LINE SMOOTH",
"1158 1281 OFFCURVE",
"1137 1307 OFFCURVE",
"1090 1307 CURVE SMOOTH",
"1054 1307 OFFCURVE",
"1025 1292 OFFCURVE",
"1006 1264 CURVE"
);
},
{
closed = 1;
nodes = (
"292 815 LINE",
"268 780 OFFCURVE",
"276 752 OFFCURVE",
"309 752 CURVE SMOOTH",
"498 752 LINE SMOOTH",
"526 752 OFFCURVE",
"547 766 OFFCURVE",
"557 792 CURVE SMOOTH",
"731 1238 LINE SMOOTH",
"748 1281 OFFCURVE",
"727 1307 OFFCURVE",
"680 1307 CURVE SMOOTH",
"644 1307 OFFCURVE",
"615 1292 OFFCURVE",
"596 1264 CURVE"
);
}
);
};
components = (
{
name = quoteleft;
transform = "{1, 0, 0, 1, -245, 0}";
},
{
name = quoteleft;
transform = "{1, 0, 0, 1, 245, 0}";
}
);
layerId = UUID0;
name = "Regular Italic";
width = 1228;
}
);
unicode = 201C;
},
{
color = 3;
glyphname = quotedblright;
lastChange = "2015-01-12 05:49:59 +0000";
layers = (
{
background = {
paths = (
{
closed = 1;
nodes = (
"739 1206 LINE SMOOTH",
"763 1241 OFFCURVE",
"755 1269 OFFCURVE",
"722 1269 CURVE SMOOTH",
"533 1269 LINE SMOOTH",
"505 1269 OFFCURVE",
"484 1255 OFFCURVE",
"474 1229 CURVE SMOOTH",
"300 783 LINE SMOOTH",
"283 740 OFFCURVE",
"304 714 OFFCURVE",
"351 714 CURVE SMOOTH",
"387 714 OFFCURVE",
"416 729 OFFCURVE",
"435 757 CURVE SMOOTH"
);
},
{
closed = 1;
nodes = (
"1149 1206 LINE SMOOTH",
"1173 1241 OFFCURVE",
"1165 1269 OFFCURVE",
"1132 1269 CURVE SMOOTH",
"943 1269 LINE SMOOTH",
"915 1269 OFFCURVE",
"894 1255 OFFCURVE",
"884 1229 CURVE SMOOTH",
"710 783 LINE SMOOTH",
"693 740 OFFCURVE",
"714 714 OFFCURVE",
"761 714 CURVE SMOOTH",
"797 714 OFFCURVE",
"826 729 OFFCURVE",
"845 757 CURVE SMOOTH"
);
}
);
};
components = (
{
name = quoteright;
transform = "{1, 0, 0, 1, -245, 0}";
},
{
name = quoteright;
transform = "{1, 0, 0, 1, 245, 0}";
}
);
layerId = UUID0;
name = "Regular Italic";
width = 1228;
}
);
unicode = 201D;
},
{
color = 3;
glyphname = quoteleft;
lastChange = "2015-01-12 05:49:59 +0000";
layers = (
{
layerId = UUID0;
name = "Regular Italic";
paths = (
{
closed = 1;
nodes = (
"849 1307 OFFCURVE",
"820 1292 OFFCURVE",
"801 1264 CURVE SMOOTH",
"497 815 LINE SMOOTH",
"473 780 OFFCURVE",
"481 752 OFFCURVE",
"514 752 CURVE SMOOTH",
"703 752 LINE SMOOTH",
"731 752 OFFCURVE",
"752 766 OFFCURVE",
"762 792 CURVE SMOOTH",
"936 1238 LINE SMOOTH",
"953 1281 OFFCURVE",
"932 1307 OFFCURVE",
"885 1307 CURVE SMOOTH"
);
}
);
width = 1228;
}
);
unicode = 2018;
},
{
color = 3;
glyphname = quoteright;
lastChange = "2015-01-12 05:49:59 +0000";
layers = (
{
layerId = UUID0;
name = "Regular Italic";
paths = (
{
closed = 1;
nodes = (
"738 1269 LINE SMOOTH",
"710 1269 OFFCURVE",
"689 1255 OFFCURVE",
"679 1229 CURVE SMOOTH",
"505 783 LINE SMOOTH",
"488 740 OFFCURVE",
"509 714 OFFCURVE",
"556 714 CURVE SMOOTH",
"592 714 OFFCURVE",
"621 729 OFFCURVE",
"640 757 CURVE SMOOTH",
"944 1206 LINE SMOOTH",
"968 1241 OFFCURVE",
"960 1269 OFFCURVE",
"927 1269 CURVE SMOOTH"
);
}
);
width = 1228;
}
);
unicode = 2019;
},
{
glyphname = quotesinglbase;
lastChange = "2015-01-12 05:49:59 +0000";
layers = (
{
layerId = UUID0;
name = "Regular Italic";
paths = (
{
closed = 1;
nodes = (
"566 294 LINE SMOOTH",
"538 294 OFFCURVE",
"517 280 OFFCURVE",
"507 254 CURVE SMOOTH",
"333 -192 LINE SMOOTH",
"316 -235 OFFCURVE",
"337 -261 OFFCURVE",
"384 -261 CURVE SMOOTH",
"420 -261 OFFCURVE",
"449 -246 OFFCURVE",
"468 -218 CURVE SMOOTH",
"772 231 LINE SMOOTH",
"796 266 OFFCURVE",
"788 294 OFFCURVE",
"755 294 CURVE SMOOTH"
);
}
);
width = 1228;
}
);
unicode = 201A;
},
{
color = (0,243,255,1);
glyphname = cent;
lastChange = "2015-01-12 05:49:59 +0000";
layers = (
{
components = (
{
name = c;
transform = "{1, 0, 0, 1, 25, 140}";
}
);
layerId = UUID0;
name = "Regular Italic";
paths = (
{
closed = 1;
nodes = (
"756 1312 OFFCURVE",
"731 1293 OFFCURVE",
"723 1247 CURVE SMOOTH",
"493 -60 LINE SMOOTH",
"485 -106 OFFCURVE",
"502 -125 OFFCURVE",
"551 -125 CURVE SMOOTH",
"600 -125 OFFCURVE",
"625 -106 OFFCURVE",
"633 -60 CURVE SMOOTH",
"863 1247 LINE SMOOTH",
"871 1293 OFFCURVE",
"854 1312 OFFCURVE",
"805 1312 CURVE SMOOTH"
);
}
);
width = 1228;
}
);
unicode = 00A2;
},
{
glyphname = currency;
lastChange = "2015-01-14 20:33:58 +0000";
layers = (
{
background = {
paths = (
{
closed = 1;
nodes = (
"472 1006 OFFCURVE",
"269 838 OFFCURVE",
"240 602 CURVE SMOOTH",
"211 368 OFFCURVE",
"360 198 OFFCURVE",
"594 198 CURVE SMOOTH",
"828 198 OFFCURVE",
"1031 368 OFFCURVE",
"1060 602 CURVE SMOOTH",
"1089 838 OFFCURVE",
"940 1006 OFFCURVE",
"706 1006 CURVE SMOOTH"
);
},
{
closed = 1;
nodes = (
"853 864 OFFCURVE",
"936 754 OFFCURVE",
"912 602 CURVE SMOOTH",
"888 450 OFFCURVE",
"761 340 OFFCURVE",
"604 340 CURVE SMOOTH",
"447 340 OFFCURVE",
"364 450 OFFCURVE",
"388 602 CURVE SMOOTH",
"412 754 OFFCURVE",
"539 864 OFFCURVE",
"696 864 CURVE SMOOTH"
);
},
{
closed = 1;
nodes = (
"214 1040 OFFCURVE",
"211 1013 OFFCURVE",
"240 979 CURVE SMOOTH",
"950 133 LINE SMOOTH",
"979 98 OFFCURVE",
"1006 97 OFFCURVE",
"1046 130 CURVE SMOOTH",
"1086 164 OFFCURVE",
"1089 191 OFFCURVE",
"1060 225 CURVE SMOOTH",
"350 1071 LINE SMOOTH",
"321 1106 OFFCURVE",
"294 1107 OFFCURVE",
"254 1074 CURVE SMOOTH"
);
},
{
closed = 1;
nodes = (
"1144 1085 OFFCURVE",
"1117 1088 OFFCURVE",
"1083 1059 CURVE SMOOTH",
"125 255 LINE SMOOTH",
"90 226 OFFCURVE",
"89 199 OFFCURVE",
"122 159 CURVE SMOOTH",
"156 119 OFFCURVE",
"183 116 OFFCURVE",
"217 145 CURVE SMOOTH",
"1175 949 LINE SMOOTH",
"1210 978 OFFCURVE",
"1211 1005 OFFCURVE",
"1178 1045 CURVE SMOOTH"
);
}
);
};
layerId = UUID0;
name = "Regular Italic";
paths = (
{
closed = 1;
nodes = (
"435 1006 OFFCURVE",
"247 791 OFFCURVE",
"247 545 CURVE SMOOTH",
"247 341 OFFCURVE",
"389 198 OFFCURVE",
"604 198 CURVE SMOOTH",
"865 198 OFFCURVE",
"1053 413 OFFCURVE",
"1053 659 CURVE SMOOTH",
"1053 863 OFFCURVE",
"911 1006 OFFCURVE",
"696 1006 CURVE SMOOTH"
);
},
{
closed = 1;
nodes = (
"125 255 LINE SMOOTH",
"90 226 OFFCURVE",
"89 199 OFFCURVE",
"122 159 CURVE SMOOTH",
"156 119 OFFCURVE",
"183 116 OFFCURVE",
"217 145 CURVE SMOOTH",
"420.98 316.19 LINE",
"331.68 428.456 LINE"
);
},
{
closed = 1;
nodes = (
"791.327 322.066 LINE",
"950 133 LINE SMOOTH",
"979 98 OFFCURVE",
"1006 97 OFFCURVE",
"1046 130 CURVE SMOOTH",
"1086 164 OFFCURVE",
"1089 191 OFFCURVE",
"1060 225 CURVE SMOOTH",
"900.373 415.203 LINE"
);
},
{
closed = 1;
nodes = (
"825 864 OFFCURVE",
"906 778 OFFCURVE",
"906 652 CURVE SMOOTH",
"906 497 OFFCURVE",
"796 340 OFFCURVE",
"614 340 CURVE SMOOTH",
"475 340 OFFCURVE",
"394 426 OFFCURVE",
"394 552 CURVE SMOOTH",
"394 707 OFFCURVE",
"504 864 OFFCURVE",
"686 864 CURVE SMOOTH"
);
},
{
closed = 1;
nodes = (
"214 1040 OFFCURVE",
"211 1013 OFFCURVE",
"240 979 CURVE SMOOTH",
"399.627 788.797 LINE",
"508.673 881.933 LINE",
"350 1071 LINE SMOOTH",
"321 1106 OFFCURVE",
"294 1107 OFFCURVE",
"254 1074 CURVE SMOOTH"
);
},
{
closed = 1;
nodes = (
"879.02 887.81 LINE",
"968.32 775.544 LINE",
"1175 949 LINE SMOOTH",
"1210 978 OFFCURVE",
"1211 1005 OFFCURVE",
"1178 1045 CURVE SMOOTH",
"1144 1085 OFFCURVE",
"1117 1088 OFFCURVE",
"1083 1059 CURVE SMOOTH"
);
}
);
width = 1228;
}
);
unicode = 00A4;
},
{
color = (0,243,255,1);
glyphname = dollar;
lastChange = "2015-01-12 05:54:25 +0000";
layers = (
{
background = {
components = (
{
name = s;
transform = "{1, 0, 0, 1, 25, 140}";
}
);
paths = (
{
closed = 1;
nodes = (
"720 1312 OFFCURVE",
"695 1293 OFFCURVE",
"687 1247 CURVE SMOOTH",
"457 -60 LINE SMOOTH",
"449 -106 OFFCURVE",
"466 -125 OFFCURVE",
"515 -125 CURVE SMOOTH",
"564 -125 OFFCURVE",
"589 -106 OFFCURVE",
"597 -60 CURVE SMOOTH",
"827 1247 LINE SMOOTH",
"835 1293 OFFCURVE",
"818 1312 OFFCURVE",
"769 1312 CURVE SMOOTH"
);
}
);
};
layerId = UUID0;
name = "Regular Italic";
paths = (
{
closed = 1;
nodes = (
"387 1120 OFFCURVE",
"253 956 OFFCURVE",
"253 792 CURVE SMOOTH",
"253 682 OFFCURVE",
"315 616 OFFCURVE",
"408 584 CURVE SMOOTH",
"533 541 OFFCURVE",
"676 544 OFFCURVE",
"794 511 CURVE SMOOTH",
"858 493 OFFCURVE",
"897 459 OFFCURVE",
"897 401 CURVE SMOOTH",
"897 322 OFFCURVE",
"828 219 OFFCURVE",
"616 219 CURVE SMOOTH",
"481 219 OFFCURVE",
"355 255 OFFCURVE",
"258 317 CURVE SMOOTH",
"230 335 OFFCURVE",
"197 333 OFFCURVE",
"167 279 CURVE SMOOTH",
"140 230 OFFCURVE",
"151 199 OFFCURVE",
"185 178 CURVE SMOOTH",
"297 107 OFFCURVE",
"441 73 OFFCURVE",
"600 73 CURVE SMOOTH",
"955 73 OFFCURVE",
"1057 276 OFFCURVE",
"1057 419 CURVE SMOOTH",
"1057 536 OFFCURVE",
"992 606 OFFCURVE",
"899 639 CURVE SMOOTH",
"777 682 OFFCURVE",
"637 681 OFFCURVE",
"519 709 CURVE SMOOTH",
"453 725 OFFCURVE",
"413 753 OFFCURVE",
"413 808 CURVE SMOOTH",
"413 890 OFFCURVE",
"493 974 OFFCURVE",
"664 974 CURVE SMOOTH",
"789 974 OFFCURVE",
"910 943 OFFCURVE",
"1006 889 CURVE SMOOTH",
"1035 873 OFFCURVE",
"1068 877 OFFCURVE",
"1095 929 CURVE SMOOTH",
"1121 980 OFFCURVE",
"1110 1010 OFFCURVE",
"1075 1029 CURVE SMOOTH",
"963 1090 OFFCURVE",
"824 1120 OFFCURVE",
"676 1120 CURVE SMOOTH"
);
},
{
closed = 1;
nodes = (
"494 149 LINE",
"440 -160 LINE SMOOTH",
"432 -206 OFFCURVE",
"449 -225 OFFCURVE",
"498 -225 CURVE SMOOTH",
"547 -225 OFFCURVE",
"572 -206 OFFCURVE",
"580 -160 CURVE SMOOTH",
"634 149 LINE"
);
},
{
closed = 1;
nodes = (
"738 1412 OFFCURVE",
"714 1393 OFFCURVE",
"706 1347 CURVE SMOOTH",
"653 1051 LINE",
"793 1051 LINE",
"846 1347 LINE SMOOTH",
"854 1393 OFFCURVE",
"836 1412 OFFCURVE",
"787 1412 CURVE SMOOTH"
);
}
);
width = 1228;
}
);
unicode = 0024;
},
{
color = (255,5,0,1);
glyphname = euro;
lastChange = "2015-01-12 05:49:59 +0000";
layers = (
{
layerId = UUID0;
name = "Regular Italic";
paths = (
{
closed = 1;
nodes = (
"481 1209 OFFCURVE",
"250 840 OFFCURVE",
"250 453 CURVE SMOOTH",
"250 166 OFFCURVE",
"397 -22 OFFCURVE",
"658 -22 CURVE SMOOTH",
"795 -22 OFFCURVE",
"927 14 OFFCURVE",
"1051 86 CURVE SMOOTH",
"1091 109 OFFCURVE",
"1096 141 OFFCURVE",
"1073 187 CURVE SMOOTH",
"1049 234 OFFCURVE",
"1015 242 OFFCURVE",
"984 222 CURVE SMOOTH",
"891 161 OFFCURVE",
"779 126 OFFCURVE",
"669 126 CURVE SMOOTH",
"496 126 OFFCURVE",
"404 251 OFFCURVE",
"404 461 CURVE SMOOTH",
"404 755 OFFCURVE",
"566 1061 OFFCURVE",
"849 1061 CURVE SMOOTH",
"943 1061 OFFCURVE",
"1043 1034 OFFCURVE",
"1122 980 CURVE SMOOTH",
"1152 960 OFFCURVE",
"1187 968 OFFCURVE",
"1211 1015 CURVE SMOOTH",
"1234 1061 OFFCURVE",
"1229 1093 OFFCURVE",
"1189 1116 CURVE SMOOTH",
"1085 1179 OFFCURVE",
"974 1209 OFFCURVE",
"860 1209 CURVE SMOOTH"
);
},
{
closed = 1;
nodes = (
"173 514 LINE SMOOTH",
"128 514 OFFCURVE",
"107 494 OFFCURVE",
"97 442 CURVE SMOOTH",
"88 390 OFFCURVE",
"103 370 OFFCURVE",
"148 370 CURVE SMOOTH",
"760 370 LINE SMOOTH",
"805 370 OFFCURVE",
"826 390 OFFCURVE",
"835 442 CURVE SMOOTH",
"845 494 OFFCURVE",
"830 514 OFFCURVE",
"785 514 CURVE SMOOTH"
);
},
{
closed = 1;
nodes = (
"228 824 LINE SMOOTH",
"183 824 OFFCURVE",
"161 804 OFFCURVE",
"152 752 CURVE SMOOTH",
"143 700 OFFCURVE",
"157 680 OFFCURVE",
"202 680 CURVE SMOOTH",
"814 680 LINE SMOOTH",
"859 680 OFFCURVE",
"881 700 OFFCURVE",
"890 752 CURVE SMOOTH",
"899 804 OFFCURVE",
"885 824 OFFCURVE",
"840 824 CURVE SMOOTH"
);
}
);
width = 1228;
}
);
unicode = 20AC;
},
{
glyphname = florin;
lastChange = "2015-01-12 05:49:59 +0000";
layers = (
{
layerId = UUID0;
name = "Regular Italic";
paths = (
{
closed = 1;
nodes = (
"853 1317 OFFCURVE",
"731 1212 OFFCURVE",
"674 1007 CURVE SMOOTH",
"410 54 LINE SMOOTH",
"375 -74 OFFCURVE",
"306 -133 OFFCURVE",
"206 -133 CURVE SMOOTH",
"143 -133 OFFCURVE",
"89 -124 OFFCURVE",
"29 -104 CURVE SMOOTH",
"-4 -93 OFFCURVE",
"-32 -104 OFFCURVE",
"-50 -160 CURVE SMOOTH",
"-67 -214 OFFCURVE",
"-52 -237 OFFCURVE",
"-20 -248 CURVE SMOOTH",
"42 -269 OFFCURVE",
"115 -279 OFFCURVE",
"185 -279 CURVE SMOOTH",
"374 -279 OFFCURVE",
"496 -174 OFFCURVE",
"553 31 CURVE SMOOTH",
"817 984 LINE SMOOTH",
"852 1112 OFFCURVE",
"921 1171 OFFCURVE",
"1021 1171 CURVE SMOOTH",
"1084 1171 OFFCURVE",
"1138 1162 OFFCURVE",
"1198 1142 CURVE SMOOTH",
"1231 1131 OFFCURVE",
"1258 1143 OFFCURVE",
"1277 1198 CURVE SMOOTH",
"1296 1253 OFFCURVE",
"1280 1275 OFFCURVE",
"1247 1286 CURVE SMOOTH",
"1185 1307 OFFCURVE",
"1112 1317 OFFCURVE",
"1042 1317 CURVE SMOOTH"
);
},
{
closed = 1;
nodes = (
"419 848 LINE SMOOTH",
"374 848 OFFCURVE",
"352 828 OFFCURVE",
"343 776 CURVE SMOOTH",
"334 724 OFFCURVE",
"348 704 OFFCURVE",
"393 704 CURVE SMOOTH",
"987 704 LINE SMOOTH",
"1032 704 OFFCURVE",
"1054 724 OFFCURVE",
"1063 776 CURVE SMOOTH",
"1072 828 OFFCURVE",
"1058 848 OFFCURVE",
"1013 848 CURVE SMOOTH"
);
}
);
width = 1228;
}
);
unicode = 0192;
},
{
color = (0,243,255,1);
glyphname = franc;
lastChange = "2015-01-12 05:49:59 +0000";
layers = (
{
layerId = UUID0;
name = "Regular Italic";
paths = (
{
closed = 1;
nodes = (
"445 1187 LINE SMOOTH",
"400 1187 OFFCURVE",
"381 1169 OFFCURVE",
"372 1119 CURVE SMOOTH",
"184 55 LINE SMOOTH",
"176 9 OFFCURVE",
"191 -10 OFFCURVE",
"247 -10 CURVE SMOOTH",
"249 -10 LINE SMOOTH",
"302 -10 OFFCURVE",
"326 9 OFFCURVE",
"334 55 CURVE",
"508 1043 LINE",
"1090 1043 LINE SMOOTH",
"1135 1043 OFFCURVE",
"1157 1063 OFFCURVE",
"1166 1115 CURVE SMOOTH",
"1175 1167 OFFCURVE",
"1161 1187 OFFCURVE",
"1116 1187 CURVE SMOOTH"
);
},
{
closed = 1;
nodes = (
"109 374 LINE SMOOTH",
"64 374 OFFCURVE",
"42 354 OFFCURVE",
"33 302 CURVE SMOOTH",
"24 250 OFFCURVE",
"38 230 OFFCURVE",
"83 230 CURVE SMOOTH",
"695 230 LINE SMOOTH",
"740 230 OFFCURVE",
"762 250 OFFCURVE",
"771 302 CURVE SMOOTH",
"780 354 OFFCURVE",
"766 374 OFFCURVE",
"721 374 CURVE SMOOTH"
);
},
{
closed = 1;
nodes = (
"403 704 LINE",
"378 560 LINE",
"891 560 LINE SMOOTH",
"936 560 OFFCURVE",
"957 580 OFFCURVE",
"966 632 CURVE SMOOTH",
"976 684 OFFCURVE",
"961 704 OFFCURVE",
"916 704 CURVE SMOOTH"
);
}
);
width = 1228;
}
);
unicode = 20A3;
},
